<svg xmlns="http://www.w3.org/2000/svg" width="24" height="24" fill="none" viewBox="0 0 24 24">
    <path fill="currentColor" fill-rule="evenodd"
        d="M7.665 2h8.669C19.724 2 22 4.378 22 7.916v8.168C22 19.622 19.734 22 16.334 22H7.665C4.276 22 2 19.622 2 16.084V7.916C2 4.378 4.276 2 7.665 2Zm3.577 10.22H8.881a.88.88 0 0 1-.877-.88c0-.48.387-.87.877-.87h2.361v-2.36c0-.49.388-.88.878-.88s.878.39.878.88v2.36h2.35c.49 0 .878.39.878.87a.88.88 0 0 1-.878.88h-2.35v2.36c0 .49-.388.88-.878.88a.88.88 0 0 1-.878-.88v-2.36Z"
        clip-rule="evenodd" />
</svg>