<svg xmlns="http://www.w3.org/2000/svg" width="24" height="24" fill="none" viewBox="0 0 24 24">
    <path fill="currentColor" fill-rule="evenodd"
        d="M16.334 2H7.665C4.276 2 2 4.378 2 7.916v8.168C2 19.622 4.276 22 7.665 22h8.669C19.724 22 22 19.622 22 16.084V7.916C22 4.378 19.734 2 16.334 2Zm-.086 10.21h-2.36v2.37a.88.88 0 0 1-.878.87.88.88 0 0 1-.878-.87v-2.37h-2.38a.87.87 0 0 1-.868-.88c0-.48.388-.87.868-.87h2.38v-2.35c0-.49.388-.88.878-.88s.878.39.878.88v2.35h2.36c.49 0 .878.39.878.87 0 .49-.388.88-.878.88Z"
        clip-rule="evenodd" />
</svg>