<svg xmlns="http://www.w3.org/2000/svg" width="24" height="24" fill="none" viewBox="0 0 24 24">
    <path fill="currentColor" fill-rule="evenodd"
        d="M11.985 2c-.06 0-.11 0-.16.01l-.18.02c-.06.01-.13.02-.19.04L5.09 4.07a1.75 1.75 0 0 0-1.25 1.61v6.15c0 1.86.59 3.57 1.73 4.94a9.15 9.15 0 0 0 5.97 3.21c.14.02.28.02.43.02.16 0 .31-.01.45-.02 2.62-.35 4.71-1.58 6.04-3.54a7.92 7.92 0 0 0 1.38-4.52V5.68c0-.7-.46-1.33-1.14-1.56l-6.32-2.02c-.13-.05-.27-.08-.41-.1Zm2.01 12.37c0 .2-.08.42-.22.57l-.88.97c-.16.18-.38.27-.61.27-.23 0-.45-.09-.61-.27l-.88-.97c-.31-.33-.31-.82.02-1.14a.9.9 0 0 1 .61-.25c.22 0 .45.08.6.25l.26.29.27-.29c.16-.17.38-.25.61-.25.24 0 .47.1.61.27.15.15.22.35.22.55Zm-2.21-4.03c.17.18.39.27.62.27.23 0 .45-.09.61-.27l.27-.29.26.29c.15.17.38.25.6.25.24 0 .47-.09.61-.25.33-.32.33-.81.02-1.14l-.88-.97c-.16-.18-.38-.27-.61-.27-.23 0-.45.09-.61.27l-.88.97c-.32.32-.33.8-.01 1.14Zm-1.58 2.18c0 .47-.36.85-.82.85a.83.83 0 0 1-.82-.85v-.08c0-.47.36-.85.82-.85.45 0 .82.38.82.85v.08Zm4.23.85c.46 0 .82-.38.82-.85v-.08c0-.47-.37-.85-.82-.85-.46 0-.82.38-.82.85v.08c0 .47.36.85.82.85Z"
        clip-rule="evenodd" />
</svg>