<svg xmlns="http://www.w3.org/2000/svg" width="24" height="24" fill="none" viewBox="0 0 24 24">
    <path fill="currentColor" fill-rule="evenodd"
        d="M11.985 2c-.06 0-.11 0-.16.01l-.18.02c-.06.01-.13.02-.19.04L5.09 4.07a1.75 1.75 0 0 0-1.25 1.61v6.15c0 1.86.59 3.57 1.73 4.94a9.15 9.15 0 0 0 5.97 3.21c.14.02.28.02.43.02.16 0 .31-.01.45-.02 2.62-.35 4.71-1.58 6.04-3.54a7.92 7.92 0 0 0 1.38-4.52V5.68c0-.7-.46-1.33-1.14-1.56l-6.32-2.02c-.13-.05-.27-.08-.41-.1Zm-.39 12.64c-.23 0-.45-.09-.61-.27l-1.65-1.8c-.15-.15-.24-.36-.24-.58 0-.42.32-.82.82-.82.25 0 .47.1.62.27l1.04 1.13 2.86-3.13c.16-.17.38-.27.62-.27.48 0 .85.36.85.82 0 .2-.08.42-.23.57l-3.47 3.81c-.16.18-.38.27-.61.27Z"
        clip-rule="evenodd" />
</svg>