<svg xmlns="http://www.w3.org/2000/svg" width="24" height="24" fill="none" viewBox="0 0 24 24">
    <path fill="currentColor" fill-rule="evenodd"
        d="M17.081 9.383h-.63V7.753a4.45 4.45 0 0 0-4.46-4.46 4.47 4.47 0 0 0-4.54 4.37v1.72h-.54a2.786 2.786 0 0 0-2.78 2.77v6.05a2.787 2.787 0 0 0 2.78 2.8h10.17a2.794 2.794 0 0 0 2.79-2.8v-6.05a2.78 2.78 0 0 0-2.79-2.77Zm-7.88-1.63a2.73 2.73 0 0 1 2.79-2.63 2.7 2.7 0 0 1 2.71 2.71v1.55H9.201v-1.63Zm5.67 8.6a.87.87 0 0 1-.87.88.87.87 0 0 1-.87-.88v-2.21c0-.49.39-.88.87-.88.49 0 .87.39.87.88v2.21Zm-4.12.88a.87.87 0 0 0 .87-.88v-2.21a.87.87 0 1 0-1.74 0v2.21c0 .49.39.88.87.88Z"
        clip-rule="evenodd" />
</svg>