<svg xmlns="http://www.w3.org/2000/svg" width="24" height="24" fill="none" viewBox="0 0 24 24">
    <path fill="currentColor" fill-rule="evenodd"
        d="M16.0303 2.00293H7.96033C4.57033 2.00293 2.00033 4.58293 2.00033 7.97293V16.0429C2.00033 19.4329 4.57033 22.0029 7.96033 22.0029H16.0303C19.4203 22.0029 21.9903 19.4329 21.9903 16.0329V7.97293C22.0003 4.58293 19.4303 2.00293 16.0303 2.00293ZM7.30033 8.85293C7.30033 8.39293 7.68033 8.00293 8.15033 8.00293H10.2103C10.6703 8.00293 11.0603 8.39293 11.0603 8.85293V15.8829C11.0603 16.1629 10.9403 16.3829 10.8003 16.5229C10.6603 16.6629 10.4503 16.7329 10.2103 16.7329H8.15033C7.68033 16.7329 7.30033 16.3529 7.30033 15.8829V8.85293ZM15.8503 16.7329C16.3203 16.7329 16.7003 16.3529 16.7003 15.8829V8.85293C16.7003 8.39293 16.3203 8.00293 15.8503 8.00293H13.7903C13.3303 8.00293 12.9403 8.39293 12.9403 8.85293V15.8829C12.9403 16.1629 13.0703 16.3829 13.2003 16.5229C13.3403 16.6629 13.5403 16.7329 13.7903 16.7329H15.8503Z"
        clip-rule="evenodd" />
</svg>