<svg xmlns="http://www.w3.org/2000/svg" width="24" height="24" fill="none" viewBox="0 0 24 24">
    <path fill="currentColor" fill-rule="evenodd"
        d="M7.33 2h9.34c3.4 0 5.32 1.93 5.33 5.33v9.34c0 3.4-1.93 5.33-5.33 5.33H7.33C3.93 22 2 20.07 2 16.67V7.33C2 3.93 3.93 2 7.33 2Zm9.6 10.6c.49 0 .88-.39.88-.88v-5.2c0-.49-.39-.88-.88-.88h-5.2a.88.88 0 1 0 0 1.76h3.1L6.9 15.17a.872.872 0 0 0 0 1.24c.17.18.4.26.62.26.22 0 .45-.08.62-.26l7.86-7.85v3.16c0 .49.4.88.93.88Z"
        clip-rule="evenodd" />
</svg>