<svg xmlns="http://www.w3.org/2000/svg" width="24" height="24" fill="none" viewBox="0 0 24 24">
    <path fill="currentColor" fill-rule="evenodd"
        d="M16.19 2H7.82C4.17 2 2 4.17 2 7.81v8.37c0 3.64 2.17 5.82 5.82 5.82h8.37c3.64 0 5.81-2.18 5.81-5.82V7.81C22 4.17 19.83 2 16.19 2Zm-1.56 12.66c.37.22.57.55.57.92 0 .37-.2.7-.57.93l-3.99 2.3c-.2.12-.41.18-.61.18-.19 0-.38-.05-.55-.16-.38-.22-.61-.62-.61-1.09V9.26c0-.47.23-.87.61-1.09a1.16 1.16 0 0 1 1.16-.02l3.99 2.3c.37.23.57.56.57.93 0 .37-.2.7-.57.92l-3.99 2.31v-4.61l3.99 2.3v.01-.01Z"
        clip-rule="evenodd" />
</svg>