<svg xmlns="http://www.w3.org/2000/svg" width="24" height="24" fill="none" viewBox="0 0 24 24">
    <path fill="currentColor" fill-rule="evenodd"
        d="M11.976 18.636c-.61 0-1.2-.127-1.76-.37a4.393 4.393 0 0 1-2.31-2.309 4.356 4.356 0 0 1-.37-1.76c0-2.43 1.98-4.413 4.44-4.413s4.44 1.984 4.44 4.414c0 .609-.13 1.2-.37 1.759a4.39 4.39 0 0 1-2.31 2.309 4.32 4.32 0 0 1-1.76.37Zm8.71-12.1c.17.429.3.898.35 1.395a.705.705 0 0 1-.71.774h-1.33c-.38 0-.71-.293-.74-.673-.05-.556-.27-1.045-.57-1.466-.08-.118-.15-.244-.15-.391 0-.195.16-.39.36-.39h1.89c.43 0 .73.332.9.752Zm-16.66 1.4c.05-.498.18-.967.35-1.396.17-.42.47-.751.9-.751h1.89c.2 0 .36.195.36.39 0 .147-.07.273-.15.39-.3.421-.52.91-.57 1.467-.03.38-.36.673-.74.673h-1.33a.705.705 0 0 1-.71-.773Zm7.95 7.782a1.517 1.517 0 0 1-1.52-1.52c0-.84.68-1.522 1.52-1.522.84 0 1.52.683 1.52 1.522a1.52 1.52 0 0 1-1.52 1.52ZM16.335 2H7.668c-1.63 0-3.15.73-4.16 2.006-.73.94-1.15 2.086-1.22 3.32v.125c-.02.254-.04.596-.04.95v5.83c0 3.672 2.21 5.77 5.76 5.77h7.98c3.52 0 5.76-2.098 5.76-5.77v-5.83c0-.354-.02-.696-.04-.95v-.127c-.07-1.233-.49-2.377-1.22-3.318C19.485 2.73 17.965 2 16.335 2Z"
        clip-rule="evenodd" />
</svg>