<svg xmlns="http://www.w3.org/2000/svg" width="24" height="24" fill="none" viewBox="0 0 24 24">
    <path fill="currentColor" fill-rule="evenodd"
        d="M16.19 2H7.82C4.17 2 2 4.17 2 7.81v8.37c0 3.64 2.17 5.82 5.82 5.82h8.37c3.64 0 5.81-2.18 5.81-5.82V7.81C22 4.17 19.83 2 16.19 2ZM8.75 10.23c-.56 0-1.03-.27-1.34-.62l-.13.77c-.07.43-.45.74-.88.74-.05 0-.1 0-.15-.01a.88.88 0 0 1-.72-1.02l.5-3a.88.88 0 0 1 1.02-.72l3 .5c.48.08.8.53.72 1.02a.88.88 0 0 1-.87.74h-.15l-.8-.13c.33.32.81.53 1.34.51.64-.02 1.27-.3 1.72-.77l1.04-1.11a.88.88 0 0 1 1.28 1.21l-1.04 1.1c-.78.83-1.85 1.3-2.94 1.33-.04-.01-.41.02-.6-.04Zm5.04 3.8c-.38.16-.82.15-1.14-.11l-1.11-1.04a.88.88 0 0 1 1.21-1.28l1.1 1.04c.47.45.75 1.08.77 1.72.03.53-.19 1.01-.52 1.34l.14-.8c.08-.48-.24-.94-.73-1.02a.88.88 0 0 0-1.02.73l-.5 3c-.07.43.21.84.64.96.08.04.24.06.37.06h.11l3-.5c.48-.08.8-.54.72-1.02-.08-.48-.54-.8-1.02-.72l-.77.13c.35-.31.62-.78.62-1.34-.03-1.09-.51-2.16-1.33-2.94l-1.11-1.04a.88.88 0 0 0-1.21 1.28l1.04 1.11c.35.33.58.73.66 1.15.05.13.09.27.08.39Z"
        clip-rule="evenodd" />
</svg>