<svg xmlns="http://www.w3.org/2000/svg" width="24" height="24" fill="none" viewBox="0 0 24 24">
    <path fill="currentColor" fill-rule="evenodd"
        d="M16.19 2H7.82C4.17 2 2 4.17 2 7.81v8.37c0 3.64 2.17 5.82 5.82 5.82h8.37c3.64 0 5.81-2.18 5.81-5.82V7.81C22 4.17 19.83 2 16.19 2ZM8.82 14.9c0 .66-.54 1.2-1.2 1.2-.66 0-1.2-.54-1.2-1.2V9.1c0-.66.54-1.2 1.2-1.2.66 0 1.2.54 1.2 1.2v5.8Zm5.46-2.58a1.2 1.2 0 1 1-.001 2.4 1.2 1.2 0 0 1 .001-2.4Zm3.3.79c.66 0 1.2-.54 1.2-1.2V9.1c0-.66-.54-1.2-1.2-1.2-.66 0-1.2.54-1.2 1.2v2.81c0 .66.54 1.2 1.2 1.2Z"
        clip-rule="evenodd" />
</svg>