<svg xmlns="http://www.w3.org/2000/svg" width="24" height="24" fill="none" viewBox="0 0 24 24">
    <path fill="currentColor" fill-rule="evenodd"
        d="M17.98 10.79v-.01c.03-.15.04-.3.02-.45V5.5A3.5 3.5 0 0 0 14.5 2H5.8C3.7 2 2 3.7 2 5.8v12.4C2 20.3 3.7 22 5.8 22h12.4c2.1 0 3.8-1.7 3.8-3.8v-6.54c0-.32-.18-.59-.4-.74-.18-.13-.42-.18-.67-.13h-.95Zm-8-3.62a.734.734 0 0 0-.74-.73H6.5a.74.74 0 0 0 0 1.48h2.74c.4 0 .73-.33.74-.73v-.02ZM6.5 12.15h4.45a.74.74 0 1 0 0-1.48H6.5a.74.74 0 1 0 0 1.48ZM14.5 3.48a2 2 0 0 1 2.001 1.858l-1.151.622c-.99.539-1.623 1.599-1.623 2.735l-.001.357h-7.22a.74.74 0 0 0 0 1.48h7.22V18.2a.74.74 0 0 1-.74.74H5.8c-1.24 0-2.25-1.01-2.25-2.25V5.8c0-1.24 1.01-2.32 2.25-2.32h8.7Z"
        clip-rule="evenodd" />
</svg>