<svg xmlns="http://www.w3.org/2000/svg" width="24" height="24" fill="none" viewBox="0 0 24 24">
    <path fill="currentColor" fill-rule="evenodd"
        d="M16.19 2H7.82C4.17 2 2 4.17 2 7.81v8.37c0 3.64 2.17 5.82 5.82 5.82h8.37c3.64 0 5.81-2.18 5.81-5.82V7.81C22 4.17 19.83 2 16.19 2ZM9.327 15.94a.826.826 0 0 1-.02.021l-.023.019a.788.788 0 0 1-.38.12.746.746 0 0 1-.26-.01c-.032 0-.064-.01-.095-.02l-.044-.021-.019-.01-.056-.029c-.039-.02-.073-.047-.104-.076l-.01-.01-.01-.009c-.02-.018-.037-.037-.054-.056l-.03-.035-.028-.038-.023-.037-.01-.014a.704.704 0 0 1-.086-.24.758.758 0 0 1-.005-.197c.003-.038.01-.074.02-.11l.01-.036c.01-.035.026-.069.043-.102l2.85-4.95c.19-.33.62-.44.95-.25.33.19.44.61.25.94L9.72 14.66l4.4-2.37-2.47-4.26c-.19-.33-.08-.75.25-.94.33-.19.75-.08.94.25l2.85 4.95a.749.749 0 0 1-.27 1.02l-5.7 3.08a.712.712 0 0 1-.394.09Z"
        clip-rule="evenodd" />
</svg>