<svg width="297" height="50" viewBox="0 0 297 50" fill="none" xmlns="http://www.w3.org/2000/svg">
    <path
        d="M135.695 38.4048V0.0537109H154.337C154.84 0.0537109 160.808 2.50862 161.694 3.01562C172.571 9.23562 173.219 24.9947 163.808 32.9727C156.6 39.0827 144.603 39.4368 135.695 38.4048ZM150.609 35.5366C172.145 33.0046 172.664 3.82371 150.612 2.62671C162.773 10.6617 161.219 26.8886 150.609 35.5366ZM140.284 36.1147C159.676 35.7407 161.398 2.71179 140.284 2.91479V36.1147Z"
        fill="currentColor" style="fill:currentColor;fill-opacity:1;" />
    <path
        d="M281.301 0.149414L296.281 38.0574C290.231 43.1774 289.874 28.8914 287.912 27.4744L271.008 27.3093L266.919 38.2654L262.467 38.9724L277.081 0.614502L281.301 0.149414ZM285.982 23.5215C284.57 17.4955 281.722 11.5665 279.385 5.77148L272.788 23.5215H285.982Z"
        fill="currentColor" style="fill:currentColor;fill-opacity:1;" />
    <path
        d="M107.015 36.1145V49.2796H103V13.2176L107.018 13.2144L107.021 16.0794C118.638 7.09237 131.829 17.1886 127.363 30.9466C125.11 37.8876 118.104 41.5006 111.212 38.5086C109.538 37.7816 108.662 36.4635 107.015 36.1145ZM114.924 16.2024C111.649 16.5254 107.332 18.6314 106.982 22.0574C106.808 23.7624 106.765 30.2205 107.314 31.5225C108.067 33.3105 112.868 35.8295 114.843 35.9085C127.749 36.4255 126.681 15.0444 114.924 16.2024Z"
        fill="currentColor" style="fill:currentColor;fill-opacity:1;" />
    <path
        d="M24.9521 4.11165L22.907 7.44979C18.453 2.99779 4.84102 2.41179 5.11502 10.5538C5.39302 18.8378 22.163 16.1267 25.799 24.7127C27.881 29.6287 25.557 34.6058 21.147 37.1478C15.314 40.5098 9.07504 40.1888 3.25504 36.9088C0.659037 35.4458 -1.44395 34.0378 1.26505 31.4898C2.56105 31.2708 6.90705 34.9648 9.34805 35.4088C14.5151 36.3488 22.3201 34.8188 22.1711 28.3868C21.9511 18.8428 1.15503 23.3859 0.849031 10.6439C0.568031 -1.05712 17.8581 -1.42013 24.9521 4.11287V4.11165Z"
        fill="currentColor" style="fill:currentColor;fill-opacity:1;" />
    <path
        d="M76.0398 26.9554C76.3768 36.5934 87.7489 38.3015 94.1099 32.6895C98.5579 36.1785 90.6008 38.9455 87.6628 39.4085C80.5608 40.5285 73.1178 36.3695 72.0748 28.9085C69.2778 8.89548 97.6549 6.54859 97.7599 26.2996C97.3239 26.3556 96.6098 26.9554 96.4028 26.9554H76.0398ZM93.2489 23.5215C92.0439 13.6105 77.6889 13.7775 76.6139 23.5215H93.2489Z"
        fill="currentColor" style="fill:currentColor;fill-opacity:1;" />
    <path
        d="M46.7865 26.9555C46.2985 32.5785 51.3964 36.2855 56.6494 35.9855C59.6394 35.8145 62.1065 34.2147 64.8155 33.2267L65.4635 36.1056C54.0925 43.9996 41.0885 37.8656 42.7685 23.2326C44.0135 12.3846 59.4255 8.76559 65.7115 17.5136C67.3595 19.8066 69.1725 24.6535 67.1485 26.9545H46.7855L46.7865 26.9555ZM63.9945 23.5216C62.4735 14.1276 49.7735 13.7166 47.0115 22.3366L47.6465 23.5216H63.9945Z"
        fill="currentColor" style="fill:currentColor;fill-opacity:1;" />
    <path
        d="M186.033 12.7966C204.706 10.3746 207.38 37.2878 189.856 39.4978C172 41.7498 169.163 14.9846 186.033 12.7966ZM187.201 16.2026C180.167 16.9086 177.168 24.2105 179.584 30.3825C182.834 38.6855 195.818 37.3096 197.508 28.2546C198.738 21.6656 194.222 15.4986 187.201 16.2026Z"
        fill="currentColor" style="fill:currentColor;fill-opacity:1;" />
    <path
        d="M244.109 0.0527344V34.9697H259.31C260.483 34.9697 260.483 38.9768 259.31 38.9768H240.094V0.0527344H244.109Z"
        fill="currentColor" style="fill:currentColor;fill-opacity:1;" />
    <path
        d="M228.018 17.7715C222.649 16.6715 215.845 14.2174 211.732 19.5474C203.794 29.8334 217.013 40.7275 227.171 33.8245L228.088 35.2625C228.382 38.2555 220.422 39.7184 218.02 39.5464C206.015 38.6894 201.069 23.4064 210.26 15.7884C215.307 11.6054 222.728 11.7584 228.072 15.2444L228.018 17.7715Z"
        fill="currentColor" style="fill:currentColor;fill-opacity:1;" />
    <path
        d="M36.4603 0.0524203V38.1174C36.4603 39.2874 32.4453 39.2874 32.4453 38.1174V0.911307C33.3743 -0.381693 35.0663 0.0934203 36.4603 0.0524203Z"
        fill="currentColor" style="fill:currentColor;fill-opacity:1;" />
</svg>