<svg xmlns="http://www.w3.org/2000/svg" width="24" height="24" fill="none" viewBox="0 0 24 24">
    <path fill="currentColor" fill-rule="evenodd"
        d="M15.85 7.25h-1.73c0-1.97-1.6-3.57-3.57-3.57-1.97 0-3.57 1.6-3.57 3.57 0 1.97 1.6 3.57 3.57 3.57 2.65 0 4.82-2.11 4.9-4.74.16-.34.4-.83.4-.83Zm-5.3 5.28c-2.96 0-5.38-2.42-5.38-5.38a.863.863 0 0 1 1.72 0c0 2.02 1.64 3.66 3.66 3.66.18 0 .36-.02.53-.04.11.59.36 1.14.69 1.63-.4.09-.81.13-1.22.13Zm6.94 5.44c-.87.87-2.29.87-3.16 0l-1.06-1.06c.58-.44 1.06-.99 1.42-1.62l.76.77c.12.13.28.19.45.19.16 0 .33-.06.45-.19.25-.25.25-.65 0-.9l-.76-.76a4.69 4.69 0 0 0 .45-2.01c0-1.3-.53-2.47-1.38-3.33-.85-.85-2.03-1.38-3.33-1.38-2.6 0-4.71 2.11-4.71 4.71 0 2.6 2.11 4.71 4.71 4.71.71 0 1.38-.16 1.99-.45a4.69 4.69 0 0 0 2.01-.45l2.17 2.17c.87.87 2.29.87 3.16 0s.87-2.29 0-3.16l-2.17-2.17Z"
        clip-rule="evenodd" />
</svg>