<svg xmlns="http://www.w3.org/2000/svg" width="24" height="24" fill="none" viewBox="0 0 24 24">
    <path fill="currentColor" fill-rule="evenodd"
        d="M9.592 15.207c0-.3.105-.577.28-.8.276-.39.727-.64 1.24-.64h1.768c.513 0 .973.25 1.249.64.174.223.27.5.27.8v2.8a1.41 1.41 0 0 0 1.12 1.38v-4.18c0-1.41-1.152-2.56-2.569-2.56h-1.898a2.57 2.57 0 0 0-2.57 2.56v4.18c.55-.11.99-.57 1.11-1.12v-2.06Zm5.39-5.64c0 1.38-1.12 2.51-2.51 2.51s-2.51-1.13-2.51-2.51c0-1.39 1.12-2.52 2.51-2.52s2.51 1.13 2.51 2.52ZM2 7.85c0-3.72 2.19-5.85 5.91-5.85h8.18c3.72 0 5.91 2.13 5.91 5.85v8.3c0 3.73-2.19 5.85-5.91 5.85H7.91C4.19 22 2 19.87 2 16.15v-8.3Z"
        clip-rule="evenodd" />
</svg>