<svg xmlns="http://www.w3.org/2000/svg" width="24" height="24" fill="none" viewBox="0 0 24 24">
    <path fill="currentColor" fill-rule="evenodd"
        d="M11.997 15.172c-3.659 0-6.78.562-6.78 2.815 0 2.252 3.103 2.832 6.78 2.832 3.66 0 6.78-.562 6.78-2.814 0-2.253-3.103-2.833-6.78-2.833Zm0-2.39a4.706 4.706 0 0 0 4.712-4.71 4.706 4.706 0 0 0-4.712-4.71 4.707 4.707 0 0 0-4.712 4.71 4.706 4.706 0 0 0 4.712 4.71Zm6.362.006c1.595-.22 2.84-1.51 2.843-3.102.003-1.548-1.163-2.832-2.698-3.106a.474.474 0 0 0-.56.388.482.482 0 0 0 .378.565c1.01.181 1.78 1.034 1.778 2.056-.003 1.054-.865 1.955-1.917 2.051a.471.471 0 0 0-.427.522.476.476 0 0 0 .474.433c.042 0 .085-.004.129-.008Zm2.056 4.196c.627.343 1.04.821 1.165 1.377.103.449.103.988-.002 1.427-.188.78-1.017 1.169-1.678 1.32a.486.486 0 0 1-.566-.379.478.478 0 0 1 .375-.56c.635-.144.805-.42.854-.627a.986.986 0 0 0 0-.626c-.076-.331-.334-.627-.757-.86a.476.476 0 0 1-.173-.652.481.481 0 0 1 .659-.17l.123.75Zm-12.757-.006a.477.477 0 0 1-.426-.523c.027-.26.249-.448.498-.434.045.006.089.01.13.01a.476.476 0 0 0 .475-.435c.028-.265-.163-.503-.426-.521-1.054-.095-1.917-.996-1.92-2.051-.002-1.022.77-1.875 1.779-2.057a.48.48 0 0 0 .378-.564.474.474 0 0 0-.56-.388c-1.536.274-2.7 1.558-2.699 3.107.002 1.593 1.25 2.882 2.844 3.101a.474.474 0 0 1-.073.756Zm-.16.007a.48.48 0 0 0-.172.65.476.476 0 0 0 .659.17l.123-.75a.478.478 0 0 0-.487-.82c-.423.233-.682.529-.757.86a.99.99 0 0 0 0 .626c.049.206.219.482.853.626a.478.478 0 0 1 .375.56.485.485 0 0 1-.566.38c-.661-.152-1.49-.54-1.677-1.32-.106-.44-.106-.98-.003-1.427.125-.556.538-1.034 1.165-1.377l.487.822Z"
        clip-rule="evenodd" />
</svg>