<svg xmlns="http://www.w3.org/2000/svg" width="24" height="24" fill="none" viewBox="0 0 24 24">
    <path fill="currentColor" fill-rule="evenodd"
        d="M8.398 10.791c-2.085 0-3.797-1.704-3.797-3.79C4.601 4.915 6.313 3.21 8.398 3.21c2.086 0 3.797 1.705 3.797 3.791s-1.711 3.79-3.797 3.79Zm7.214 0a3.788 3.788 0 0 1-3.798-3.79 3.8 3.8 0 0 1 3.798-3.791 3.8 3.8 0 0 1 3.797 3.791c0 2.086-1.712 3.79-3.797 3.79Zm-.028 10a.87.87 0 0 1-.869-.87c0-3.128-2.552-5.673-5.685-5.673-3.143 0-5.696 2.545-5.696 5.673a.87.87 0 0 1-.869.87A.87.87 0 0 1 1.596 20c0-4.082 3.339-7.403 7.434-7.403 4.085 0 7.424 3.321 7.424 7.403a.87.87 0 0 1-.87.87Zm4.75 0a.87.87 0 0 1-.869-.87c0-2.721-1.478-5.133-3.777-6.268a.866.866 0 0 1-.4-1.168.872.872 0 0 1 1.171-.398c2.928 1.447 4.744 4.479 4.744 7.834a.87.87 0 0 1-.87.87Z"
        clip-rule="evenodd" />
</svg>