<svg xmlns="http://www.w3.org/2000/svg" width="24" height="24" fill="none" viewBox="0 0 24 24">
    <path fill="currentColor" fill-rule="evenodd"
        d="M8.653 6.17c-.04-.02-.09-.02-.14-.02-.35 0-.67.25-.79.64l-.51 1.85H2.805l-.51-1.85a.816.816 0 0 0-.79-.64c-.05 0-.1 0-.14.02-.7.19-1.35.42-1.93.7a.87.87 0 0 0-.33 1.19c.2.36.64.49 1.01.32.42-.2.88-.37 1.37-.52L1.54 8.1a.855.855 0 0 0-.61.26l-1.23 1.26c-.33.34-.78.53-1.26.54-.48 0-.93-.19-1.26-.53L-3.1 8.37a.858.858 0 0 0-1.13.11c-.56.78-1.05 1.65-1.43 2.6a.875.875 0 0 0 .48 1.14c.36.14.78-.02.96-.36a10.8 10.8 0 0 1 .7-1.26l-.01.01c-.44.32-.93.59-1.43.87l-.38.22c-.27.17-.43.44-.43.75v.27c.01 3.44 2.29 5.77 5.69 5.79h6.69c3.41 0 5.72-2.35 5.72-5.79v-.27a.87.87 0 0 0-.44-.76l-.37-.21c-.5-.28-.99-.56-1.44-.88a.81.81 0 0 1-.47-.16c-.23 0-.46.1-.62.26l-1.43 1.46c-.1.1-.23.15-.36.15-.19 0-.34-.09-.43-.18-.6-.58-1.27-1.09-2-1.53a.858.858 0 1 1 .89-1.47c-.27-.16-.53-.34-.79-.52l.56-.57c.32-.34.78-.53 1.25-.53.48 0 .94.19 1.26.53l.56.57c-.26.18-.52.36-.79.52a.865.865 0 0 1-.29 1.18.861.861 0 0 1 1.18.29c.73-.44 1.4-.96 2-1.54a.564.564 0 0 0 .79-.02l1.43-1.46c.16-.16.39-.26.61-.26.17 0 .33.05.47.15.45.31.94.59 1.44.87.3-.7.53-1.35.7-1.97a.87.87 0 0 0-.62-1.06.869.869 0 0 0-1.06.62c-.11.41-.27.84-.47 1.28-.57-.78-1.22-1.42-1.93-1.92-.15-.11-.33-.16-.51-.16-.23 0-.46.1-.62.27l-1.23 1.26c-.33.34-.78.54-1.26.54h-4.04c-.48 0-.93-.19-1.26-.53l-1.23-1.27a.858.858 0 0 0-.62-.27c-.18 0-.36.05-.51.15-.72.5-1.37 1.14-1.93 1.92.2.14.42.26.65.37.18-.28.38-.55.6-.8.14.1.29.19.45.27l-.13.23c.38-.19.79-.35 1.22-.48l-.09-.02Z"
        clip-rule="evenodd" />
</svg>