<svg xmlns="http://www.w3.org/2000/svg" width="24" height="24" fill="none" viewBox="0 0 24 24">
    <path fill="currentColor" fill-rule="evenodd"
        d="M3.393 11.64a.87.87 0 0 0-.433.75v.28c.01 3.44 2.29 5.77 5.69 5.79h6.69c3.41 0 5.72-2.35 5.72-5.79v-.27c-.01-.31-.17-.59-.44-.76-.43-.26-.87-.5-1.3-.74l-.01-.01c-.49-.28-.97-.55-1.41-.86a.81.81 0 0 0-.47-.16c-.23 0-.46.1-.62.26l-1.43 1.46c-.1.1-.23.15-.36.15-.19 0-.34-.09-.43-.18-.6-.58-1.27-1.09-2-1.53a.858.858 0 1 0-.89 1.47c.27.16.53.34.79.52l-.56.57c-.32.34-.78.53-1.25.53-.48 0-.94-.19-1.26-.53l-.56-.57c.26-.18.52-.36.79-.52a.865.865 0 0 0 .29-1.18.861.861 0 0 0-1.18-.29c-.73.44-1.4.96-2 1.54a.564.564 0 0 1-.79.02l-1.43-1.46a.855.855 0 0 0-.61-.26c-.17 0-.33.05-.47.15-.45.32-.94.6-1.44.88l-.37.21Zm12.26-5.47c-.04-.02-.09-.02-.14-.02-.35 0-.67.25-.79.64L14.2 8.64h-4.4l-.51-1.85a.816.816 0 0 0-.79-.64c-.05 0-.1 0-.14.02-1.39.38-2.61.91-3.6 1.56-.21.14-.35.37-.38.63-.02.18.03.36.13.5.56.78 1.21 1.42 1.93 1.92.15.1.33.16.51.16.23 0 .46-.1.62-.27l1.23-1.26c.33-.34.78-.53 1.26-.54h4.04c.48 0 .93.19 1.26.53l1.23 1.27c.16.17.39.26.62.26.18 0 .36-.05.51-.15.72-.5 1.37-1.14 1.94-1.93.1-.14.14-.32.13-.5-.04-.26-.17-.49-.38-.63-1-.65-2.22-1.18-3.61-1.56Z"
        clip-rule="evenodd" />
</svg>