<svg xmlns="http://www.w3.org/2000/svg" width="24" height="24" fill="none" viewBox="0 0 24 24">
    <path fill="currentColor" fill-rule="evenodd"
        d="M3.393 12.36a.87.87 0 0 1 .433-.75l.37-.21c.5-.28.99-.56 1.44-.88a.81.81 0 0 1 .47-.16c.23 0 .46.1.62.26l1.43 1.46c.1.1.23.15.36.15.19 0 .34-.09.43-.18.6.58 1.27 1.09 2 1.53a.858.858 0 1 1 .89-1.47c-.27-.16-.53-.34-.79-.52l.56-.57c.32-.34.78-.53 1.25-.53.48 0 .94.19 1.26.53l.56.57c-.26.18-.52.36-.79.52a.865.865 0 0 1-.29 1.18.861.861 0 0 1 1.18.29c.73-.44 1.4-.96 2-1.54a.564.564 0 0 0 .79-.02l1.43-1.46c.16-.16.39-.26.61-.26.17 0 .33.05.47.15.45.32.94.6 1.44.88l.37.21c.27.17.43.45.44.76v.27c-.01 3.44-2.29 5.77-5.69 5.79h-6.69c-3.41 0-5.72-2.35-5.72-5.79v-.28Zm8.26-6.19c-.72.5-1.37 1.14-1.93 1.92-.1.14-.15.32-.13.5.03.26.17.49.38.63.99.65 2.21 1.18 3.6 1.56.05.02.1.02.14.02.35 0 .67-.25.79-.64l.51-1.85h4.4l.51 1.85c.12.39.44.64.79.64.05 0 .09 0 .14-.02 1.39-.38 2.61-.91 3.61-1.56.21-.14.34-.37.38-.63.01-.18-.03-.36-.13-.5-.57-.78-1.22-1.42-1.94-1.92-.15-.11-.33-.16-.51-.16-.23 0-.46.1-.62.27l-1.23 1.26c-.33.34-.78.54-1.26.54h-4.04c-.48 0-.93-.19-1.26-.53l-1.23-1.27a.856.856 0 0 0-1.13-.1Z"
        clip-rule="evenodd" />
</svg>