<svg width="295" height="107" viewBox="0 0 295 107" fill="none" xmlns="http://www.w3.org/2000/svg">
    <path
        d="M95.1954 46.2865C67.4784 64.7365 40.1834 25.1965 65.1944 5.7535C92.1764 -15.2225 125.024 26.4305 95.1954 46.2865ZM91.8754 36.1124C101.191 24.7074 92.1074 6.81246 76.8094 11.0465C66.1244 14.0045 63.4614 29.5904 71.1454 36.9234C76.4034 41.9404 87.2544 41.7684 91.8744 36.1124H91.8754Z"
        fill="currentColor" style="fill:currentColor;fill-opacity:1;" />
    <path
        d="M34.12 14.5205C30.775 14.9215 28.417 12.1733 25.112 11.3103C21.552 10.3803 14.643 9.62044 12.797 13.5544C10.972 17.4404 14.921 18.6965 17.992 19.5615C27.02 22.1045 39.919 22.4304 39.952 35.4724C40.001 54.8994 10.39 53.6654 0 43.2134L5.84497 34.6694C9.60597 36.8914 12.371 39.8194 17.259 40.3284C20.334 40.6484 27.853 40.7143 28.456 36.5813C29.181 31.6173 18.352 31.3295 15.113 30.4485C7.76598 28.4495 1.179 25.1415 0.875 16.5955C0.2 -2.38754 27.336 -3.73972 38.162 6.91528L34.121 14.5215L34.12 14.5205Z"
        fill="currentColor" style="fill:currentColor;fill-opacity:1;" />
    <path
        d="M290.372 45.8557C283.586 52.8007 268.355 51.5737 260.371 47.2947C258.692 46.3947 253.757 43.5247 254.709 41.4917C254.848 41.1947 258.322 36.7116 258.717 36.3096C259.378 35.6366 260.134 35.0436 261.044 34.7476C264.623 39.7866 276.702 42.6828 281.421 38.9278C289.506 32.4958 268.756 30.1437 265.603 28.9097C255.854 25.0947 252.277 14.6007 259.026 6.2737C264.814 -0.8683 277.111 -1.00531 285.151 1.96169C286.493 2.45669 291.464 4.93074 292.045 5.99074C292.686 7.15974 288.336 14.2476 287.309 14.5086C282.717 12.7056 279.614 10.4576 274.222 10.5286C265.989 10.6366 264.157 17.2368 272.665 19.5728C278.824 21.2638 287.002 21.2467 291.395 26.6397C295.596 31.7967 295.002 41.1177 290.371 45.8567L290.372 45.8557Z"
        fill="currentColor" style="fill:currentColor;fill-opacity:1;" />
    <path
        d="M136.274 39.7622H156.351C156.896 41.9572 158.034 49.1682 155.375 49.9502L126.852 50.0222L124.478 48.9182L124.277 3.37305C124.161 2.76705 125.424 1.41113 125.663 1.41113H134.841C134.942 1.41113 136.275 2.74104 136.275 2.84204L136.274 39.7622Z"
        fill="currentColor" style="fill:currentColor;fill-opacity:1;" />
    <path
        d="M185.604 1.41113C185.673 2.06313 185.971 2.62517 185.976 3.29517C186.056 13.8872 184.37 27.5471 185.574 37.7881C185.672 38.6211 185.645 39.2602 186.464 39.7622H206.827V49.4932H174.705V2.26904L175.565 1.41016H185.603L185.604 1.41113Z"
        fill="currentColor" style="fill:currentColor;fill-opacity:1;" />
    <path
        d="M226.045 1.41113H235.223L236.083 2.84326C235.603 5.95226 236.556 9.06405 236.681 11.9771C237.102 21.8281 237.645 37.4441 236.692 46.9521C236.607 47.8001 236.249 50.0662 235.224 50.0662H226.046C224.393 50.0662 225.186 47.8132 225.186 47.4902V2.27026L226.045 1.41113Z"
        fill="currentColor" style="fill:currentColor;fill-opacity:1;" />
    <path
        d="M268.206 104.159C268.201 104.329 268.87 104.648 268.286 105.323C267.124 106.631 263.617 106.736 263.617 104.732V74.9665C263.617 74.8055 264.506 73.4086 264.764 73.2526C269.933 72.1946 268.241 73.6636 268.178 76.6586C268.106 80.0686 267.612 84.9576 269.067 87.8456H286.849L287.709 86.9865V73.8215C288.819 72.4845 291.271 72.5385 292.298 73.8215V104.732C292.298 106.18 287.709 106.789 287.709 105.304V92.1386L286.849 91.4035C286.616 91.3865 286.418 91.8525 286.275 91.8525H269.64C269.439 91.8525 269.004 90.8366 268.206 92.1386C268.119 96.1406 268.324 100.158 268.206 104.159Z"
        fill="currentColor" style="fill:currentColor;fill-opacity:1;" />
    <path
        d="M143.134 105.564C137.222 108.171 137.883 101.158 135.35 97.5391L118.324 97.5672C116.415 98.0832 115.393 110.147 109.924 105.26L123.771 73.0843C125.678 73.0213 128.638 72.2481 129.903 73.8811L143.134 105.564ZM119.639 93.5691H133.406L126.804 78.6802C125.813 78.5532 125.668 79.4093 125.34 80.0823C123.292 84.2843 121.881 89.3721 119.64 93.5691H119.639Z"
        fill="currentColor" style="fill:currentColor;fill-opacity:1;" />
    <path
        d="M84.6487 72.9624L83.7887 76.3965H64.5727V86.9863L65.4327 87.8455H80.9207C81.7747 87.8455 82.5357 91.2095 80.8387 91.7705C77.4317 91.8305 73.9787 91.9845 70.5717 91.8755C69.5337 91.8425 64.5727 90.4364 64.5727 92.1384V102.156C69.7267 101.867 78.2687 100.674 83.1987 101.599C86.1727 102.157 85.3797 106.162 84.3617 106.162H60.5566V72.9624H84.6487Z"
        fill="currentColor" style="fill:currentColor;fill-opacity:1;" />
    <path
        d="M26.7133 72.9624H30.7283V105.303C29.7993 106.596 28.1073 106.121 26.7133 106.162V91.8523L7.2673 91.3335C6.9893 91.5065 6.62024 97.1015 6.60824 97.8345C6.57224 100.087 7.87326 104.981 6.06326 105.881C0.130257 107.161 2.57129 102.272 2.64529 99.0315C2.84329 90.3535 2.45129 81.6344 2.61929 72.9604L6.27224 73.0425L7.13125 73.9014C7.20225 77.1124 7.32428 80.3634 7.23928 83.5754C7.21528 84.4784 6.05225 87.8455 7.49825 87.8455H25.8543L26.7143 86.9863L26.7133 72.9624Z"
        fill="currentColor" style="fill:currentColor;fill-opacity:1;" />
    <path
        d="M173.559 72.9624V102.156C173.979 102.308 174.245 101.583 174.419 101.583H191.054C192.394 102.691 192.339 105.137 191.054 106.162H170.404C170.305 106.162 169.392 105.28 169.265 105.01L168.969 74.3933L169.909 73.0435L173.559 72.9624Z"
        fill="currentColor" style="fill:currentColor;fill-opacity:1;" />
    <path
        d="M236.657 72.9624L237.197 75.4673L236.37 76.3965H225.185V105.303C224.256 106.596 222.564 106.121 221.17 106.162V76.3975C219.345 75.8595 209.997 77.4083 209.672 76.0173L209.698 72.9624H236.657Z"
        fill="currentColor" style="fill:currentColor;fill-opacity:1;" />
</svg>