<svg width="295" height="61" viewBox="0 0 295 61" fill="none" xmlns="http://www.w3.org/2000/svg">
    <path
        d="M0 1.18453L3.44501 1.1816L3.448 8.6257C7.885 2.7377 13.415 -0.201295 20.953 0.0107053C47.007 0.744705 46.325 43.6696 16.994 40.6086C12.198 40.1076 5.95799 37.0057 4.58099 32.0957L3.42902 32.3916C3.48602 32.9166 4.01599 33.3716 4.01599 33.5246V59.2827C3.08599 60.5757 1.39504 60.1006 0.0010376 60.1416V1.18356L0 1.18453ZM31.345 8.25655C26.287 3.31155 16.578 2.42165 10.707 6.42965C1.33103 12.8297 1.96404 30.4355 12.488 35.3735C29.965 43.5735 44.182 20.8086 31.345 8.25655Z"
        fill="currentColor" style="fill:currentColor;fill-opacity:1;" />
    <path
        d="M87.6254 0.759634C96.6844 -0.465366 105.013 2.02262 108.918 10.6976C109.824 12.7106 112.355 20.8668 109.768 21.7108L75.7304 22.0887C76.8684 34.8227 91.6414 41.8187 102.053 34.0467C103.55 32.9297 105.42 29.6778 107.266 30.6368C112.08 33.1378 101.44 38.9987 99.1284 39.7137C92.7504 41.6857 85.2085 40.8807 79.7685 36.9247C66.6475 27.3827 70.8794 3.02363 87.6254 0.759634ZM106.693 17.7838C106.201 3.6198 88.1484 -0.713192 79.4394 9.76281C78.1944 11.2598 75.4714 15.6786 75.7184 17.4886C75.9014 18.8276 77.0784 17.7838 77.1514 17.7838H106.693Z"
        fill="currentColor" style="fill:currentColor;fill-opacity:1;" />
    <path
        d="M271.193 0.199721C300 -3.15628 301.988 39.0467 275.612 40.6707C248.408 42.3447 246.403 3.08772 271.193 0.199721ZM271.755 3.62575C251.388 6.52075 252.351 39.6256 277.279 36.6106C280.931 36.1686 285.764 32.9926 287.861 29.9976C296.274 17.9876 286.278 1.56175 271.755 3.62575Z"
        fill="currentColor" style="fill:currentColor;fill-opacity:1;" />
    <path
        d="M168.069 0.611328V26.0835C168.069 26.2815 169.337 29.3104 169.554 29.7534C174.285 39.4574 188.71 39.4185 194.252 30.4585C194.662 29.7955 196.751 25.2655 196.751 24.9385V0.611328H200.766V39.2483C200.766 39.6333 199.805 40.0503 199.323 40.1313C194.823 40.8813 197.653 34.0914 196.464 31.5154C191.478 43.2434 174.508 43.7924 167.496 33.5254C166.627 32.2524 164.055 26.6495 164.055 25.5115V0.611328H168.07H168.069Z"
        fill="currentColor" style="fill:currentColor;fill-opacity:1;" />
    <path
        d="M119.312 1.18419C125.469 0.339194 122.115 3.97716 122.758 8.05016C124.079 8.37816 123.699 7.80519 124.068 7.33019C126.526 4.15619 127.057 2.77333 131.359 1.47033C141.62 -1.63867 154.878 3.69236 154.878 15.7814V39.2504C154.878 40.1024 151.506 40.8623 150.944 39.1683C150.791 34.2313 150.869 29.2854 150.838 24.3444C150.807 19.3354 151.824 15.5883 149.246 10.5243C145.423 3.01528 132.87 2.06114 127.358 8.35314C125.251 10.7581 123.328 16.1012 123.328 19.2152V39.2491C123.328 40.4191 119.313 40.4191 119.313 39.2491L119.312 1.18419Z"
        fill="currentColor" style="fill:currentColor;fill-opacity:1;" />
    <path
        d="M212.145 0.705098L228.578 34.3872L245.023 0.705098L249.52 0.617207L229.872 39.7393C227.048 40.7533 226.506 38.9662 225.341 37.0542C221.057 30.0262 217.566 20.5671 213.889 12.9861C212.004 9.1011 210.036 5.0802 207.654 1.4612C207.046 -0.0507987 211.367 0.701098 212.145 0.705098Z"
        fill="currentColor" style="fill:currentColor;fill-opacity:1;" />
    <path
        d="M48.1836 0.611272L51.6287 0.608342C51.7197 2.21434 51.4926 3.88025 51.6256 5.48725C51.6966 6.34025 51.1736 7.13232 52.4796 6.91132C54.9816 1.13832 62.0027 0.216272 67.6897 0.611272L67.1497 3.79633C62.5937 4.01533 57.3296 4.17632 54.5876 8.43232C54.2316 8.98432 52.1997 13.2114 52.1997 13.4904V39.2482C52.1997 40.4182 48.1847 40.4182 48.1847 39.2482V0.611272H48.1836Z"
        fill="currentColor" style="fill:currentColor;fill-opacity:1;" />
</svg>