<svg width="298" height="48" viewBox="0 0 298 48" fill="none" xmlns="http://www.w3.org/2000/svg">
    <path d="M22.945 0V45.793C15.29 45.053 7.51 47.327 0 45.793V0H22.945Z" fill="currentColor"
        style="fill:currentColor;fill-opacity:1;" />
    <path
        d="M164.628 12.5934H177.248L176.711 4.93321C176.516 4.24721 173.794 4.58816 174.38 2.86216H183.558C183.939 4.65116 181.488 4.36125 180.954 5.12925C180.437 5.87225 180.364 21.6072 180.68 23.1932C181.043 25.0202 182.559 24.3073 183.283 25.1813L182.698 26.3312H174.381C174.037 24.4302 176.737 24.9302 177.176 23.6832C177.654 22.3272 177.57 16.0952 176.388 14.8832H165.489L164.629 15.7423V24.6144L166.646 25.1822C167.932 26.7972 158.317 26.8352 158.33 25.4732L160.613 24.6144V4.58018C160.613 4.45118 158.348 4.35931 158.895 2.86631C160.096 3.04931 167.519 2.25927 167.485 3.72227C162.963 5.17527 165.025 8.78336 164.628 12.5934Z"
        fill="currentColor" style="fill:currentColor;fill-opacity:1;" />
    <path
        d="M76.0034 2.86195C81.9124 4.04895 82.1574 11.1631 77.4384 14.3041C83.5084 15.0031 83.5244 22.256 78.7854 25.1C78.4074 25.327 76.1554 26.3309 76.0034 26.3309H63.0974C62.7554 24.7929 64.6334 24.814 65.1024 24.039C65.5994 23.22 65.6104 8.53612 65.3374 6.61512C65.0664 4.70512 64.4764 4.20113 62.5244 4.00013C62.3564 3.79413 63.2734 2.86195 63.3834 2.86195C66.6994 2.86195 73.1894 2.29695 76.0034 2.86195ZM69.7784 4.6371C68.1234 5.1781 68.8524 11.026 69.0834 12.629C73.4124 15.189 79.7804 10.6452 75.9874 6.31117C75.1174 5.31717 71.0024 4.2371 69.7784 4.6371ZM69.4074 24.0412C74.4994 25.6742 79.8934 24.0461 77.7564 17.7091C76.9274 15.2511 71.7564 14.7119 69.4074 14.8829V24.0412Z"
        fill="currentColor" style="fill:currentColor;fill-opacity:1;" />
    <path
        d="M100.096 2.86163C106.436 3.98763 107.794 12.5418 101.547 14.3338C101.004 15.0708 106.033 23.2037 106.848 23.8777C108.246 25.0337 110.17 23.7007 109.564 26.3277C100.341 28.8077 101.75 16.0617 94.0728 16.0267V24.6129L96.3558 25.4717C96.3698 26.9367 89.0978 26.1427 87.7658 26.3277C87.5278 24.8667 89.0058 24.5468 90.0578 24.6138V4.57965L87.7648 3.99884L87.7628 2.86285C91.4778 3.32185 96.5798 2.23885 100.096 2.86285V2.86163ZM94.0728 14.3096C104.818 15.1656 104.854 3.78267 94.0728 4.57867V14.3096Z"
        fill="currentColor" style="fill:currentColor;fill-opacity:1;" />
    <path
        d="M250.67 26.3306L250.694 24.6477C251.997 24.5537 252.689 24.5997 252.973 23.1897C253.292 21.6017 253.144 5.92779 252.675 5.15479C252.206 4.38179 250.327 4.40079 250.67 2.86279H264.15C264.729 2.86279 267.924 4.22761 268.646 4.67261C274.96 8.56461 276.065 18.4716 270.413 23.4226C269.686 24.0596 265.356 26.3318 264.724 26.3318H250.67V26.3306ZM256.406 5.43774V22.6096C256.406 22.8706 257.027 23.8586 257.416 24.0386C273.144 28.7016 274.942 5.31175 259.536 4.57275C258.353 4.51575 257.145 4.34374 256.406 5.43774Z"
        fill="currentColor" style="fill:currentColor;fill-opacity:1;" />
    <path
        d="M149.578 4.1416C150.566 5.1336 150.638 9.72672 149.427 9.71972C146.735 5.38972 144.566 3.74572 139.135 4.61572C129.212 6.20572 130.093 24.2938 140.817 24.6648C145.485 24.8258 148.421 22.4148 146.753 17.5518C146.183 15.8908 143.527 16.8057 143.981 14.8857H151.432C150.058 17.9697 149.986 20.7497 150.593 24.0737C145.055 27.0917 138.058 28.0326 132.806 24.0266C123.4 16.8536 129.093 3.17371 140.326 2.35571C142.146 2.22271 148.403 2.9636 149.577 4.1416H149.578Z"
        fill="currentColor" style="fill:currentColor;fill-opacity:1;" />
    <path
        d="M295.412 2.86182L295.409 8.58301C293.405 8.86301 293.997 6.622 293.399 5.729C292.335 4.141 286.956 4.65286 285.087 4.57886V13.165C288.291 13.189 290.836 13.875 292.831 10.887C294.142 10.86 293.616 16.0869 293.689 17.1689C291.559 17.7369 291.877 15.571 290.304 15.126C288.607 14.646 286.808 14.9448 285.087 14.8818V24.041C289.562 25.312 293.964 25.0859 296.272 20.6179C297.348 20.5449 297.717 25.7378 296.272 26.3308H278.777C278.526 24.8198 279.998 24.757 280.983 24.533L281.096 4.96191C280.845 3.91691 278.161 4.71604 278.777 2.86304H295.412V2.86182Z"
        fill="currentColor" style="fill:currentColor;fill-opacity:1;" />
    <path
        d="M228.87 8.58275C226.34 8.23375 227.269 5.3476 224.449 4.7036C218.023 3.2366 216.174 8.93673 221.014 11.5627C225.573 14.0367 231.417 13.9127 229.99 21.4397C228.818 27.6207 216.146 28.3317 214.665 24.1977C214.373 23.3827 213.676 19.9518 214.828 19.4678C216.051 18.9538 215.99 22.8388 217.377 23.2068C220.763 26.4328 228.723 24.2527 226.283 18.8987C224.827 15.7057 214.789 16.1256 214.489 9.43358C214.116 1.11858 230.512 -0.828248 228.87 8.58275Z"
        fill="currentColor" style="fill:currentColor;fill-opacity:1;" />
    <path
        d="M210.517 2.86182L210.514 8.58887L208.752 8.23096C207.903 4.47896 204.659 4.30786 201.338 4.57886V23.7549L204.21 24.6169L204.206 26.3308H194.455L194.45 24.615L196.644 24.5269C196.744 24.1249 197.322 23.3899 197.322 23.1829V5.43799C197.322 4.05199 193.46 4.66891 192.399 5.10791C190.586 5.85791 190.403 7.37395 189.004 8.57495C187.908 8.59895 187.569 3.48204 189.004 2.86304H210.515L210.517 2.86182Z"
        fill="currentColor" style="fill:currentColor;fill-opacity:1;" />
    <path
        d="M123.329 2.86182C123.82 4.99682 120.543 4.25486 120.427 4.90186C120.903 7.73186 119.674 23.39 121.02 24.342C121.638 24.779 123.023 24.4388 123.624 25.1838L123.043 26.3308H114.152L114.147 24.615L116.516 24.282C117.151 23.422 117.357 8.38295 117.006 6.59595C116.561 4.33095 114.62 4.95596 113.854 4.01196L114.438 2.86182H123.329Z"
        fill="currentColor" style="fill:currentColor;fill-opacity:1;" />
    <path
        d="M244.36 2.86182C244.741 4.65082 242.29 4.36091 241.756 5.12891C241.239 5.87191 241.172 21.5858 241.489 23.1848C241.822 24.8598 242.854 24.6369 244.364 24.6169L244.36 26.3308H235.469L234.889 25.1848C235.445 24.4038 236.821 24.856 237.357 24.502C238.35 23.847 238.475 6.60386 237.491 4.98486C236.986 4.15386 234.797 4.62882 235.183 2.86182H244.361H244.36Z"
        fill="currentColor" style="fill:currentColor;fill-opacity:1;" />
    <path
        d="M123.327 36.634C125.56 36.975 129.943 35.9168 131.685 37.1628C133.634 38.5568 133.43 41.986 130.804 42.387L133.075 46.0689C130.053 49.0219 129.205 43.7299 126.478 42.9439L125.341 46.3718L123.326 46.937V36.634H123.327Z"
        fill="currentColor" style="fill:currentColor;fill-opacity:1;" />
    <path
        d="M63.0986 37.4926C63.4716 36.2906 69.1147 36.4257 70.2567 36.6457C73.1257 37.1987 73.8687 41.7756 70.5757 42.3876L72.8466 45.5146L71.9786 46.9367C70.3916 47.7137 66.8486 41.8905 65.9686 42.9335C66.1326 44.6135 66.0097 45.9585 64.5237 46.9345L63.0977 46.0786L63.0986 37.4926Z"
        fill="currentColor" style="fill:currentColor;fill-opacity:1;" />
    <path
        d="M138.814 36.6343C143.652 36.0723 151.532 36.6303 146.304 42.7173C146.88 44.3163 148.531 44.8601 147.989 46.9341C144.66 47.8871 144.106 42.9154 141.401 42.9254L140.835 46.3782L138.814 46.9373V36.6343Z"
        fill="currentColor" style="fill:currentColor;fill-opacity:1;" />
    <path
        d="M116.448 36.6372V38.9211L110.706 39.2161C110.324 40.5461 111.938 40.0341 112.71 40.0691C113.953 40.1251 115.211 40.0262 116.448 40.0662V42.9341C116.046 43.3471 111.565 42.1103 110.72 43.7903C112.096 45.5723 114.836 44.0083 116.465 44.9163L116.383 46.8862L108.377 46.6882L108.09 37.1711L116.446 36.6382L116.448 36.6372Z"
        fill="currentColor" style="fill:currentColor;fill-opacity:1;" />
    <path
        d="M78.5859 36.6343L86.6339 36.9031V38.6562C85.2209 39.7053 80.5729 37.6252 80.8829 40.0662L86.5229 40.1543L86.6389 42.6663L81.4509 42.9341V44.6462L87.1929 44.9382C87.6369 48.0882 80.0069 47.3031 78.5859 46.0801V36.6343Z"
        fill="currentColor" style="fill:currentColor;fill-opacity:1;" />
    <path
        d="M189.292 37.2138C191.381 40.3588 184.034 38.787 182.987 38.926C182.545 40.856 185.447 39.832 187.031 40.323C194.995 42.794 185.128 51.2758 180.127 44.9328L181.545 43.6689C183.304 44.6329 185.949 45.4998 187.561 43.7878C185.365 42.0588 183.002 43.755 180.94 41.25C177.376 36.92 188.146 35.4899 189.291 37.2129L189.292 37.2138Z"
        fill="currentColor" style="fill:currentColor;fill-opacity:1;" />
    <path
        d="M159.921 44.7729C159.317 44.4269 156.604 44.5228 155.841 44.7548C154.232 45.2428 154.469 48.7139 152.008 46.0639C153.375 44.0699 155.881 34.2108 159.185 37.2038C159.746 37.7118 164.29 46.2197 162.038 46.9347C160.728 47.2217 160.33 45.0079 159.921 44.7729Z"
        fill="currentColor" style="fill:currentColor;fill-opacity:1;" />
    <path
        d="M92.9258 37.4931C93.4218 35.8901 99.9158 36.9112 101.533 36.6372V38.9211C100.296 38.9721 99.0368 38.865 97.7948 38.924C97.0228 38.96 95.4088 38.4461 95.7908 39.7771L100.589 40.1501C104.582 44.7531 96.4348 42.2431 95.7948 42.9301C96.0408 45.1301 95.5588 47.1842 92.9258 46.9382V37.4931Z"
        fill="currentColor" style="fill:currentColor;fill-opacity:1;" />
    <path
        d="M168.07 46.9382C167.732 44.7162 165.881 36.662 169.499 36.622C170.859 36.607 170.282 36.9832 170.366 38.0402C170.525 40.0462 170.025 42.135 170.615 44.112L176.103 44.6511L176.101 46.9382H168.07Z"
        fill="currentColor" style="fill:currentColor;fill-opacity:1;" />
</svg>