<svg width="192" height="192" viewBox="0 0 192 192" fill="none" xmlns="http://www.w3.org/2000/svg">
  <path fill="currentColor" d="M96 0C149.019 0 192 42.9807 192 96C192 149.019 149.019 192 96 192C42.9807 192 0 149.019 0 96C0 42.9807 42.9807 0 96 0ZM119.563 87.0117C111.585 81.6451 100.425 81.8277 93.2393 88.8867C77.796 104.055 81.512 139.983 105.694 143.368C110.256 144.011 115.483 143.743 119.349 142.34C126.363 140.626 141.39 126.047 145.631 123.723C147.194 122.866 149.989 121.665 152.152 121.74C153.577 121.783 155.344 122.062 156.65 122.673C158.546 123.551 159.735 124.848 159.735 124.848C159.735 124.848 158.417 123.071 157.623 122.518C157.617 122.514 157.611 122.512 157.604 122.512C157.597 122.512 157.591 122.51 157.585 122.506C156.776 121.969 154.798 120.969 151.66 120.884C149.561 120.83 147.386 121.28 145.33 122.201C139.076 125.019 127.317 138.623 119.274 140.658C111.735 142.565 105.116 140.947 99.9434 137.841C94.0638 134.552 90.3256 127.911 88.8584 120.412C88.8526 120.374 88.3446 117.048 88.334 116.898V116.888C87.1989 105.405 91.1293 92.8608 100.543 87.5049C106.862 83.9057 119.124 84.4845 121.395 93.8682C121.518 94.3729 121.608 94.9243 121.682 95.5146C121.721 96.0283 121.767 96.6527 121.841 97.4385C121.851 97.5445 121.895 97.6387 121.96 97.7148C122.036 97.8241 122.162 97.8954 122.304 97.8955C122.312 97.8955 122.319 97.893 122.327 97.8926C122.333 97.8927 122.338 97.8945 122.344 97.8945C122.623 97.8943 122.849 97.6679 122.85 97.3887C122.853 92.8512 122.907 88.0728 123.003 85.7969C123.016 85.484 122.767 85.2228 122.454 85.2227C122.174 85.2227 121.941 85.4352 121.904 85.7129C121.704 87.2185 121.324 87.9836 120.773 88.0049C120.233 87.5434 119.738 87.1284 119.563 87.0117ZM114.742 110.61C115.129 109.894 114.82 109.542 114.245 110.117C113.003 111.296 112.232 112.206 111.075 113.127C105.129 117.855 98.4691 118.045 91.6865 117.146C90.4384 116.981 89.3592 118.047 89.5498 119.291C89.6757 120.112 90.3322 120.754 91.1592 120.825C99.1575 121.517 107.04 119.656 112.971 113.127C113.78 112.237 114.167 111.676 114.742 110.61ZM54.9062 48C54.557 48.0002 54.2744 48.2835 54.2744 48.6328C54.2745 48.9599 54.5233 49.2302 54.8496 49.2539C56.0185 49.339 57.9255 49.5081 58.0332 50.2715V111.051C58.0116 111.308 56.2241 111.522 55.8164 111.564C52.3563 111.932 49.1246 112.644 46.3564 114.419C45.5563 114.932 46.1245 115.845 47.0127 115.507C50.0328 114.211 55.2274 113.022 60.9463 114.051C68.0486 115.332 75.9375 117.434 80.2881 118.649C82.0524 119.142 83.3673 117.971 83.2305 116.145C83.2195 115.999 83.2091 115.854 83.2002 115.711C83.2 115.716 83.1957 115.72 83.1904 115.719C75.4894 114.048 63.0449 111.469 63.0449 111.469C62.8736 111.437 62.7881 111.297 62.7773 111.083C62.7774 110.979 62.7879 51.0057 62.9697 50.293C63.1263 49.7128 64.6764 49.4328 65.9043 49.2773C66.2272 49.2365 66.4717 48.9641 66.4717 48.6387C66.4717 48.2859 66.1857 48 65.833 48H54.9062Z" />
</svg>
