<svg aria-label="Brand" xmlns="http://www.w3.org/2000/svg" xmlns:xlink="http://www.w3.org/1999/xlink"
    viewBox="0 0 235 194">
    <defs>
        <title>Legacy Concierge</title>
        <desc>Brand Logo Icon</desc>
        <filter id="smooth">
            <feGaussianBlur stdDeviation="0.2" />
        </filter>
    </defs>
    <path filter="url(#smooth)" shape-rendering="geometricPrecision" fill="currentColor" stroke="currentColor"
        stroke-width=".4" stroke-linecap="round" stroke-linejoin="round"
        d="M230.64 150.61c-1.62-1.09-5.63-3.11-12-3.29a29 29 0 0 0-12.8 2.67c-12.65 5.7-36.41 33.2-52.68 37.3a50.4 50.4 0 0 1-39.1-5.7c-11.88-6.63-19.43-20.06-22.4-35.23 0 0-1.04-6.8-1.05-7.1v-.03c-2.3-23.22 5.66-48.58 24.68-59.4 12.79-7.27 37.58-6.1 42.17 12.87.56 2.3.79 5.07 1.06 8.13h1.64l-.3-16.81s-5.19-4.57-6.1-5.18c-16.13-10.86-38.7-10.5-53.24 3.79-31.21 30.67-23.7 103.28 25.18 110.13 9.21 1.3 19.8.77 27.6-2.08 14.18-3.47 44.57-32.93 53.13-37.63 3.17-1.74 8.8-4.14 13.18-4 2.88.1 6.45.65 9.1 1.88 3.81 1.77 6.22 4.4 6.22 4.4s-2.68-3.63-4.3-4.72 M156.14 83.82c.03.93.04 2-.16 3.01.17.4 1.39 4.43 1.52 4.84.56 1.78.46 3.73 1.02 9.17h1.96c0-10.32.12-21.54.37-25.61h-2.16q-.57 5.63-2.44 5.63l-.35-.04q.16 1.5.24 3M143 125.55c-2.5 2.4-4.08 4.23-6.4 6.08-13.52 10.73-28.84 9.88-44.3 7.36l1.2 7.9c17.13 2.11 34.24-1.29 46.92-15.25 2.17-2.38 2.84-3.6 4.89-7.56-.26-.24-2 1.17-2.31 1.47m-62.72 11.34c-15.57-3.39-40.75-8.6-40.75-8.6q-.51-.13-.54-.78S39 6.01 39.38 4.64s4.55-1.9 7.08-2.19V0H21.79v2.45c1.91.18 7.35.3 7.6 2.14v122.87c-.04.52-3.67.95-4.48 1.04-9.58 1.01-18.28 3.34-24.91 10.68l7.11-2.7c6.1-2.63 16.62-5.04 28.17-2.95 21.13 3.82 45.7 11.22 45.87 11.22a91 91 0 0 1-.87-7.86" />
</svg>