<svg aria-label="Brand" fill="none" viewBox="0 0 222 52" xmlns="http://www.w3.org/2000/svg"
    xmlns:xlink="http://www.w3.org/1999/xlink">
    <defs>
        <title>Legacy Concierge</title>
        <desc>Brand Logo Full (stacked)</desc>
        <filter id="smooth">
            <feGaussianBlur stdDeviation="0.2" />
        </filter>
    </defs>
    <g filter="url(#smooth)" shape-rendering="geometricPrecision" fill="currentColor" stroke="currentColor"
        stroke-width=".4" stroke-linecap="round" stroke-linejoin="round">
        <path
            d="M8 1.07q-1.13.06-1.65.25a1.1 1.1 0 0 0-.71.73q-.19.53-.2 1.72v15.6q0 1.18.2 1.72.19.54.7.7.52.18 1.66.18h2.3q1.95 0 2.96-.56a3.3 3.3 0 0 0 1.5-1.77q.46-1.22.69-3.56h.72q-.09.98-.09 2.58 0 1.79.23 4.02-2.14-.09-7.2-.09-6.03 0-9.11.1v-.63q1.13-.06 1.65-.26.53-.18.71-.72.19-.54.2-1.73V3.77q0-1.2-.2-1.72-.19-.53-.7-.73A6 6 0 0 0 0 1.07V.44q1.32.1 4.03.1 2.5 0 4-.1v.63zM34.78 22.7q-2.13-.1-7.2-.1-6.03 0-9.1.1v-.63q1.13-.05 1.65-.26.51-.18.7-.72.2-.54.2-1.73V3.77q0-1.2-.2-1.72-.19-.53-.7-.73a6 6 0 0 0-1.66-.25V.44a337 337 0 0 0 15.68 0 34 34 0 0 0-.22 3.72q0 1.22.1 1.94h-.73a15 15 0 0 0-.57-3.03 2.5 2.5 0 0 0-1.16-1.45 5 5 0 0 0-2.48-.45h-2.61q-1.13 0-1.66.17-.52.18-.7.7-.2.54-.2 1.73v7.42H26q1.1 0 1.7-.51.59-.52.8-1.24.2-.7.33-1.77l.09-.63h.72q-.09 1.32-.09 2.96v1.51q0 1.6.2 4.46h-.73l-.2-1.52q-.15-1.3-.86-1.97a2.8 2.8 0 0 0-1.97-.65h-2.08v7.54q0 1.2.2 1.73.19.54.7.7.52.18 1.66.18h2.29q1.95 0 2.96-.52 1.02-.51 1.5-1.66.45-1.15.7-3.38h.72q-.1.84-.1 2.26 0 1.79.23 4.02zm21.36-8.83a.4.4 0 0 1-.17-.12h-.05q-.7-.14-1.41-.19c-.5-.04-1-.05-1.49-.12a.3.3 0 0 1-.23-.2q-.98 0-1.78-.03l-.03.03q-.28.13-.58.12l-.46.02-.33.05v.34q1.41.06 2.05.29t.88.81q.25.6.25 1.92v3.02q0 .62-.17.99-.17.36-.74.73-1.37.98-3.26.98-3.87 0-5.68-2.62t-1.8-8.29q0-3.33.85-5.83a8.6 8.6 0 0 1 2.42-3.85A5.4 5.4 0 0 1 48.05.57q1.6 0 3.07.65a6 6 0 0 1 2.37 1.8q.66.82.98 1.9.3 1.08.6 2.75h.72q0-5.19.12-7.24h-.73Q55 2.36 54.4 2.35q-.23 0-.63-.31A15 15 0 0 0 51.16.5 8 8 0 0 0 48.1 0a9.5 9.5 0 0 0-8.82 5.64 14.5 14.5 0 0 0-1.3 6.3c0 2.4.4 4.34 1.23 6.01q1.23 2.52 3.53 3.85 2.32 1.34 5.55 1.34a7.7 7.7 0 0 0 4.9-1.7q.48-.34.66-.44t.38-.1q.38 0 .6.6.2.57.24 1.2h.63v-6.22q0-1.2.1-1.73.12-.53.45-.72l.17-.09-.3-.06z" />
        <path
            d="M44.64 15.54c2.43-1.66 5.39-2.7 8.37-2.35 7.29.9 14.06 4.47 21.4 1.66 1-.38 2.08-.73 2.67-1.68.18-.3.26-.69.1-1.03.65 1.51-1.51 2.58-2.63 3.05a19 19 0 0 1-7.61 1.35c-4.77-.21-9.33-2.06-13.98-2.82-2.9-.43-5.78.42-8.31 1.82z" />
        <path
            d="M76.21 20.05 68.54.27h-.5l-7.39 19.05q-.9 2.36-2.48 2.74v.62q.94-.09 2.36-.09 1.82 0 3.61.1v-.63a4 4 0 0 1-2.06-.48q-.67-.43-.67-1.41 0-.88.62-2.57l5.13-13.36 3.52 9.4.25.63 1.92 5.15q.37.94.37 1.48 0 .63-.51.86-.52.25-1.72.3v.63q1.32-.09 4.03-.09 2.1 0 3.36.1v-.63q-1.4-.07-2.17-2.01zM92.75.53q1.31.54 2.57 1.52.35.28.6.28.64 0 .81-1.89h.73q-.12 2.05-.12 7.24h-.73A26 26 0 0 0 96 4.74q-.29-.9-.94-1.71a6 6 0 0 0-2.4-1.84A8 8 0 0 0 89.5.58q-2.04 0-3.57 1.35a9 9 0 0 0-2.37 3.85 18 18 0 0 0-.85 5.86c0 2.24.3 4.25.9 5.89a8 8 0 0 0 2.54 3.72 5.8 5.8 0 0 0 3.66 1.27q1.58 0 3.05-.6t2.33-1.79q.64-.88.9-1.89.3-1 .54-3.07h.73q0 5.4.12 7.54h-.73a6 6 0 0 0-.26-1.43q-.16-.42-.48-.42-.26 0-.66.25-1.42 1-2.7 1.52-1.3.52-3.11.52-2.98 0-5.24-1.36a9 9 0 0 1-3.49-3.91 14 14 0 0 1-1.24-6.12c0-2.37.42-4.34 1.27-6.13a10 10 0 0 1 3.55-4.15A9.3 9.3 0 0 1 89.55.01a9 9 0 0 1 3.2.53M118 .43v.63q-.63.15-1.24.8-.6.65-1.29 2l-4.93 9.77v5.72q0 1.2.19 1.73t.7.72 1.66.26v.62q-1.45-.09-4-.09-2.7 0-4.02.1v-.63q1.13-.05 1.65-.26.53-.18.71-.72.19-.53.2-1.73v-4.7l-6.39-11.8a5 5 0 0 0-.98-1.4 1.3 1.3 0 0 0-.84-.36V.43q1.22.1 2.76.1 3.05 0 4.4-.1v.66q-2.2 0-2.2 1.19 0 .48.31 1.1l5.22 10.03 4.03-7.98q.84-1.66.84-2.7 0-.89-.7-1.27a5 5 0 0 0-2.07-.41V.42q1.8.1 3.61.1 1.41 0 2.36-.1zM60.77 34.67h-.7q.19-1.23.2-2.17 0-1.52-.51-2.48a4 4 0 0 0-1.69-1.8 5 5 0 0 0-2.43-.65q-2.6 0-5.04 2.45a19 19 0 0 0-3.95 6.17 19 19 0 0 0-1.51 7.22q0 3 1.19 4.59a3.9 3.9 0 0 0 3.3 1.57q1.38 0 2.92-.64a8.4 8.4 0 0 0 4.09-3.7q.6-1.1 1.41-3.07h.7q-1.48 5.44-1.86 7.54h-.7q.1-.66.1-1.07 0-.81-.38-.81-.22 0-.65.28a16 16 0 0 1-2.86 1.55q-1.22.5-3.07.49-3.5 0-5.41-1.89T42 42.75t1.8-7.3a17 17 0 0 1 4.97-6.06Q51.93 27 55.7 27q1.81 0 2.79.51.95.53 1.9 1.53.21.28.47.28.28 0 .58-.45t.68-1.44h.66q-1.05 2.7-2.01 7.24m4.05.73a16 16 0 0 1 4.68-6.03q3-2.37 6.77-2.37 3.52 0 5.46 1.98 1.95 1.98 1.95 5.6c0 2.4-.56 4.76-1.68 7.18a16 16 0 0 1-4.7 6q-3.02 2.38-6.77 2.38-3.49 0-5.43-1.98-1.95-1.98-1.95-5.56 0-3.56 1.66-7.2zm6.58-5.57a17 17 0 0 0-3.57 5.86 21 21 0 0 0-1.35 7.3q0 3.05 1.19 4.82a3.7 3.7 0 0 0 3.15 1.75q2.36 0 4.57-2.26a17 17 0 0 0 3.57-5.86 21 21 0 0 0 1.35-7.3q0-3.05-1.19-4.82a3.7 3.7 0 0 0-3.15-1.75q-2.36 0-4.57 2.26m37.08-3.18a2.5 2.5 0 0 1 2.04.95q0-.73-.44-1.17-.45-.44-1.45-.44-2.01.01-3.39 2-1.35 1.96-2.64 6.38-1.29 4.4-2.64 10.45L94 27.43q-1.1.1-2.54.1-1.79 0-2.8-.1l-.16.63q1.42.06 1.92.3t.5 1q0 .49-.19 1.4-1.48 7.56-2.73 12.32-1.26 4.8-2.42 6.63-1.01 1.6-2.62 1.64h-.09c-1.1.03-1.38-.21-2.02-.77Q80.98 52 82.72 52q1.14 0 1.9-.53.77-.53 1.46-1.44 1.26-1.68 2.63-7.1 1.35-5.45 2.9-13.34l7.17 20.24h.7q1.9-9.05 3.42-14.28 1.51-5.25 2.9-7.3 1.05-1.6 2.57-1.61h.11m18.89 8.03h-.7q.2-1.23.2-2.17-.01-1.52-.5-2.48a4 4 0 0 0-1.7-1.8 5 5 0 0 0-2.42-.65q-2.6 0-5.05 2.45a19 19 0 0 0-3.95 6.17 19 19 0 0 0-1.5 7.22q0 3 1.18 4.59a3.9 3.9 0 0 0 3.3 1.57q1.38 0 2.93-.64a8.4 8.4 0 0 0 4.09-3.7q.59-1.1 1.4-3.07h.7q-1.48 5.44-1.85 7.54h-.7q.1-.66.1-1.07 0-.81-.38-.81-.23 0-.66.28a16 16 0 0 1-2.85 1.55q-1.23.5-3.08.49-3.5 0-5.4-1.89-1.94-1.89-1.93-5.5 0-3.61 1.81-7.3a17 17 0 0 1 4.96-6.06q3.16-2.4 6.94-2.39 1.8 0 2.78.51.96.53 1.9 1.53.21.28.47.28.3 0 .59-.45.3-.45.67-1.44h.66q-1.05 2.7-2 7.24M133 47.9q0 .67.46.88.45.23 1.68.29l-.12.62q-1.44-.09-4-.09c-1.7 0-3.08.03-4 .1l.17-.63a6 6 0 0 0 1.66-.26q.54-.19.87-.73.33-.55.65-1.72l4.15-15.59q.25-1.05.25-1.51 0-.7-.46-.9-.45-.22-1.65-.3l.16-.62q1.3.1 4 .1 2.5 0 4.02-.1l-.16.63q-1.16.06-1.71.25-.55.18-.88.73a7 7 0 0 0-.65 1.72l-4.15 15.6q-.28 1.18-.28 1.54m25.95-20.48a45 45 0 0 0-1.19 3.72q-.34 1.13-.44 1.94h-.73a19 19 0 0 0 .28-2.5q0-1.35-.7-1.9-.69-.53-2.47-.53h-2.3q-1.12 0-1.68.17-.54.18-.9.7-.35.54-.65 1.73l-1.98 7.42h2.08q1.1 0 1.82-.51a4 4 0 0 0 1.14-1.22q.4-.7.81-1.75.1-.32.25-.66h.73a74 74 0 0 0-1.1 3.75l-.2.72q-.43 1.67-1 4.46H150l.1-.62.09-.7q.06-.46.06-.82a2 2 0 0 0-.49-1.47q-.49-.53-1.68-.53H146l-2.01 7.54q-.29.97-.28 1.55 0 .66.47.86.47.21 1.67.2h2.29q1.96 0 3.1-.5a4.5 4.5 0 0 0 1.94-1.67q.77-1.15 1.59-3.38h.72q-.34.9-.7 2.26a33 33 0 0 0-.84 4.02q-2.13-.09-7.2-.09-6.03 0-9.08.1l.17-.63a7 7 0 0 0 1.68-.26q.55-.18.9-.72.35-.53.65-1.73l4.18-15.59q.29-1 .28-1.54 0-.67-.45-.88-.46-.21-1.66-.28l.17-.63a337 337 0 0 0 15.36 0zm17.61 18.46h.73l-.12.41a7 7 0 0 1-1.44 2.9 3 3 0 0 1-2.3.94q-1.47 0-2.2-.88t-.63-2.14l.25-3.52q.03-.38.03-1.01 0-1.32-.47-2.05-.49-.73-1.72-1.05-1.25-.33-3.6-.36l-1.92 7.23a6 6 0 0 0-.28 1.55q0 .63.45.87.46.27 1.69.29l-.12.62a65 65 0 0 0-3.9-.09q-2.76 0-4.08.1l.12-.63a7 7 0 0 0 1.7-.26q.56-.18.89-.72.33-.53.65-1.73l4.14-15.59q.29-1.07.28-1.47 0-.66-.47-.93a4 4 0 0 0-1.66-.3l.16-.63q1.26.1 3.86.1 1.51 0 2.26-.04l2.33-.03q3.09 0 4.68 1.18a3.8 3.8 0 0 1 1.58 3.25q0 2.58-2.23 4.46a12 12 0 0 1-5.97 2.52q.4.03 1.1.16 1.85.35 2.67 1.1.81.74.82 2.42 0 .4-.03.62l-.26 3.21a5 5 0 0 0-.03.66q0 1.92 1.01 1.92.54 0 .98-.65.45-.65.91-2l.16-.44zM165.3 38.5h.94q4.23 0 6.14-1.85a6.6 6.6 0 0 0 1.9-4.94q0-1.86-.94-2.75-.93-.9-3.05-.9-.94 0-1.47.23-.52.24-.87.8-.33.56-.61 1.66l-2.05 7.73zm25.44 10.72q.93-.3 1.61-.7.64-.37.94-.85.31-.47.5-1.13l.73-2.76q.29-1.05.28-1.63 0-.8-.56-1.05a6 6 0 0 0-2.08-.34l.16-.62a85 85 0 0 0 7.7 0l-.16.62q-.75.05-1.12.26a1.5 1.5 0 0 0-.63.7q-.27.52-.58 1.75l-1.67 6.22h-.62q.09-.37.09-.81 0-.98-.48-.98-.19 0-.42.09t-.77.44q-1.3.82-2.61 1.26t-2.74.45q-3.83 0-5.88-1.87t-2.03-5.33q0-3.64 1.77-7.35a17 17 0 0 1 4.93-6.15 11.3 11.3 0 0 1 7.06-2.43q1.89 0 3 .51a8 8 0 0 1 2.15 1.53q.3.28.54.28.31 0 .61-.44.3-.45.65-1.45h.7q-1.05 2.7-2.01 7.24h-.7q.16-1.35.16-2.36 0-1.45-.44-2.3a4.5 4.5 0 0 0-1.95-1.8 6 6 0 0 0-2.9-.64q-3.23 0-5.66 2.73a19 19 0 0 0-3.72 6.6 23 23 0 0 0-1.27 7.07q0 2.83 1.33 4.18 1.34 1.35 4.1 1.35 1.04 0 1.98-.28zm30.44-21.79a44 44 0 0 0-1.2 3.72q-.32 1.13-.44 1.94h-.72q.28-1.81.28-2.5 0-1.35-.7-1.9-.7-.53-2.48-.53h-2.29q-1.12 0-1.68.17t-.9.7q-.35.54-.66 1.73l-1.97 7.42h2.07q1.1 0 1.83-.51a4 4 0 0 0 1.13-1.22q.41-.7.82-1.75.1-.32.25-.66h.73a74 74 0 0 0-1.1 3.75l-.2.72q-.43 1.67-1 4.46h-.73l.09-.62.09-.7q.06-.46.06-.82 0-.94-.48-1.47-.5-.53-1.69-.53h-2.08l-2 7.54a6 6 0 0 0-.29 1.55q0 .66.48.86.46.21 1.66.2h2.3q1.95 0 3.1-.5a4.5 4.5 0 0 0 1.94-1.67q.77-1.15 1.58-3.38h.73q-.35.9-.7 2.26a33 33 0 0 0-.85 4.02q-2.13-.09-7.19-.09-6.04 0-9.08.1l.16-.63a7 7 0 0 0 1.69-.26q.54-.18.9-.72.35-.53.65-1.73l4.18-15.59q.28-1 .28-1.54 0-.67-.46-.88-.45-.21-1.65-.28l.16-.63a337 337 0 0 0 15.37 0z" />
    </g>
</svg>