<svg xmlns="http://www.w3.org/2000/svg" width="24" height="24" fill="none" viewBox="0 0 24 24">
    <path fill="currentColor" fill-rule="evenodd"
        d="M16.651 2h-9.3C3.891 2 1.591 4.38 1.591 7.91v8.17c0 3.54 2.3 5.92 5.76 5.92h9.3c3.46 0 5.76-2.38 5.76-5.92V7.91c0-3.53-2.3-5.91-5.76-5.91Zm-4.45 15.69c0 .49-.39.88-.88.88a.87.87 0 0 1-.87-.88V9.16l-1.3 1.29a.869.869 0 0 1-1.23 0 .869.869 0 0 1 0-1.23l2.79-2.78c.17-.17.39-.26.61-.26.23 0 .45.09.62.26l2.78 2.78c.34.34.34.89 0 1.23a.869.869 0 0 1-1.23 0l-1.29-1.29v8.53Z"
        clip-rule="evenodd" />
</svg>