<svg xmlns="http://www.w3.org/2000/svg" width="24" height="24" fill="none" viewBox="0 0 24 24">
    <path fill="currentColor" fill-rule="evenodd"
        d="M16.651 2h-9.3C3.891 2 1.591 4.38 1.591 7.91v8.17c0 3.54 2.3 5.92 5.76 5.92h9.3c3.46 0 5.76-2.38 5.76-5.92V7.91c0-3.53-2.3-5.91-5.76-5.91Zm-4.45 15.56c.17.17.39.25.61.25.23 0 .45-.08.62-.25l2.78-2.78c.34-.34.34-.9 0-1.24a.869.869 0 0 0-1.23 0l-1.29 1.3V7.18c0-.49-.39-.88-.88-.88a.87.87 0 0 0-.87.88v7.66l-1.3-1.3a.869.869 0 0 0-1.23 0c-.34.34-.34.9 0 1.24l2.79 2.78Z"
        clip-rule="evenodd" />
</svg>