<svg xmlns="http://www.w3.org/2000/svg" width="24" height="24" fill="none" viewBox="0 0 24 24">
    <path fill="currentColor" fill-rule="evenodd"
        d="M7.245 2h9.51c3.45 0 5.74 2.38 5.74 5.91v8.17c0 3.54-2.29 5.92-5.74 5.92h-9.51c-3.45 0-5.74-2.38-5.74-5.92V7.91c0-3.53 2.29-5.91 5.74-5.91Zm2.45 13.52v-7.03c0-.48.4-.87.88-.87.48 0 .87.39.87.87v4.1l3.03-3.03c.34-.34.9-.34 1.24 0 .34.34.34.89 0 1.23l-4.5 4.5c-.09.08-.18.15-.29.19-.1.05-.22.08-.35.08-.23 0-.45-.09-.62-.25a.83.83 0 0 1-.26-.64v-.15Z"
        clip-rule="evenodd" />
</svg>