<svg xmlns="http://www.w3.org/2000/svg" width="24" height="24" fill="none" viewBox="0 0 24 24">
    <path fill="currentColor" fill-rule="evenodd"
        d="M7.77 2h8.47c3.46 0 5.76 2.38 5.76 5.91v8.17c0 3.54-2.3 5.92-5.76 5.92H7.77c-3.47 0-5.77-2.38-5.77-5.92V7.91C2 4.38 4.3 2 7.77 2Zm7.07 9.26c.24-.54.42-1.14.42-1.77 0-2.32-1.9-4.21-4.23-4.21-2.33 0-4.24 1.89-4.24 4.21 0 2.33 1.91 4.23 4.24 4.23.68 0 1.32-.17 1.89-.46l2.15 2.15c.17.17.39.25.61.25.23 0 .45-.08.62-.25.34-.34.34-.89 0-1.23l-2.1-2.1c.25-.25.46-.52.64-.82Zm-6.3-1.77a2.5 2.5 0 0 1 2.49-2.49c1.37 0 2.48 1.12 2.48 2.49s-1.11 2.48-2.48 2.48a2.49 2.49 0 0 1-2.49-2.48Z"
        clip-rule="evenodd" />
</svg>