<svg xmlns="http://www.w3.org/2000/svg" width="24" height="24" fill="none" viewBox="0 0 24 24">
    <path fill="currentColor" fill-rule="evenodd"
        d="M16.335 2H7.666C4.277 2 2 4.378 2 7.916v8.168C2 19.622 4.276 22 7.666 22h8.669C19.724 22 22 19.622 22 16.084V7.916C22 4.378 19.734 2 16.335 2Zm-.087 8.21h-2.361v2.37c0 .48-.388.87-.878.87a.88.88 0 0 1-.878-.87v-2.37H9.752a.87.87 0 0 1-.869-.88c0-.48.388-.87.869-.87h2.379v-2.35c0-.49.388-.88.878-.88s.878.39.878.88v2.35h2.361c.49 0 .878.39.878.87 0 .49-.388.88-.878.88Z"
        clip-rule="evenodd" />
</svg>