<svg xmlns="http://www.w3.org/2000/svg" width="24" height="24" fill="none" viewBox="0 0 24 24">
    <path fill="currentColor" fill-rule="evenodd"
        d="M16.24 2H7.76C4.29 2 2 4.38 2 7.92v8.17c0 3.53 2.29 5.91 5.76 5.91h8.48c3.47 0 5.76-2.38 5.76-5.91V7.92C22 4.38 19.71 2 16.24 2Zm-.59 12.82c.17.17.39.26.62.26.22 0 .45-.09.62-.26.34-.35.34-.9 0-1.24l-1.3-1.3 1.3-1.3c.34-.34.34-.89 0-1.23a.88.88 0 0 0-1.24 0l-1.3 1.29-1.3-1.29a.88.88 0 0 0-1.24 0 .88.88 0 0 0 0 1.23l1.3 1.3-1.3 1.3c-.34.34-.34.89 0 1.24.17.17.4.26.62.26.23 0 .45-.09.62-.26l1.3-1.3 1.3 1.3Zm-8.5-5.3c.42 0 .78-.32.83-.75v-.82c0-.13.1-.23.23-.23h.82c.48 0 .87-.39.87-.88 0-.48-.39-.87-.87-.87h-.82a2 2 0 0 0-1.99 1.98v.82c.05.43.41.75.83.75h.1Zm3.69 8.55c0-.49.39-.88.88-.88h.82c.13 0 .23-.1.23-.23v-.82c0-.43.32-.78.75-.83h.08c.43 0 .79.32.83.75v.9a1.99 1.99 0 0 1-1.99 1.98h-.72c-.49 0-.88-.39-.88-.87Zm-2.61-.88h-.82a.234.234 0 0 1-.23-.23v-.82c0-.43-.32-.78-.75-.83h-.08c-.43 0-.79.32-.83.75v.9a2 2 0 0 0 1.99 1.98h.82c.48 0 .87-.39.87-.88 0-.48-.39-.87-.87-.87h-.1.1Zm8.85-8.47h-.82c-.48 0-.87.39-.87.88 0 .48.39.87.87.87h.82c.13 0 .23.1.23.23v.82c0 .43.32.78.75.83h.08c.43 0 .79-.32.83-.75v-.9a2 2 0 0 0-1.99-1.98h.1Z"
        clip-rule="evenodd" />
</svg>