<svg xmlns="http://www.w3.org/2000/svg" width="24" height="24" fill="none" viewBox="0 0 24 24">
    <path fill="currentColor"
        d="m21.121 10.043-6.86-6.04a1.578 1.578 0 0 0-1.726-.183c-.555.278-.912.85-.912 1.468v2.5c-4.088.364-7.123 1.758-9.038 4.156-2.299 2.88-2.308 6.27-2.298 7.424a1.428 1.428 0 0 0 1.43 1.413c.644 0 1.215-.44 1.386-1.062 1.042-3.783 3.583-5.017 8.52-5.265v2.749c0 .618.356 1.19.912 1.468a1.58 1.58 0 0 0 1.727-.183l6.86-6.04c.43-.38.68-.928.68-1.502 0-.575-.25-1.124-.68-1.503Z" />
</svg>