<svg xmlns="http://www.w3.org/2000/svg" width="24" height="24" fill="none" viewBox="0 0 24 24">
    <path fill="currentColor" fill-rule="evenodd"
        d="M20.453 11.04c.41.31.84.67 1.03 1.17.16.42.16.88 0 1.3-.19.5-.63.86-1.03 1.17-.68.52-.64.99-.53 1.81.07.5.15 1.08-.05 1.58-.19.48-.6.82-.99 1.12-.63.48-.92.73-.98 1.41-.04.44-.07 1.02-.34 1.44-.27.43-.76.64-1.2.83-.66.28-1.04.44-1.38.97-.22.35-.47.75-.89.96-.28.14-.6.19-.99.13-.49-.08-1.01-.35-1.62-.68-.6-.32-1.11-.32-1.71 0-.61.33-1.13.6-1.62.68-.4.06-.71.01-.99-.13-.42-.21-.67-.61-.89-.96-.34-.53-.72-.69-1.38-.97-.44-.19-.93-.4-1.2-.83-.27-.42-.3-1-.34-1.44-.06-.68-.35-.93-.98-1.41-.39-.3-.8-.64-.99-1.12-.2-.5-.12-1.08-.05-1.58.11-.82.15-1.29-.53-1.81-.4-.31-.84-.67-1.03-1.17-.16-.42-.16-.88 0-1.3.19-.5.63-.86 1.03-1.17.68-.52.64-.99.53-1.81-.07-.5-.15-1.08.05-1.58.19-.48.6-.82.99-1.12.63-.48.92-.73.98-1.41.04-.44.07-1.02.34-1.44.27-.43.76-.64 1.2-.83.66-.28 1.04-.44 1.38-.97.22-.35.47-.75.89-.96.28-.14.6-.19.99-.13.49.08 1.01.35 1.62.68.6.32 1.11.32 1.71 0 .61-.33 1.13-.6 1.62-.68.4-.06.71-.01.99.13.42.21.67.61.89.96.34.53.72.69 1.38.97.44.19.93.4 1.2.83.27.42.3 1 .34 1.44.06.68.35.93.98 1.41.39.3.8.64.99 1.12.2.5.12 1.08.05 1.58-.11.82-.15 1.29.53 1.81Zm-4.62.75c0 .23-.09.45-.25.62l-4.15 4.18c-.18.18-.41.27-.64.27-.24 0-.47-.09-.65-.27l-2.27-2.3c-.34-.35-.34-.9 0-1.24.35-.34.91-.34 1.26 0l1.64 1.66 3.52-3.54c.35-.35.91-.35 1.26 0 .19.16.28.39.28.62Z"
        clip-rule="evenodd" />
</svg>