<svg xmlns="http://www.w3.org/2000/svg" width="24" height="24" fill="none" viewBox="0 0 24 24">
    <path fill="currentColor"
        d="M17.918 1.123a1.236 1.236 0 0 0-2.022.548l-.715 2.14-2.133-.697a1.235 1.235 0 0 0-1.513 1.765l1.125 2.087-2.095 1.138a1.23 1.23 0 0 0-.416 1.713c.27.448.754.694 1.244.694.174 0 .35-.036.518-.112l2.14-.98.981 2.139a1.232 1.232 0 0 0 1.129.734c.467 0 .907-.266 1.114-.71l.97-2.141 2.151.992c.515.238 1.123.116 1.503-.3a1.232 1.232 0 0 0 .1-1.512l-1.126-2.087 2.096-1.139a1.233 1.233 0 0 0-.826-2.294l-2.14.979-.982-2.139a1.236 1.236 0 0 0-1.103-.818Zm-2.28 11.785a.878.878 0 0 0-.798.512l-1.24 2.729-2.742-1.266a.878.878 0 1 0-.733 1.596l2.626 1.212-1.383 3.042c-.22.484.225.935.753.831 1.13-.22 1.987-.426 2.875-.635.965-.228 1.958-.461 3.288-.728a.878.878 0 0 0-.342-1.722c-1.265.254-2.223.48-3.151.7.165-.373.325-.79.492-1.228.098-.255.197-.518.304-.789l2.743 1.266a.878.878 0 0 0 .733-1.596l-2.626-1.211.636-1.4a.878.878 0 0 0-.798-1.243l-.637.93ZM9.063 4.683a.878.878 0 0 0-.829-.588.878.878 0 0 0-.829.588l-.694 2.024-2.046-.668a.878.878 0 0 0-1.076 1.256l.84 1.56-1.569.852a.878.878 0 0 0 .585 1.634l2.046-.937.746 1.626a.877.877 0 0 0 1.6-.016l.72-1.589 1.613.745a.878.878 0 0 0 .742-1.59l-.846-1.568 1.576-.857a.878.878 0 0 0-.615-1.62l-2.044.934-.72-1.786ZM3.5 14.878a.878.878 0 0 0-.829-.588.878.878 0 0 0-.829.588l-.524 1.528-1.182-.386a.878.878 0 0 0-1.076 1.256l.605 1.124-.914.497a.878.878 0 0 0 .585 1.634l1.182-.541.527 1.147a.877.877 0 0 0 1.6-.016l.518-1.144 1.175.543a.878.878 0 0 0 .742-1.591l-.605-1.124.914-.497a.878.878 0 0 0-.616-1.62l-1.18.54-.493-1.35Z" />
</svg>