<svg xmlns="http://www.w3.org/2000/svg" width="24" height="24" fill="none" viewBox="0 0 24 24">
    <path fill="currentColor" fill-rule="evenodd"
        d="M15.161 12.053c0-1.746-1.406-3.162-3.16-3.162-1.755 0-3.162 1.416-3.162 3.162 0 1.744 1.407 3.161 3.161 3.161 1.755 0 3.161-1.417 3.161-3.161ZM12 6.87c2.854 0 5.514 1.574 6.902 4.112.1.19.148.398.148.608a1.24 1.24 0 0 1-.148.619c-1.388 2.527-4.048 4.1-6.902 4.1-2.855 0-5.514-1.573-6.903-4.1a1.24 1.24 0 0 1-.147-.62c0-.209.048-.417.147-.607C6.486 8.443 9.145 6.869 12 6.869Z"
        clip-rule="evenodd" />
</svg>