<svg xmlns="http://www.w3.org/2000/svg" width="24" height="24" fill="none" viewBox="0 0 24 24">
    <path fill="currentColor" fill-rule="evenodd"
        d="M9.8 15.382a.78.78 0 0 1-1.1 0 .773.773 0 0 1 0-1.1l5.5-5.5c.3-.3.79-.3 1.1 0 .3.3.3.79 0 1.1l-5.5 5.5Zm8.61-2.322c-.32-.49-.67-.98-1.06-1.44l1.14-1.14c.29-.29.3-.77 0-1.06-.29-.3-.76-.3-1.06-.01l-1.25 1.25c-.95-.81-2-1.5-3.17-1.98l.58-1.6a.768.768 0 0 0-.46-.99.768.768 0 0 0-.99.46l-.64 1.74c-.5-.1-1.01-.17-1.52-.17-.53 0-1.04.07-1.55.17l-.64-1.74a.768.768 0 0 0-.99-.46c-.4.15-.61.59-.46.99l.58 1.6c-1.16.48-2.22 1.17-3.17 1.98l-1.24-1.24c-.3-.29-.77-.29-1.06 0-.3.3-.3.77 0 1.06l1.14 1.14c-.38.47-.73.95-1.06 1.44-.22.34-.18.79.11 1.08.3.3.76.32 1.08.04.03-.03.06-.06.07-.1 1.94-2.83 4.62-4.54 7.2-4.54 2.58 0 5.26 1.71 7.2 4.54.01.04.04.07.07.1.32.29.78.26 1.08-.04.29-.29.33-.74.11-1.08Z"
        clip-rule="evenodd" />
</svg>