<svg viewBox="0 0 64 64" fill="#60aaa3" xmlns="http://www.w3.org/2000/svg">
    <path fill="oklch(70% 0.08 175 / 0.96)" d="M32 0C49.6731 0 64 14.3269 64 32C64 49.6731 49.6731 64 32 64C14.3269 64 0 49.6731 0 32C0 14.3269 14.3269 0 32 0ZM39.8545 29.0039C37.195 27.2152 33.4754 27.2759 31.0801 29.6289C25.9325 34.6849 27.1711 46.6603 35.2314 47.7891C36.7521 48.0033 38.4945 47.914 39.7832 47.4463C42.1215 46.875 47.1303 42.0151 48.5439 41.2402C49.0651 40.9546 49.9968 40.5552 50.7178 40.5801C51.1926 40.5944 51.7822 40.6871 52.2178 40.8906C52.8379 41.1781 53.231 41.6 53.2451 41.6152C53.2312 41.5965 52.8022 41.0204 52.542 40.8389L52.5283 40.835C52.2585 40.6559 51.599 40.3234 50.5537 40.2949C49.8542 40.2771 49.1296 40.4264 48.4443 40.7334C46.3596 41.6724 42.4398 46.207 39.7588 46.8857C37.2456 47.5213 35.0387 46.9828 33.3145 45.9473C31.3547 44.8511 30.1092 42.637 29.6201 40.1377C29.6201 40.1377 29.4489 39.0158 29.4453 38.9658V38.9629C29.0669 35.1351 30.3767 30.9533 33.5146 29.168C35.6208 27.9683 39.7079 28.1614 40.4648 31.2891C40.507 31.4611 40.5375 31.6497 40.5625 31.8516C40.5753 32.0202 40.5904 32.2244 40.6143 32.4795C40.6168 32.5068 40.6277 32.531 40.6416 32.5527C40.6456 32.561 40.6528 32.567 40.6582 32.5742C40.6621 32.5785 40.6646 32.584 40.6689 32.5879C40.6946 32.6143 40.7292 32.6318 40.7686 32.6318C40.7705 32.6318 40.7724 32.63 40.7744 32.6299C40.7767 32.63 40.7789 32.6318 40.7812 32.6318C40.8744 32.6318 40.9501 32.556 40.9502 32.4629C40.9514 30.9504 40.9689 29.3573 41.001 28.5986C41.0052 28.4944 40.9227 28.4072 40.8184 28.4072C40.725 28.4073 40.6471 28.4788 40.6348 28.5713C40.5678 29.0751 40.4408 29.3291 40.2559 29.334C40.2462 29.3254 40.2374 29.316 40.2275 29.3076C40.0598 29.1648 39.9094 29.0405 39.8545 29.0039ZM38.2471 36.8701C38.3759 36.6314 38.2728 36.5143 38.0811 36.7061C37.6672 37.0987 37.4098 37.402 37.0244 37.709C35.0424 39.2846 32.8231 39.3482 30.5625 39.0488C30.1464 38.9937 29.7861 39.3488 29.8496 39.7637C29.8916 40.0371 30.1102 40.2514 30.3857 40.2754C33.0518 40.5061 35.6793 39.8853 37.6562 37.709C37.926 37.4122 38.0553 37.2254 38.2471 36.8701ZM18.3018 16C18.1855 16.0002 18.0918 16.0946 18.0918 16.2109C18.0918 16.32 18.1744 16.4101 18.2832 16.418C18.6728 16.4463 19.3086 16.5025 19.3447 16.7568V37.0166C19.3376 37.1023 18.7413 37.1742 18.6055 37.1885C17.4521 37.3111 16.3749 37.5482 15.4521 38.1396C15.1854 38.3107 15.3748 38.6148 15.6709 38.502C16.6776 38.0699 18.4092 37.6738 20.3154 38.0166C22.6082 38.4302 25.1469 39.1008 26.6221 39.5107C27.2839 39.6945 27.7758 39.256 27.7334 38.5703C27.7333 38.572 27.7321 38.5733 27.7305 38.5732C25.1635 38.0162 21.0146 37.1562 21.0146 37.1562C20.9578 37.1454 20.9293 37.0986 20.9258 37.0273C20.9258 36.928 20.9298 17.0143 20.9902 16.7646C21.0424 16.5713 21.5585 16.4776 21.9678 16.4258C22.0754 16.4122 22.1572 16.3214 22.1572 16.2129C22.1572 16.0953 22.0619 16 21.9443 16H18.3018Z" />
</svg>
