<svg xmlns="http://www.w3.org/2000/svg" width="24" height="24" fill="none" viewBox="0 0 24 24">
    <path fill="currentColor" fill-rule="evenodd"
        d="M18.414 9.594c-1.92-6.24-10.94-6.23-12.85.01-1.12 3.65 1.05 6.74 2.96 8.57 1.36 1.31 3.02 1.96 4.68 1.96 1.66 0 3.32-.65 4.67-1.96 1.9-1.84 4.07-4.93 2.95-8.58h-.41Zm-6.41 6.81c-1.87 0-3.39-1.51-3.39-3.39 0-1.87 1.51-3.38 3.39-3.38 1.87 0 3.39 1.51 3.39 3.38 0 1.88-1.52 3.39-3.39 3.39Zm-1.69-3.38c0 .93.76 1.68 1.69 1.68.93 0 1.68-.75 1.68-1.68 0-.93-.75-1.69-1.68-1.69-.93 0-1.69.76-1.69 1.69Z"
        clip-rule="evenodd" />
</svg>