<svg xmlns="http://www.w3.org/2000/svg" width="24" height="24" fill="none" viewBox="0 0 24 24">
    <path fill="currentColor" fill-rule="evenodd"
        d="M3.5 10.315c0-5.186 4.2-9.315 9.393-9.315 5.222.03 9.447 4.244 9.607 9.315 0 3.541-1.887 6.686-3.974 9.076A18.28 18.28 0 0 1 14.89 22.3c-.534.396-.963.665-1.207.796a.904.904 0 0 1-.82 0c-1.182-.651-7.363-4.632-7.363-12.78Zm6.236.115c0 1.735 1.417 3.13 3.157 3.13 1.74 0 3.157-1.395 3.157-3.13 0-1.735-1.417-3.13-3.157-3.13-1.74 0-3.157 1.395-3.157 3.13Z"
        clip-rule="evenodd" />
</svg>