<svg xmlns="http://www.w3.org/2000/svg" width="24" height="24" fill="none" viewBox="0 0 24 24">
    <path fill="currentColor" fill-rule="evenodd"
        d="M17.59 3.936A9.936 9.936 0 0 1 22 12c0 5.523-4.477 10-10 10S2 17.523 2 12 6.477 2 12 2c.695 0 1.374.071 2.029.206a.75.75 0 0 1-.32 1.466A8.45 8.45 0 0 0 12 3.5 8.5 8.5 0 1 0 20.5 12c0-.575-.057-1.136-.167-1.679a.75.75 0 0 1 1.473-.287c.129.638.194 1.3.194 1.966 0 5.523-4.477 10-10 10S2 17.523 2 12 6.477 2 12 2Zm8.28-1.22a.75.75 0 0 0-1.06 0L10.5 11.44l-2.22-2.22a.75.75 0 1 0-1.06 1.06l2.75 2.75a.75.75 0 0 0 1.06 0l9-9a.75.75 0 0 0 0-1.06Z"
        clip-rule="evenodd" />
</svg>