<svg width="297" height="70" viewBox="0 0 297 70" fill="none" xmlns="http://www.w3.org/2000/svg">
    <path
        d="M269.108 0H27.727C12.4138 0 0 12.4139 0 27.7271V42.197C0 57.5102 12.4138 69.924 27.727 69.924H269.108C284.421 69.924 296.835 57.5102 296.835 42.197V27.7271C296.835 12.4139 284.421 0 269.108 0Z"
        fill="#B7AA9D" style="fill:#B7AA9D;fill:color(display-p3 0.7176 0.6667 0.6157);fill-opacity:1;" />
    <path
        d="M93.1431 40.6688C92.7922 41.8506 92.2383 42.8385 91.4812 43.6326C90.7241 44.4266 89.8285 45.0175 88.7944 45.4053C87.7603 45.7931 86.6247 45.9869 85.3875 45.9869C83.5779 45.9869 82.0083 45.6084 80.6787 44.8513C79.3677 44.0942 78.3521 43.014 77.6319 41.6106C76.9302 40.2072 76.5794 38.5268 76.5794 36.5694C76.5794 34.6121 76.9302 32.9317 77.6319 31.5283C78.3521 30.1249 79.3677 29.0447 80.6787 28.2876C82.0083 27.5305 83.5594 27.1519 85.3321 27.1519C86.5878 27.1519 87.7234 27.3273 88.739 27.6782C89.7546 28.0106 90.6133 28.5276 91.315 29.2293C92.0352 29.931 92.5614 30.8174 92.8938 31.8884L89.4315 33.3564C89.1176 32.2485 88.6375 31.4637 87.9912 31.002C87.3449 30.5219 86.5139 30.2819 85.4983 30.2819C84.5011 30.2819 83.624 30.5219 82.8669 31.002C82.1283 31.4821 81.5559 32.1931 81.1496 33.1348C80.7434 34.0581 80.5402 35.203 80.5402 36.5694C80.5402 37.9174 80.7249 39.0623 81.0942 40.0041C81.482 40.9458 82.0452 41.6567 82.7838 42.1368C83.5225 42.617 84.4273 42.857 85.4983 42.857C86.4954 42.857 87.3541 42.5893 88.0743 42.0538C88.8129 41.5182 89.3299 40.7058 89.6254 39.6163L93.1431 40.6688ZM112.272 45.71H108.311L106.788 41.2505H99.7801L98.2567 45.71H94.3512L101.027 27.4289H105.597L112.272 45.71ZM100.639 38.4252H105.929L103.27 30.4481L100.639 38.4252ZM118.806 42.6354H128.445V45.71H114.984V27.4289H118.806V42.6354ZM135.188 42.761H144.433V45.71H131.522V28.1757H135.188V42.761ZM169.588 28.1757V38.8025C169.588 41.1936 168.95 42.9913 167.675 44.1956C166.4 45.3823 164.54 45.9756 162.096 45.9756C159.652 45.9756 157.792 45.3823 156.517 44.1956C155.242 42.9913 154.604 41.1936 154.604 38.8025V28.1757H158.271V38.6431C158.271 40.1132 158.58 41.2024 159.2 41.9109C159.838 42.6193 160.803 42.9736 162.096 42.9736C163.389 42.9736 164.345 42.6193 164.965 41.9109C165.585 41.2024 165.895 40.1132 165.895 38.6431V28.1757H169.588ZM180.214 27.9101C181.808 27.9101 183.207 28.1846 184.411 28.7336C185.616 29.2827 186.643 30.0974 187.493 31.1778L185.448 33.5423C184.721 32.6213 183.924 31.9483 183.056 31.5232C182.206 31.0804 181.215 30.859 180.081 30.859C179.337 30.859 178.717 30.9564 178.221 31.1512C177.743 31.3461 177.389 31.6029 177.159 31.9217C176.946 32.2405 176.84 32.5947 176.84 32.9844C176.84 33.4626 177.026 33.8699 177.398 34.2064C177.77 34.5253 178.407 34.7909 179.311 35.0035L182.578 35.7473C184.314 36.137 185.554 36.7215 186.298 37.5008C187.059 38.2623 187.44 39.2542 187.44 40.4763C187.44 41.6275 187.139 42.6193 186.537 43.4518C185.935 44.2665 185.093 44.8952 184.013 45.338C182.933 45.7631 181.693 45.9756 180.294 45.9756C179.071 45.9756 177.947 45.8339 176.92 45.5506C175.91 45.2495 175.007 44.8421 174.21 44.3285C173.413 43.8148 172.748 43.2215 172.217 42.5485L174.289 40.0778C174.697 40.6445 175.202 41.1493 175.804 41.5921C176.406 42.0349 177.088 42.3891 177.849 42.6548C178.629 42.9027 179.443 43.0267 180.294 43.0267C181.02 43.0267 181.631 42.947 182.127 42.7876C182.64 42.6105 183.021 42.3714 183.269 42.0703C183.535 41.7515 183.668 41.3707 183.668 40.9279C183.668 40.4674 183.508 40.0778 183.189 39.759C182.888 39.4224 182.321 39.1656 181.489 38.9885L177.929 38.1915C176.902 37.9435 176.016 37.6247 175.272 37.2351C174.546 36.8277 173.988 36.3141 173.599 35.6942C173.227 35.0566 173.041 34.3039 173.041 33.436C173.041 32.391 173.324 31.4523 173.891 30.6199C174.458 29.7875 175.272 29.1322 176.335 28.6539C177.415 28.158 178.708 27.9101 180.214 27.9101Z"
        fill="white" style="fill:white;fill-opacity:1;" />
</svg>