<svg width="298" height="71" viewBox="0 0 298 71" fill="none" xmlns="http://www.w3.org/2000/svg">
    <path opacity="0.33"
        d="M269.608 0.5H28.227C12.9138 0.5 0.5 12.9138 0.5 28.227V42.697C0.5 58.0102 12.9138 70.424 28.227 70.424H269.608C284.921 70.424 297.335 58.0102 297.335 42.697V28.227C297.335 12.9138 284.921 0.5 269.608 0.5Z"
        fill="#60AAA3" style="fill:#60AAA3;fill:color(display-p3 0.3765 0.6667 0.6392);fill-opacity:1;" />
    <path
        d="M38.7563 38.9436C38.5108 39.7707 38.1231 40.4621 37.5932 41.0178C37.0634 41.5735 36.4366 41.9871 35.7129 42.2584C34.9892 42.5298 34.1944 42.6655 33.3285 42.6655C32.062 42.6655 30.9636 42.4006 30.0331 41.8707C29.1155 41.3409 28.4048 40.5849 27.9007 39.6027C27.4097 38.6205 27.1641 37.4445 27.1641 36.0747C27.1641 34.7048 27.4097 33.5288 27.9007 32.5466C28.4048 31.5644 29.1155 30.8084 30.0331 30.2786C30.9636 29.7487 32.0491 29.4838 33.2898 29.4838C34.1685 29.4838 34.9633 29.6065 35.6741 29.8521C36.3849 30.0847 36.9858 30.4466 37.4769 30.9376C37.9809 31.4287 38.3492 32.049 38.5818 32.7986L36.1587 33.826C35.939 33.0506 35.603 32.5014 35.1507 32.1783C34.6984 31.8423 34.1168 31.6743 33.4061 31.6743C32.7082 31.6743 32.0944 31.8423 31.5645 32.1783C31.0476 32.5143 30.6469 33.0118 30.3626 33.6709C30.0783 34.3171 29.9362 35.1183 29.9362 36.0747C29.9362 37.0181 30.0654 37.8193 30.3239 38.4784C30.5953 39.1375 30.9894 39.635 31.5063 39.971C32.0233 40.307 32.6565 40.475 33.4061 40.475C34.1039 40.475 34.7049 40.2876 35.2089 39.9129C35.7258 39.5381 36.0876 38.9695 36.2944 38.207L38.7563 38.9436ZM52.1439 42.4717H49.3718L48.3057 39.3507H43.4013L42.3351 42.4717H39.6018L44.2736 29.6776H47.4721L52.1439 42.4717ZM44.0022 37.3734H47.7047L45.8438 31.7906L44.0022 37.3734ZM56.7167 40.32H63.4627V42.4717H54.0416V29.6776H56.7167V40.32ZM68.1817 40.4079H74.652V42.4717H65.6158V30.2003H68.1817V40.4079ZM85.9675 32.2641H79.3484V35.3877H84.573V37.4516H79.3484V42.4717H76.7825V30.2003H85.9675V32.2641ZM93.339 30.0144C94.5538 30.0144 95.6012 30.2685 96.4812 30.7767C97.3613 31.2849 98.0368 32.01 98.5079 32.9521C98.9913 33.8941 99.233 35.0221 99.233 36.336C99.233 37.6499 98.9913 38.7779 98.5079 39.7199C98.0368 40.662 97.3613 41.3871 96.4812 41.8953C95.6012 42.4035 94.5538 42.6576 93.339 42.6576C92.1243 42.6576 91.0707 42.4035 90.1782 41.8953C89.2981 41.3871 88.6164 40.662 88.133 39.7199C87.662 38.7779 87.4264 37.6499 87.4264 36.336C87.4264 35.0221 87.662 33.8941 88.133 32.9521C88.6164 32.01 89.2981 31.2849 90.1782 30.7767C91.0707 30.2685 92.1243 30.0144 93.339 30.0144ZM93.339 32.1154C92.6449 32.1154 92.0561 32.2765 91.5727 32.5988C91.0893 32.9211 90.7174 33.3983 90.4571 34.0305C90.2092 34.6502 90.0852 35.4187 90.0852 36.336C90.0852 37.2408 90.2092 38.0094 90.4571 38.6415C90.7174 39.2737 91.0893 39.7509 91.5727 40.0732C92.0561 40.3955 92.6449 40.5566 93.339 40.5566C94.0208 40.5566 94.6033 40.3955 95.0868 40.0732C95.5702 39.7509 95.9358 39.2737 96.1837 38.6415C96.444 38.0094 96.5742 37.2408 96.5742 36.336C96.5742 35.4187 96.444 34.6502 96.1837 34.0305C95.9358 33.3983 95.5702 32.9211 95.0868 32.5988C94.6033 32.2765 94.0208 32.1154 93.339 32.1154ZM107.232 30.2003C108.62 30.2003 109.711 30.535 110.504 31.2043C111.298 31.8737 111.694 32.7723 111.694 33.9003C111.694 35.1027 111.298 36.0261 110.504 36.6707C109.711 37.3028 108.626 37.6189 107.251 37.6189L106.99 37.7677H104.35V42.4717H101.821V30.2003H107.232ZM106.934 35.8154C107.653 35.8154 108.186 35.6728 108.533 35.3877C108.893 35.0903 109.073 34.6378 109.073 34.0305C109.073 33.4231 108.893 32.9769 108.533 32.6918C108.186 32.3943 107.653 32.2455 106.934 32.2455H104.35V35.8154H106.934ZM108.44 36.3546L112.419 42.4717H109.537L106.246 37.0983L108.44 36.3546ZM133.492 30.2003V42.4717H131.168V36.0757L131.298 32.4872H131.261L127.858 42.4717H125.757L122.373 32.4872H122.336L122.466 36.0757V42.4717H120.142V30.2003H123.861L126.073 36.8938L126.854 39.6641H126.891L127.691 36.9124L129.885 30.2003H133.492ZM141.982 30.0144C143.197 30.0144 144.244 30.2685 145.124 30.7767C146.005 31.2849 146.68 32.01 147.151 32.9521C147.634 33.8941 147.876 35.0221 147.876 36.336C147.876 37.6499 147.634 38.7779 147.151 39.7199C146.68 40.662 146.005 41.3871 145.124 41.8953C144.244 42.4035 143.197 42.6576 141.982 42.6576C140.767 42.6576 139.714 42.4035 138.821 41.8953C137.941 41.3871 137.26 40.662 136.776 39.7199C136.305 38.7779 136.07 37.6499 136.07 36.336C136.07 35.0221 136.305 33.8941 136.776 32.9521C137.26 32.01 137.941 31.2849 138.821 30.7767C139.714 30.2685 140.767 30.0144 141.982 30.0144ZM141.982 32.1154C141.288 32.1154 140.699 32.2765 140.216 32.5988C139.732 32.9211 139.361 33.3983 139.1 34.0305C138.852 34.6502 138.728 35.4187 138.728 36.336C138.728 37.2408 138.852 38.0094 139.1 38.6415C139.361 39.2737 139.732 39.7509 140.216 40.0732C140.699 40.3955 141.288 40.5566 141.982 40.5566C142.664 40.5566 143.247 40.3955 143.73 40.0732C144.213 39.7509 144.579 39.2737 144.827 38.6415C145.087 38.0094 145.217 37.2408 145.217 36.336C145.217 35.4187 145.087 34.6502 144.827 34.0305C144.579 33.3983 144.213 32.9211 143.73 32.5988C143.247 32.2765 142.664 32.1154 141.982 32.1154ZM155.875 30.2003C157.263 30.2003 158.354 30.535 159.147 31.2043C159.941 31.8737 160.337 32.7723 160.337 33.9003C160.337 35.1027 159.941 36.0261 159.147 36.6707C158.354 37.3028 157.27 37.6189 155.894 37.6189L155.633 37.7677H152.993V42.4717H150.465V30.2003H155.875ZM155.578 35.8154C156.297 35.8154 156.83 35.6728 157.177 35.3877C157.536 35.0903 157.716 34.6378 157.716 34.0305C157.716 33.4231 157.536 32.9769 157.177 32.6918C156.83 32.3943 156.297 32.2455 155.578 32.2455H152.993V35.8154H155.578ZM157.084 36.3546L161.063 42.4717H158.181L154.89 37.0983L157.084 36.3546ZM163.102 42.4717V30.2003H172.306V32.2641H165.668V35.3134H170.892V37.2842H165.668V40.4079H172.566V42.4717H163.102ZM183.117 30.2003V42.4717H180.551V30.2003H183.117ZM196.849 30.2003V42.4717H193.911L189.616 35.2576L188.557 33.2496H188.538L188.612 35.3692V42.4717H186.307V30.2003H189.226L193.521 37.3958L194.581 39.4224H194.618L194.544 37.3028V30.2003H196.849ZM209.237 32.2641H202.618V35.3877H207.842V37.4516H202.618V42.4717H200.052V30.2003H209.237V32.2641ZM216.608 30.0144C217.823 30.0144 218.871 30.2685 219.751 30.7767C220.631 31.2849 221.306 32.01 221.777 32.9521C222.261 33.8941 222.502 35.0221 222.502 36.336C222.502 37.6499 222.261 38.7779 221.777 39.7199C221.306 40.662 220.631 41.3871 219.751 41.8953C218.871 42.4035 217.823 42.6576 216.608 42.6576C215.394 42.6576 214.34 42.4035 213.448 41.8953C212.568 41.3871 211.886 40.662 211.402 39.7199C210.931 38.7779 210.696 37.6499 210.696 36.336C210.696 35.0221 210.931 33.8941 211.402 32.9521C211.886 32.01 212.568 31.2849 213.448 30.7767C214.34 30.2685 215.394 30.0144 216.608 30.0144ZM216.608 32.1154C215.914 32.1154 215.326 32.2765 214.842 32.5988C214.359 32.9211 213.987 33.3983 213.727 34.0305C213.479 34.6502 213.355 35.4187 213.355 36.336C213.355 37.2408 213.479 38.0094 213.727 38.6415C213.987 39.2737 214.359 39.7509 214.842 40.0732C215.326 40.3955 215.914 40.5566 216.608 40.5566C217.29 40.5566 217.873 40.3955 218.356 40.0732C218.84 39.7509 219.205 39.2737 219.453 38.6415C219.713 38.0094 219.844 37.2408 219.844 36.336C219.844 35.4187 219.713 34.6502 219.453 34.0305C219.205 33.3983 218.84 32.9211 218.356 32.5988C217.873 32.2765 217.29 32.1154 216.608 32.1154Z"
        fill="white" style="fill:white;fill-opacity:1;" />
    <path
        d="M269.608 0.5H28.227C12.9138 0.5 0.5 12.9138 0.5 28.227V42.697C0.5 58.0102 12.9138 70.424 28.227 70.424H269.608C284.921 70.424 297.335 58.0102 297.335 42.697V28.227C297.335 12.9138 284.921 0.5 269.608 0.5Z"
        stroke="white" style="stroke:white;stroke-opacity:1;" stroke-miterlimit="10" />
</svg>