<svg width="571" height="76" viewBox="0 0 571 76" fill="none" xmlns="http://www.w3.org/2000/svg">
    <path
        d="M561.794 0H8.91299C3.99048 0 0 3.99033 0 8.91284V66.876C0 71.7985 3.99048 75.7888 8.91299 75.7888H561.794C566.716 75.7888 570.707 71.7985 570.707 66.876V8.91284C570.707 3.99033 566.716 0 561.794 0Z"
        fill="#072835" style="fill:#072835;fill:color(display-p3 0.0275 0.1569 0.2078);fill-opacity:1;" />
    <path
        d="M132.376 28.0558C133.423 28.0558 134.322 28.2401 135.074 28.6086C135.84 28.9771 136.437 29.5004 136.865 30.1784C137.292 30.8564 137.506 31.6745 137.506 32.6326C137.506 33.576 137.292 34.394 136.865 35.0868C136.437 35.7649 135.84 36.2881 135.074 36.6566C134.322 37.0251 133.423 37.2094 132.376 37.2094H129.126V42.6484H126.761V28.0558H132.376ZM132.001 35.1753C133.047 35.1753 133.814 34.9615 134.3 34.5341C134.801 34.0919 135.052 33.458 135.052 32.6326C135.052 31.7924 134.801 31.1586 134.3 30.7311C133.814 30.2889 133.047 30.0678 132.001 30.0678H129.126V35.1753H132.001ZM144.851 31.3723C145.927 31.3723 146.878 31.6008 147.703 32.0577C148.529 32.5147 149.17 33.178 149.627 34.0476C150.099 34.9026 150.334 35.927 150.334 37.1209C150.334 38.3149 150.099 39.3467 149.627 40.2163C149.17 41.0713 148.529 41.7272 147.703 42.1841C146.878 42.6411 145.927 42.8695 144.851 42.8695C143.775 42.8695 142.824 42.6411 141.999 42.1841C141.174 41.7272 140.525 41.0713 140.053 40.2163C139.582 39.3467 139.346 38.3149 139.346 37.1209C139.346 35.927 139.582 34.9026 140.053 34.0476C140.525 33.178 141.174 32.5147 141.999 32.0577C142.824 31.6008 143.775 31.3723 144.851 31.3723ZM144.851 33.2296C144.188 33.2296 143.62 33.3843 143.149 33.6939C142.692 33.9887 142.338 34.4235 142.087 34.9984C141.837 35.5732 141.712 36.2808 141.712 37.1209C141.712 37.9464 141.837 38.6539 142.087 39.2435C142.338 39.8184 142.692 40.2606 143.149 40.5701C143.62 40.8649 144.188 41.0123 144.851 41.0123C145.514 41.0123 146.075 40.8649 146.532 40.5701C146.988 40.2606 147.342 39.8184 147.593 39.2435C147.843 38.6539 147.969 37.9464 147.969 37.1209C147.969 36.2808 147.843 35.5732 147.593 34.9984C147.342 34.4235 146.988 33.9887 146.532 33.6939C146.075 33.3843 145.514 33.2296 144.851 33.2296ZM157.512 42.8695C156.406 42.8695 155.396 42.6558 154.482 42.2283C153.569 41.8009 152.846 41.1965 152.316 40.4153L153.952 39.0003C154.276 39.6046 154.74 40.091 155.345 40.4595C155.964 40.8133 156.701 40.9902 157.556 40.9902C158.234 40.9902 158.772 40.8723 159.17 40.6364C159.568 40.4006 159.767 40.0689 159.767 39.6415C159.767 39.3614 159.671 39.1182 159.479 38.9118C159.302 38.6907 158.956 38.5212 158.44 38.4033L156.119 37.9169C154.939 37.6811 154.099 37.3052 153.598 36.7893C153.097 36.2586 152.846 35.588 152.846 34.7773C152.846 34.1729 153.023 33.6128 153.377 33.0969C153.731 32.581 154.247 32.1683 154.925 31.8588C155.617 31.5345 156.443 31.3723 157.401 31.3723C158.507 31.3723 159.45 31.5713 160.231 31.9693C161.012 32.3525 161.609 32.9053 162.022 33.6276L160.386 34.9984C160.106 34.4088 159.693 33.9739 159.148 33.6939C158.602 33.3991 158.035 33.2517 157.445 33.2517C156.974 33.2517 156.568 33.3106 156.229 33.4286C155.89 33.5465 155.632 33.7086 155.455 33.915C155.278 34.1213 155.19 34.3646 155.19 34.6446C155.19 34.9394 155.301 35.1974 155.522 35.4185C155.743 35.6396 156.141 35.8091 156.716 35.927L159.236 36.4576C160.297 36.664 161.042 37.0178 161.469 37.5189C161.911 38.0053 162.133 38.6023 162.133 39.3098C162.133 40.0173 161.948 40.6438 161.58 41.1892C161.211 41.7198 160.681 42.1325 159.988 42.4273C159.295 42.7221 158.47 42.8695 157.512 42.8695ZM168.241 28.3433V39.3319C168.241 39.8773 168.382 40.2753 168.662 40.5259C168.956 40.7765 169.347 40.9017 169.833 40.9017C170.231 40.9017 170.578 40.8428 170.873 40.7249C171.167 40.5922 171.44 40.4153 171.691 40.1942L172.221 41.9188C171.882 42.2136 171.462 42.4494 170.961 42.6263C170.475 42.7885 169.929 42.8695 169.325 42.8695C168.691 42.8695 168.109 42.7664 167.578 42.56C167.048 42.3536 166.635 42.022 166.34 41.565C166.045 41.0934 165.89 40.4817 165.876 39.7299V29.0066L168.241 28.3433ZM172.044 31.5934V33.4507H163.753V31.5934H172.044ZM181.688 35.728V37.9169H174.149V35.728H181.688ZM191.829 27.8347C193.244 27.8347 194.468 28.1369 195.499 28.7412C196.531 29.3456 197.327 30.2079 197.887 31.3281C198.447 32.4484 198.727 33.7897 198.727 35.3521C198.727 36.9146 198.447 38.2559 197.887 39.3762C197.327 40.4964 196.531 41.3587 195.499 41.963C194.468 42.5674 193.244 42.8695 191.829 42.8695C190.429 42.8695 189.213 42.5674 188.181 41.963C187.149 41.3587 186.353 40.4964 185.793 39.3762C185.233 38.2559 184.953 36.9146 184.953 35.3521C184.953 33.7897 185.233 32.4484 185.793 31.3281C186.353 30.2079 187.149 29.3456 188.181 28.7412C189.213 28.1369 190.429 27.8347 191.829 27.8347ZM191.829 29.891C190.915 29.891 190.127 30.1047 189.463 30.5322C188.815 30.9596 188.314 31.5787 187.96 32.3894C187.606 33.2001 187.429 34.1877 187.429 35.3521C187.429 36.5019 187.606 37.4894 187.96 38.3149C188.314 39.1256 188.815 39.7447 189.463 40.1721C190.127 40.5996 190.915 40.8133 191.829 40.8133C192.758 40.8133 193.546 40.5996 194.195 40.1721C194.858 39.7447 195.367 39.1256 195.72 38.3149C196.074 37.4894 196.251 36.5019 196.251 35.3521C196.251 34.1877 196.074 33.2001 195.72 32.3894C195.367 31.5787 194.858 30.9596 194.195 30.5322C193.546 30.1047 192.758 29.891 191.829 29.891ZM201.827 47.2915V31.5934H203.928L204.105 34.6888L203.795 34.313C203.972 33.7381 204.245 33.2296 204.613 32.7874C204.982 32.3452 205.439 31.9988 205.984 31.7482C206.544 31.4976 207.156 31.3723 207.819 31.3723C208.718 31.3723 209.536 31.6008 210.273 32.0577C211.01 32.5147 211.593 33.1706 212.02 34.0255C212.448 34.8657 212.661 35.8901 212.661 37.0988C212.661 38.3075 212.44 39.3467 211.998 40.2163C211.571 41.0713 210.981 41.7272 210.229 42.1841C209.492 42.6411 208.667 42.8695 207.753 42.8695C206.81 42.8695 206.006 42.6263 205.343 42.1399C204.68 41.6387 204.208 41.0049 203.928 40.2384L204.193 39.8626V47.2915H201.827ZM207.244 40.946C208.202 40.946 208.947 40.6069 209.478 39.9289C210.023 39.2509 210.296 38.3149 210.296 37.1209C210.296 35.927 210.03 34.991 209.5 34.313C208.969 33.6202 208.232 33.2738 207.289 33.2738C206.67 33.2738 206.124 33.4359 205.652 33.7602C205.196 34.0698 204.834 34.512 204.569 35.0868C204.319 35.6469 204.193 36.325 204.193 37.1209C204.193 37.9022 204.319 38.5802 204.569 39.1551C204.82 39.7299 205.173 40.1721 205.63 40.4817C206.087 40.7912 206.625 40.946 207.244 40.946ZM220.554 42.8695C219.448 42.8695 218.475 42.6411 217.635 42.1841C216.795 41.7272 216.139 41.0713 215.667 40.2163C215.21 39.3467 214.982 38.3149 214.982 37.1209C214.982 35.927 215.21 34.9026 215.667 34.0476C216.139 33.178 216.788 32.5147 217.613 32.0577C218.438 31.6008 219.374 31.3723 220.421 31.3723C221.497 31.3723 222.411 31.5934 223.163 32.0356C223.914 32.4778 224.489 33.0822 224.887 33.8487C225.285 34.6151 225.484 35.4848 225.484 36.4576C225.484 36.723 225.477 36.9735 225.462 37.2094C225.447 37.4452 225.425 37.6516 225.396 37.8285H216.507V36.0154H224.356L223.185 36.3692C223.185 35.3669 222.934 34.6004 222.433 34.0698C221.932 33.5244 221.246 33.2517 220.377 33.2517C219.743 33.2517 219.19 33.3991 218.718 33.6939C218.247 33.9887 217.886 34.4309 217.635 35.0205C217.384 35.5953 217.259 36.3029 217.259 37.143C217.259 37.9685 217.392 38.6686 217.657 39.2435C217.922 39.8184 218.298 40.2532 218.785 40.548C219.271 40.8428 219.846 40.9902 220.509 40.9902C221.246 40.9902 221.843 40.8502 222.3 40.5701C222.757 40.29 223.118 39.8994 223.384 39.3983L225.263 40.2827C224.998 40.8133 224.637 41.2776 224.18 41.6756C223.737 42.0588 223.207 42.3536 222.588 42.56C221.969 42.7664 221.291 42.8695 220.554 42.8695ZM228.472 42.6484V31.5934H230.484L230.705 33.5833C231 32.8611 231.434 32.3157 232.009 31.9472C232.599 31.564 233.321 31.3723 234.176 31.3723C234.397 31.3723 234.618 31.3944 234.839 31.4387C235.06 31.4681 235.245 31.5197 235.392 31.5934L235.06 33.6718C234.898 33.6128 234.714 33.5686 234.508 33.5391C234.316 33.4949 234.051 33.4728 233.712 33.4728C233.255 33.4728 232.805 33.5981 232.363 33.8487C231.921 34.0845 231.552 34.4456 231.258 34.932C230.978 35.4185 230.837 36.0375 230.837 36.7893V42.6484H228.472ZM243.779 35.5511C243.779 34.8141 243.573 34.2466 243.16 33.8487C242.762 33.4359 242.209 33.2296 241.502 33.2296C240.838 33.2296 240.271 33.3843 239.799 33.6939C239.327 34.0034 238.981 34.5046 238.76 35.1974L236.77 34.3572C237.05 33.458 237.595 32.7358 238.406 32.1904C239.232 31.645 240.293 31.3723 241.59 31.3723C242.474 31.3723 243.256 31.5197 243.934 31.8145C244.612 32.0946 245.142 32.5221 245.526 33.0969C245.924 33.6718 246.123 34.4088 246.123 35.3079V40.2384C246.123 40.7838 246.395 41.0565 246.941 41.0565C247.206 41.0565 247.464 41.0197 247.714 40.946L247.582 42.5821C247.243 42.7442 246.815 42.8253 246.299 42.8253C245.828 42.8253 245.4 42.7442 245.017 42.5821C244.649 42.4052 244.354 42.1473 244.133 41.8083C243.926 41.4545 243.823 41.0197 243.823 40.5038V40.349L244.31 40.3269C244.177 40.9017 243.904 41.3808 243.491 41.764C243.079 42.1325 242.6 42.4126 242.054 42.6042C241.509 42.7811 240.956 42.8695 240.396 42.8695C239.703 42.8695 239.077 42.759 238.517 42.5379C237.971 42.3168 237.537 41.9851 237.212 41.5429C236.903 41.086 236.748 40.5259 236.748 39.8626C236.748 39.0371 237.013 38.3591 237.544 37.8285C238.089 37.2978 238.856 36.9367 239.843 36.7451L244.133 35.9049L244.111 37.5631L240.993 38.2043C240.374 38.3222 239.91 38.4918 239.6 38.7129C239.291 38.934 239.136 39.2582 239.136 39.6857C239.136 40.0984 239.291 40.4301 239.6 40.6806C239.924 40.9165 240.352 41.0344 240.883 41.0344C241.251 41.0344 241.605 40.9902 241.944 40.9017C242.298 40.8133 242.614 40.6733 242.895 40.4817C243.175 40.2753 243.388 40.0173 243.536 39.7078C243.698 39.3835 243.779 39.0003 243.779 38.5581V35.5511ZM252.795 28.3433V39.3319C252.795 39.8773 252.935 40.2753 253.215 40.5259C253.51 40.7765 253.9 40.9017 254.387 40.9017C254.785 40.9017 255.131 40.8428 255.426 40.7249C255.721 40.5922 255.994 40.4153 256.244 40.1942L256.775 41.9188C256.436 42.2136 256.016 42.4494 255.514 42.6263C255.028 42.7885 254.483 42.8695 253.878 42.8695C253.245 42.8695 252.662 42.7664 252.132 42.56C251.601 42.3536 251.188 42.022 250.893 41.565C250.599 41.0934 250.444 40.4817 250.429 39.7299V29.0066L252.795 28.3433ZM256.598 31.5934V33.4507H248.307V31.5934H256.598ZM260.132 29.7362C259.616 29.7362 259.218 29.6109 258.938 29.3603C258.672 29.095 258.54 28.7265 258.54 28.2548C258.54 27.7831 258.672 27.422 258.938 27.1714C259.218 26.9209 259.616 26.7956 260.132 26.7956C260.633 26.7956 261.016 26.9209 261.281 27.1714C261.561 27.422 261.701 27.7831 261.701 28.2548C261.701 28.7265 261.561 29.095 261.281 29.3603C261.016 29.6109 260.633 29.7362 260.132 29.7362ZM261.304 31.5934V42.6484H258.938V31.5934H261.304ZM272.279 31.5934H274.756L270.356 42.6484H267.769L263.347 31.5934H265.934L269.073 40.5922L272.279 31.5934ZM281.572 42.8695C280.466 42.8695 279.494 42.6411 278.653 42.1841C277.813 41.7272 277.157 41.0713 276.686 40.2163C276.229 39.3467 276 38.3149 276 37.1209C276 35.927 276.229 34.9026 276.686 34.0476C277.157 33.178 277.806 32.5147 278.631 32.0577C279.457 31.6008 280.393 31.3723 281.439 31.3723C282.515 31.3723 283.429 31.5934 284.181 32.0356C284.933 32.4778 285.508 33.0822 285.906 33.8487C286.304 34.6151 286.503 35.4848 286.503 36.4576C286.503 36.723 286.495 36.9735 286.48 37.2094C286.466 37.4452 286.444 37.6516 286.414 37.8285H277.526V36.0154H285.375L284.203 36.3692C284.203 35.3669 283.953 34.6004 283.451 34.0698C282.95 33.5244 282.265 33.2517 281.395 33.2517C280.761 33.2517 280.209 33.3991 279.737 33.6939C279.265 33.9887 278.904 34.4309 278.653 35.0205C278.403 35.5953 278.278 36.3029 278.278 37.143C278.278 37.9685 278.41 38.6686 278.676 39.2435C278.941 39.8184 279.317 40.2532 279.803 40.548C280.29 40.8428 280.864 40.9902 281.528 40.9902C282.265 40.9902 282.862 40.8502 283.319 40.5701C283.776 40.29 284.137 39.8994 284.402 39.3983L286.281 40.2827C286.016 40.8133 285.655 41.2776 285.198 41.6756C284.756 42.0588 284.225 42.3536 283.606 42.56C282.987 42.7664 282.309 42.8695 281.572 42.8695ZM302.959 28.0558C304.522 28.0558 305.76 28.4464 306.674 29.2277C307.603 30.0089 308.067 31.0628 308.067 32.3894C308.067 33.7602 307.603 34.8215 306.674 35.5732C305.76 36.3102 304.522 36.6787 302.959 36.6787L302.738 36.8114H299.356V42.6484H297.012V28.0558H302.959ZM302.783 34.8436C303.741 34.8436 304.448 34.652 304.905 34.2687C305.377 33.8708 305.613 33.2664 305.613 32.4557C305.613 31.6598 305.377 31.0628 304.905 30.6648C304.448 30.2668 303.741 30.0678 302.783 30.0678H299.356V34.8436H302.783ZM304.175 35.33L308.929 42.6484H306.21L302.141 36.2586L304.175 35.33ZM316.097 42.8695C314.992 42.8695 314.019 42.6411 313.179 42.1841C312.339 41.7272 311.683 41.0713 311.211 40.2163C310.754 39.3467 310.526 38.3149 310.526 37.1209C310.526 35.927 310.754 34.9026 311.211 34.0476C311.683 33.178 312.331 32.5147 313.157 32.0577C313.982 31.6008 314.918 31.3723 315.965 31.3723C317.041 31.3723 317.955 31.5934 318.706 32.0356C319.458 32.4778 320.033 33.0822 320.431 33.8487C320.829 34.6151 321.028 35.4848 321.028 36.4576C321.028 36.723 321.02 36.9735 321.006 37.2094C320.991 37.4452 320.969 37.6516 320.939 37.8285H312.051V36.0154H319.9L318.728 36.3692C318.728 35.3669 318.478 34.6004 317.977 34.0698C317.475 33.5244 316.79 33.2517 315.92 33.2517C315.287 33.2517 314.734 33.3991 314.262 33.6939C313.79 33.9887 313.429 34.4309 313.179 35.0205C312.928 35.5953 312.803 36.3029 312.803 37.143C312.803 37.9685 312.936 38.6686 313.201 39.2435C313.466 39.8184 313.842 40.2532 314.328 40.548C314.815 40.8428 315.39 40.9902 316.053 40.9902C316.79 40.9902 317.387 40.8502 317.844 40.5701C318.301 40.29 318.662 39.8994 318.927 39.3983L320.807 40.2827C320.541 40.8133 320.18 41.2776 319.723 41.6756C319.281 42.0588 318.75 42.3536 318.131 42.56C317.512 42.7664 316.834 42.8695 316.097 42.8695ZM328.791 31.3723C329.676 31.3723 330.427 31.505 331.046 31.7703C331.68 32.0209 332.211 32.382 332.638 32.8537C333.066 33.3254 333.39 33.8634 333.611 34.4677L331.378 35.3521C331.186 34.6741 330.877 34.1582 330.449 33.8044C330.037 33.4359 329.491 33.2517 328.813 33.2517C328.15 33.2517 327.582 33.4065 327.111 33.716C326.639 34.0108 326.278 34.4456 326.027 35.0205C325.792 35.5953 325.674 36.3029 325.674 37.143C325.674 37.9685 325.799 38.6686 326.05 39.2435C326.3 39.8184 326.661 40.2532 327.133 40.548C327.605 40.8428 328.165 40.9902 328.813 40.9902C329.314 40.9902 329.749 40.9091 330.118 40.747C330.486 40.5701 330.788 40.3269 331.024 40.0173C331.275 39.6931 331.444 39.3025 331.533 38.8455L333.677 39.5751C333.471 40.2384 333.147 40.8207 332.705 41.3218C332.277 41.8083 331.739 42.1915 331.091 42.4716C330.442 42.7369 329.698 42.8695 328.858 42.8695C327.767 42.8695 326.801 42.6411 325.961 42.1841C325.121 41.7272 324.465 41.0713 323.993 40.2163C323.536 39.3467 323.308 38.3149 323.308 37.1209C323.308 35.927 323.536 34.9026 323.993 34.0476C324.465 33.178 325.114 32.5147 325.939 32.0577C326.779 31.6008 327.73 31.3723 328.791 31.3723ZM341.229 31.3723C342.305 31.3723 343.255 31.6008 344.081 32.0577C344.906 32.5147 345.547 33.178 346.004 34.0476C346.476 34.9026 346.712 35.927 346.712 37.1209C346.712 38.3149 346.476 39.3467 346.004 40.2163C345.547 41.0713 344.906 41.7272 344.081 42.1841C343.255 42.6411 342.305 42.8695 341.229 42.8695C340.153 42.8695 339.202 42.6411 338.376 42.1841C337.551 41.7272 336.902 41.0713 336.431 40.2163C335.959 39.3467 335.723 38.3149 335.723 37.1209C335.723 35.927 335.959 34.9026 336.431 34.0476C336.902 33.178 337.551 32.5147 338.376 32.0577C339.202 31.6008 340.153 31.3723 341.229 31.3723ZM341.229 33.2296C340.565 33.2296 339.998 33.3843 339.526 33.6939C339.069 33.9887 338.715 34.4235 338.465 34.9984C338.214 35.5732 338.089 36.2808 338.089 37.1209C338.089 37.9464 338.214 38.6539 338.465 39.2435C338.715 39.8184 339.069 40.2606 339.526 40.5701C339.998 40.8649 340.565 41.0123 341.229 41.0123C341.892 41.0123 342.452 40.8649 342.909 40.5701C343.366 40.2606 343.72 39.8184 343.97 39.2435C344.221 38.6539 344.346 37.9464 344.346 37.1209C344.346 36.2808 344.221 35.5732 343.97 34.9984C343.72 34.4235 343.366 33.9887 342.909 33.6939C342.452 33.3843 341.892 33.2296 341.229 33.2296ZM356.897 31.5934H359.374L354.974 42.6484H352.387L347.965 31.5934H350.552L353.692 40.5922L356.897 31.5934ZM366.19 42.8695C365.085 42.8695 364.112 42.6411 363.272 42.1841C362.432 41.7272 361.776 41.0713 361.304 40.2163C360.847 39.3467 360.619 38.3149 360.619 37.1209C360.619 35.927 360.847 34.9026 361.304 34.0476C361.776 33.178 362.424 32.5147 363.25 32.0577C364.075 31.6008 365.011 31.3723 366.058 31.3723C367.134 31.3723 368.047 31.5934 368.799 32.0356C369.551 32.4778 370.126 33.0822 370.524 33.8487C370.922 34.6151 371.121 35.4848 371.121 36.4576C371.121 36.723 371.113 36.9735 371.099 37.2094C371.084 37.4452 371.062 37.6516 371.032 37.8285H362.144V36.0154H369.993L368.821 36.3692C368.821 35.3669 368.571 34.6004 368.07 34.0698C367.568 33.5244 366.883 33.2517 366.013 33.2517C365.38 33.2517 364.827 33.3991 364.355 33.6939C363.883 33.9887 363.522 34.4309 363.272 35.0205C363.021 35.5953 362.896 36.3029 362.896 37.143C362.896 37.9685 363.029 38.6686 363.294 39.2435C363.559 39.8184 363.935 40.2532 364.421 40.548C364.908 40.8428 365.483 40.9902 366.146 40.9902C366.883 40.9902 367.48 40.8502 367.937 40.5701C368.394 40.29 368.755 39.8994 369.02 39.3983L370.9 40.2827C370.634 40.8133 370.273 41.2776 369.816 41.6756C369.374 42.0588 368.843 42.3536 368.224 42.56C367.605 42.7664 366.927 42.8695 366.19 42.8695ZM374.108 42.6484V31.5934H376.12L376.341 33.5833C376.636 32.8611 377.071 32.3157 377.646 31.9472C378.236 31.564 378.958 31.3723 379.813 31.3723C380.034 31.3723 380.255 31.3944 380.476 31.4387C380.697 31.4681 380.881 31.5197 381.029 31.5934L380.697 33.6718C380.535 33.6128 380.351 33.5686 380.144 33.5391C379.953 33.4949 379.687 33.4728 379.348 33.4728C378.892 33.4728 378.442 33.5981 378 33.8487C377.558 34.0845 377.189 34.4456 376.894 34.932C376.614 35.4185 376.474 36.0375 376.474 36.7893V42.6484H374.108ZM392.97 31.5934L388.128 43.9529C387.803 44.8078 387.449 45.4859 387.066 45.987C386.698 46.4882 386.27 46.8493 385.784 47.0704C385.297 47.2915 384.73 47.4021 384.081 47.4021C383.551 47.4021 383.057 47.3284 382.6 47.181C382.158 47.0483 381.767 46.8641 381.428 46.6282L382.003 44.7931C382.283 45.0289 382.578 45.2058 382.887 45.3237C383.212 45.4417 383.558 45.5006 383.927 45.5006C384.325 45.5006 384.678 45.3901 384.988 45.169C385.312 44.9626 385.6 44.5425 385.85 43.9087L386.337 42.7148L385.165 39.9731L381.716 31.5934H384.369L386.823 38.536L387.464 40.6143L388.194 38.337L390.515 31.5934H392.97Z"
        fill="white" style="fill:white;fill-opacity:1;" />
</svg>