<svg width="1435" height="43" viewBox="0 0 1435 43" fill="none" xmlns="http://www.w3.org/2000/svg">
    <path
        d="M18.5287 -0.000402077C22.2188 -0.000402077 25.4428 0.834739 28.2008 2.50502C30.9975 4.1753 33.1533 6.58362 34.6682 9.72996C36.222 12.8375 36.9989 16.6247 36.9989 21.0918C36.9989 25.4423 36.2026 29.2489 34.61 32.5118C33.0562 35.7747 30.881 38.319 28.0842 40.1446C25.2875 41.9703 22.0829 42.8831 18.4704 42.8831C14.7802 42.8831 11.5368 42.048 8.74003 40.3777C5.98213 38.7074 3.8263 36.2991 2.27255 33.1527C0.757641 30.0064 0.000187681 26.2191 0.000187681 21.7909C0.000187681 17.4404 0.796485 13.6338 2.38908 10.3709C3.98167 7.10801 6.15692 4.56374 8.91483 2.73809C11.7116 0.912427 14.9162 -0.000402077 18.5287 -0.000402077ZM18.2956 1.04838C15.7708 1.04838 13.5761 1.92236 11.7116 3.67033C9.84708 5.4183 8.39044 7.82662 7.34166 10.8953C6.33172 13.9639 5.82675 17.5181 5.82675 21.5579C5.82675 25.6753 6.38999 29.2684 7.51645 32.337C8.68177 35.3668 10.2355 37.7169 12.1777 39.3872C14.1587 41.0186 16.334 41.8343 18.7035 41.8343C21.2283 41.8343 23.423 40.9603 25.2875 39.2124C27.152 37.4644 28.5892 35.0561 29.5991 31.9874C30.6479 28.8799 31.1723 25.3257 31.1723 21.3248C31.1723 17.1685 30.5896 13.5755 29.4243 10.5457C28.2979 7.51587 26.7635 5.18524 24.8213 3.5538C22.8792 1.88352 20.7039 1.04838 18.2956 1.04838ZM75.2917 4.02725V5.10183C74.0739 5.13765 73.1426 5.31674 72.4978 5.63912C71.8889 5.96149 71.477 6.48087 71.2621 7.19726C71.0471 7.91365 70.9397 8.9345 70.9397 10.2598V26.4322C70.9397 28.9396 70.7785 31.1246 70.4561 32.9872C70.1337 34.8498 69.5606 36.4617 68.7368 37.8228C67.8413 39.3272 66.5339 40.5451 64.8146 41.4764C63.0952 42.3718 61.1252 42.8196 58.9044 42.8196C57.1851 42.8196 55.5374 42.6047 53.9613 42.1748C52.4211 41.7808 51.0599 41.0286 49.8779 39.9182C48.8391 38.9153 48.0153 37.8586 47.4064 36.7482C46.8333 35.6378 46.4393 34.2767 46.2243 32.6648C46.0094 31.0529 45.902 29.0291 45.902 26.5934V9.72252C45.902 8.39721 45.7945 7.43009 45.5796 6.82116C45.3647 6.17641 44.9348 5.74658 44.2901 5.53166C43.6812 5.28093 42.7678 5.13765 41.5499 5.10183V4.02725C42.3021 4.06307 43.2871 4.09889 44.505 4.13471C45.7229 4.17053 47.0303 4.18844 48.4272 4.18844C49.6809 4.18844 50.9167 4.17053 52.1345 4.13471C53.3882 4.09889 54.427 4.06307 55.2508 4.02725V5.10183C54.0329 5.13765 53.1016 5.28093 52.4569 5.53166C51.848 5.74658 51.436 6.17641 51.2211 6.82116C51.0062 7.43009 50.8988 8.39721 50.8988 9.72252V27.5068C50.8988 29.3336 50.9883 31.0708 51.1674 32.7185C51.3465 34.3304 51.7047 35.7632 52.242 37.0169C52.8151 38.2347 53.6748 39.2018 54.821 39.9182C55.9672 40.5988 57.4895 40.9391 59.3879 40.9391C62.1102 40.9391 64.2056 40.3481 65.6742 39.166C67.1786 37.9482 68.2174 36.2826 68.7905 34.1692C69.3994 32.0559 69.7039 29.6739 69.7039 27.0233V10.2598C69.7039 8.9345 69.5427 7.91365 69.2203 7.19726C68.9338 6.48087 68.4323 5.96149 67.7159 5.63912C66.9995 5.31674 66.0324 5.13765 64.8146 5.10183V4.02725C65.4593 4.06307 66.3011 4.09889 67.3398 4.13471C68.4144 4.17053 69.3994 4.18844 70.2949 4.18844C71.2262 4.18844 72.1396 4.17053 73.0351 4.13471C73.9664 4.09889 74.7186 4.06307 75.2917 4.02725ZM78.9797 4.02725C79.7319 4.06307 80.717 4.09889 81.9348 4.13471C83.1527 4.17053 84.3526 4.18844 85.5347 4.18844C87.2182 4.18844 88.83 4.17053 90.3703 4.13471C91.9105 4.09889 93.003 4.08098 93.6477 4.08098C96.5491 4.08098 98.949 4.4929 100.847 5.31675C102.782 6.14059 104.214 7.2689 105.146 8.70167C106.113 10.0986 106.596 11.6747 106.596 13.4298C106.596 14.5044 106.382 15.6506 105.952 16.8685C105.522 18.0863 104.77 19.2326 103.695 20.3071C102.656 21.3817 101.224 22.2772 99.3967 22.9936C97.57 23.6742 95.2596 24.0144 92.4657 24.0144H87.3077V22.9399H91.9284C94.4716 22.9399 96.4058 22.5458 97.7311 21.7578C99.0923 20.934 100.006 19.8594 100.471 18.5341C100.973 17.1729 101.224 15.6685 101.224 14.0208C101.224 11.1911 100.543 9.00614 99.1818 7.4659C97.8565 5.88985 95.5641 5.10183 92.3045 5.10183C90.6568 5.10183 89.5822 5.40629 89.0808 6.01522C88.5793 6.62415 88.3286 7.85992 88.3286 9.72252V36.3721C88.3286 37.6616 88.436 38.6287 88.6509 39.2735C88.8659 39.9182 89.2778 40.3481 89.8867 40.563C90.5315 40.7779 91.4628 40.9212 92.6806 40.9928V42.0674C91.8568 41.9957 90.818 41.9599 89.5643 41.9599C88.3465 41.9241 87.1107 41.9062 85.857 41.9062C84.4601 41.9062 83.1527 41.9241 81.9348 41.9599C80.717 41.9599 79.7319 41.9957 78.9797 42.0674V40.9928C80.1976 40.9212 81.111 40.7779 81.7199 40.563C82.3646 40.3481 82.7945 39.9182 83.0094 39.2735C83.2243 38.6287 83.3318 37.6616 83.3318 36.3721V9.72252C83.3318 8.39721 83.2243 7.43009 83.0094 6.82116C82.7945 6.17641 82.3646 5.74658 81.7199 5.53166C81.111 5.28093 80.1976 5.13765 78.9797 5.10183V4.02725ZM87.5226 23.101C89.4569 23.1727 90.9792 23.2622 92.0896 23.3697C93.2 23.4413 94.0955 23.513 94.776 23.5846C95.4924 23.6562 96.173 23.7458 96.8177 23.8533C99.2176 24.2473 100.937 24.9816 101.976 26.0561C103.05 27.0949 103.838 28.7247 104.34 30.9455L105.683 36.4258C106.041 38.0019 106.399 39.1481 106.758 39.8645C107.152 40.5451 107.743 40.8674 108.531 40.8316C109.14 40.7958 109.641 40.5988 110.035 40.2406C110.465 39.8824 110.913 39.3988 111.378 38.7899L112.184 39.3809C111.432 40.4913 110.644 41.351 109.82 41.9599C109.032 42.533 107.904 42.8196 106.435 42.8196C105.11 42.8196 103.946 42.4256 102.943 41.6376C101.94 40.8495 101.188 39.3093 100.686 37.0169L99.5042 31.644C99.1818 30.1037 98.8057 28.7784 98.3759 27.668C97.9819 26.5218 97.4088 25.6263 96.6566 24.9816C95.9402 24.3368 94.8656 24.0144 93.4328 24.0144H87.6301L87.5226 23.101ZM126.57 4.02725C127.322 4.06307 128.307 4.09889 129.525 4.13471C130.743 4.17053 131.943 4.18844 133.125 4.18844C134.808 4.18844 136.42 4.17053 137.96 4.13471C139.501 4.09889 140.593 4.08098 141.238 4.08098C145.572 4.08098 148.814 5.06601 150.963 7.03607C153.112 9.00614 154.186 11.5493 154.186 14.6656C154.186 15.9551 153.972 17.3162 153.542 18.749C153.112 20.146 152.36 21.4534 151.285 22.6712C150.246 23.8533 148.814 24.8204 146.987 25.5726C145.16 26.3248 142.85 26.7009 140.056 26.7009H134.898V25.6263H139.518C142.062 25.6263 143.996 25.1427 145.321 24.1756C146.682 23.2085 147.596 21.9369 148.061 20.3609C148.563 18.7848 148.814 17.0834 148.814 15.2566C148.814 11.8538 148.133 9.3106 146.772 7.62709C145.447 5.94358 143.154 5.10183 139.895 5.10183C138.247 5.10183 137.172 5.40629 136.671 6.01522C136.169 6.62415 135.919 7.85992 135.919 9.72252V36.3721C135.919 37.6616 136.044 38.6287 136.295 39.2735C136.581 39.9182 137.119 40.3481 137.907 40.563C138.695 40.7779 139.841 40.9212 141.345 40.9928V42.0674C140.414 41.9957 139.232 41.9599 137.799 41.9599C136.366 41.9241 134.916 41.9062 133.447 41.9062C132.05 41.9062 130.743 41.9241 129.525 41.9599C128.307 41.9599 127.322 41.9957 126.57 42.0674V40.9928C127.788 40.9212 128.701 40.7779 129.31 40.563C129.955 40.3481 130.385 39.9182 130.599 39.2735C130.814 38.6287 130.922 37.6616 130.922 36.3721V9.72252C130.922 8.39721 130.814 7.43009 130.599 6.82116C130.385 6.17641 129.955 5.74658 129.31 5.53166C128.701 5.28093 127.788 5.13765 126.57 5.10183V4.02725ZM157.999 4.02725C158.751 4.06307 159.736 4.09889 160.954 4.13471C162.172 4.17053 163.372 4.18844 164.554 4.18844C166.238 4.18844 167.849 4.17053 169.39 4.13471C170.93 4.09889 172.022 4.08098 172.667 4.08098C175.569 4.08098 177.968 4.4929 179.867 5.31675C181.801 6.14059 183.234 7.2689 184.165 8.70167C185.132 10.0986 185.616 11.6747 185.616 13.4298C185.616 14.5044 185.401 15.6506 184.971 16.8685C184.541 18.0863 183.789 19.2326 182.714 20.3071C181.676 21.3817 180.243 22.2772 178.416 22.9936C176.589 23.6742 174.279 24.0144 171.485 24.0144H166.327V22.9399H170.948C173.491 22.9399 175.425 22.5458 176.751 21.7578C178.112 20.934 179.025 19.8594 179.491 18.5341C179.992 17.1729 180.243 15.6685 180.243 14.0208C180.243 11.1911 179.562 9.00614 178.201 7.4659C176.876 5.88985 174.583 5.10183 171.324 5.10183C169.676 5.10183 168.602 5.40629 168.1 6.01522C167.599 6.62415 167.348 7.85992 167.348 9.72252V36.3721C167.348 37.6616 167.455 38.6287 167.67 39.2735C167.885 39.9182 168.297 40.3481 168.906 40.563C169.551 40.7779 170.482 40.9212 171.7 40.9928V42.0674C170.876 41.9957 169.837 41.9599 168.584 41.9599C167.366 41.9241 166.13 41.9062 164.876 41.9062C163.479 41.9062 162.172 41.9241 160.954 41.9599C159.736 41.9599 158.751 41.9957 157.999 42.0674V40.9928C159.217 40.9212 160.13 40.7779 160.739 40.563C161.384 40.3481 161.814 39.9182 162.029 39.2735C162.244 38.6287 162.351 37.6616 162.351 36.3721V9.72252C162.351 8.39721 162.244 7.43009 162.029 6.82116C161.814 6.17641 161.384 5.74658 160.739 5.53166C160.13 5.28093 159.217 5.13765 157.999 5.10183V4.02725ZM166.542 23.101C168.476 23.1727 169.999 23.2622 171.109 23.3697C172.219 23.4413 173.115 23.513 173.795 23.5846C174.512 23.6562 175.192 23.7458 175.837 23.8533C178.237 24.2473 179.956 24.9816 180.995 26.0561C182.07 27.0949 182.858 28.7247 183.359 30.9455L184.702 36.4258C185.061 38.0019 185.419 39.1481 185.777 39.8645C186.171 40.5451 186.762 40.8674 187.55 40.8316C188.159 40.7958 188.66 40.5988 189.054 40.2406C189.484 39.8824 189.932 39.3988 190.398 38.7899L191.204 39.3809C190.451 40.4913 189.663 41.351 188.84 41.9599C188.052 42.533 186.923 42.8196 185.455 42.8196C184.129 42.8196 182.965 42.4256 181.962 41.6376C180.959 40.8495 180.207 39.3093 179.706 37.0169L178.524 31.644C178.201 30.1037 177.825 28.7784 177.395 27.668C177.001 26.5218 176.428 25.6263 175.676 24.9816C174.96 24.3368 173.885 24.0144 172.452 24.0144H166.649L166.542 23.101ZM210.516 3.27504C213.919 3.27504 216.892 4.04516 219.435 5.58539C222.014 7.12562 224.002 9.34642 225.399 12.2478C226.832 15.1133 227.548 18.6057 227.548 22.7249C227.548 26.7367 226.814 30.247 225.345 33.2558C223.912 36.2647 221.906 38.6108 219.327 40.2943C216.748 41.9778 213.793 42.8196 210.462 42.8196C207.059 42.8196 204.068 42.0495 201.489 40.5092C198.946 38.969 196.958 36.7482 195.525 33.8468C194.129 30.9455 193.43 27.4531 193.43 23.3697C193.43 19.3579 194.164 15.8476 195.633 12.8388C197.102 9.82998 199.107 7.48382 201.651 5.80031C204.23 4.1168 207.185 3.27504 210.516 3.27504ZM210.301 4.24216C207.973 4.24216 205.949 5.0481 204.23 6.65997C202.51 8.27184 201.167 10.4926 200.2 13.3224C199.269 16.1521 198.803 19.4296 198.803 23.1548C198.803 26.9516 199.322 30.2649 200.361 33.0946C201.436 35.8885 202.868 38.0556 204.659 39.5958C206.486 41.1003 208.492 41.8525 210.677 41.8525C213.005 41.8525 215.029 41.0465 216.748 39.4347C218.468 37.8228 219.793 35.602 220.724 32.7723C221.692 29.9067 222.175 26.6292 222.175 22.9399C222.175 19.1072 221.638 15.7939 220.563 13C219.524 10.2061 218.11 8.05692 216.319 6.55251C214.528 5.01228 212.522 4.24216 210.301 4.24216ZM250.34 3.27504C252.704 3.27504 254.639 3.63324 256.143 4.34962C257.683 5.03019 259.044 5.83613 260.227 6.76743C260.943 7.30472 261.48 7.37636 261.838 6.98234C262.232 6.55251 262.501 5.56748 262.644 4.02725H263.88C263.808 5.35257 263.755 6.96444 263.719 8.86286C263.683 10.7613 263.665 13.2686 263.665 16.3849H262.429C262.179 14.8447 261.946 13.6268 261.731 12.7313C261.516 11.8 261.247 11.012 260.925 10.3673C260.638 9.72252 260.244 9.07777 259.743 8.43303C258.633 6.96443 257.236 5.90776 255.552 5.26301C253.869 4.58245 252.096 4.24216 250.233 4.24216C248.478 4.24216 246.884 4.68991 245.451 5.58539C244.054 6.44505 242.836 7.69873 241.797 9.34642C240.795 10.9941 240.007 12.9821 239.433 15.3103C238.896 17.6386 238.627 20.2534 238.627 23.1548C238.627 26.1636 238.932 28.8321 239.541 31.1604C240.15 33.4528 240.992 35.3871 242.066 36.9631C243.177 38.5392 244.466 39.7391 245.935 40.563C247.439 41.351 249.051 41.745 250.77 41.745C252.382 41.745 254.066 41.4226 255.821 40.7779C257.576 40.1331 258.955 39.0944 259.958 37.6616C260.746 36.6228 261.283 35.4945 261.57 34.2767C261.892 33.0588 262.179 31.3574 262.429 29.1724H263.665C263.665 32.432 263.683 35.0647 263.719 37.0706C263.755 39.0406 263.808 40.7062 263.88 42.0674H262.644C262.501 40.5272 262.25 39.56 261.892 39.166C261.57 38.772 261.015 38.8257 260.227 39.3272C258.901 40.2585 257.486 41.0824 255.982 41.7987C254.513 42.4793 252.615 42.8196 250.287 42.8196C246.884 42.8196 243.893 42.0495 241.314 40.5092C238.771 38.969 236.783 36.7482 235.35 33.8468C233.953 30.9455 233.255 27.4531 233.255 23.3697C233.255 19.3579 233.989 15.8476 235.457 12.8388C236.926 9.82998 238.932 7.48382 241.475 5.80031C244.054 4.1168 247.009 3.27504 250.34 3.27504ZM296.465 4.02725C296.322 5.28093 296.215 6.49878 296.143 7.68082C296.107 8.86286 296.089 9.75834 296.089 10.3673C296.089 11.012 296.107 11.6389 296.143 12.2478C296.179 12.8209 296.215 13.3045 296.251 13.6985H295.015C294.8 11.5851 294.495 9.91953 294.101 8.70167C293.707 7.448 293.027 6.57042 292.06 6.06895C291.128 5.53166 289.714 5.26301 287.815 5.26301H283.356C282.138 5.26301 281.206 5.37047 280.562 5.58539C279.953 5.76449 279.541 6.17641 279.326 6.82116C279.111 7.43009 279.004 8.39721 279.004 9.72252V36.3721C279.004 37.6616 279.111 38.6287 279.326 39.2735C279.541 39.9182 279.953 40.3481 280.562 40.563C281.206 40.7421 282.138 40.8316 283.356 40.8316H287.278C289.534 40.8316 291.236 40.5272 292.382 39.9182C293.564 39.3093 294.406 38.3243 294.907 36.9631C295.445 35.5662 295.839 33.6857 296.089 31.3216H297.325C297.218 32.2887 297.164 33.5782 297.164 35.1901C297.164 35.8706 297.182 36.8557 297.218 38.1452C297.289 39.3988 297.397 40.7062 297.54 42.0674C295.713 41.9957 293.654 41.9599 291.361 41.9599C289.069 41.9241 287.027 41.9062 285.236 41.9062C284.448 41.9062 283.427 41.9062 282.174 41.9062C280.956 41.9062 279.63 41.9241 278.198 41.9599C276.765 41.9599 275.314 41.9778 273.846 42.0137C272.377 42.0137 270.98 42.0316 269.655 42.0674V40.9928C270.873 40.9212 271.786 40.7779 272.395 40.563C273.04 40.3481 273.469 39.9182 273.684 39.2735C273.899 38.6287 274.007 37.6616 274.007 36.3721V9.72252C274.007 8.39721 273.899 7.43009 273.684 6.82116C273.469 6.17641 273.04 5.74658 272.395 5.53166C271.786 5.28093 270.873 5.13765 269.655 5.10183V4.02725C270.98 4.06307 272.377 4.09889 273.846 4.13471C275.314 4.13471 276.765 4.15262 278.198 4.18844C279.63 4.18844 280.956 4.18844 282.174 4.18844C283.427 4.18844 284.448 4.18844 285.236 4.18844C286.884 4.18844 288.746 4.18844 290.824 4.18844C292.937 4.15262 294.818 4.09889 296.465 4.02725ZM287.224 22.4026C287.224 22.4026 287.224 22.5817 287.224 22.9399C287.224 23.2981 287.224 23.4771 287.224 23.4771H277.392C277.392 23.4771 277.392 23.2981 277.392 22.9399C277.392 22.5817 277.392 22.4026 277.392 22.4026H287.224ZM288.782 15.3103C288.639 17.352 288.567 18.9102 288.567 19.9848C288.603 21.0593 288.621 22.0444 288.621 22.9399C288.621 23.8353 288.639 24.8204 288.675 25.895C288.711 26.9695 288.8 28.5277 288.943 30.5694H287.708C287.564 29.4232 287.385 28.3128 287.17 27.2382C286.991 26.1278 286.561 25.2323 285.881 24.5517C285.236 23.8353 284.126 23.4771 282.55 23.4771V22.4026C283.732 22.4026 284.627 22.1697 285.236 21.7041C285.881 21.2026 286.347 20.5758 286.633 19.8236C286.92 19.0714 287.117 18.3013 287.224 17.5132C287.332 16.6894 287.439 15.9551 287.546 15.3103H288.782ZM313.894 3.43623C315.685 3.43623 317.046 3.65115 317.977 4.08098C318.909 4.47499 319.732 4.92273 320.449 5.4242C320.879 5.67494 321.219 5.87195 321.47 6.01522C321.756 6.12268 322.025 6.17641 322.276 6.17641C322.634 6.17641 322.884 5.9794 323.028 5.58539C323.207 5.19138 323.35 4.60036 323.458 3.81233H324.693C324.658 4.42126 324.604 5.15556 324.532 6.01522C324.496 6.83907 324.461 7.94947 324.425 9.34642C324.425 10.7076 324.425 12.5164 324.425 14.773H323.189C323.081 13.0537 322.705 11.406 322.061 9.82998C321.416 8.25393 320.467 6.96443 319.213 5.96149C317.995 4.95855 316.383 4.45708 314.377 4.45708C312.479 4.45708 310.903 5.03019 309.649 6.17641C308.431 7.32263 307.822 8.82704 307.822 10.6896C307.822 12.3015 308.234 13.6626 309.058 14.773C309.882 15.8476 310.975 16.8327 312.336 17.7281C313.733 18.5878 315.237 19.5191 316.849 20.5221C318.712 21.6683 320.359 22.8145 321.792 23.9607C323.261 25.0711 324.407 26.3069 325.231 27.668C326.09 29.0291 326.52 30.6768 326.52 32.6111C326.52 34.9035 326.001 36.8019 324.962 38.3064C323.923 39.8108 322.544 40.9391 320.825 41.6913C319.106 42.4435 317.207 42.8196 315.13 42.8196C313.231 42.8196 311.727 42.6047 310.616 42.1748C309.506 41.745 308.557 41.2973 307.769 40.8316C306.981 40.3301 306.372 40.0794 305.942 40.0794C305.584 40.0794 305.315 40.2764 305.136 40.6704C304.993 41.0644 304.867 41.6555 304.76 42.4435H303.524C303.596 41.6913 303.632 40.8137 303.632 39.8108C303.667 38.772 303.685 37.4288 303.685 35.7811C303.721 34.1334 303.739 32.0559 303.739 29.5485H304.975C305.118 31.6977 305.512 33.7036 306.157 35.5662C306.837 37.4288 307.858 38.9332 309.219 40.0794C310.616 41.1898 312.461 41.745 314.753 41.745C315.936 41.745 317.046 41.5122 318.085 41.0465C319.159 40.5451 320.037 39.7749 320.717 38.7362C321.398 37.6616 321.738 36.2826 321.738 34.5991C321.738 33.1305 321.38 31.8589 320.664 30.7843C319.983 29.6739 319.016 28.653 317.762 27.7217C316.509 26.7546 315.04 25.7696 313.357 24.7666C311.673 23.7279 310.097 22.6712 308.628 21.5966C307.16 20.5221 305.978 19.2863 305.082 17.8893C304.223 16.4566 303.793 14.7372 303.793 12.7313C303.793 10.618 304.258 8.88077 305.19 7.51964C306.157 6.12268 307.411 5.10183 308.951 4.45708C310.491 3.77651 312.139 3.43623 313.894 3.43623ZM342.91 3.43623C344.701 3.43623 346.062 3.65115 346.993 4.08098C347.924 4.47499 348.748 4.92273 349.465 5.4242C349.894 5.67494 350.235 5.87195 350.485 6.01522C350.772 6.12268 351.041 6.17641 351.291 6.17641C351.65 6.17641 351.9 5.9794 352.044 5.58539C352.223 5.19138 352.366 4.60036 352.473 3.81233H353.709C353.673 4.42126 353.62 5.15556 353.548 6.01522C353.512 6.83907 353.476 7.94947 353.44 9.34642C353.44 10.7076 353.44 12.5164 353.44 14.773H352.205C352.097 13.0537 351.721 11.406 351.076 9.82998C350.432 8.25393 349.482 6.96443 348.229 5.96149C347.011 4.95855 345.399 4.45708 343.393 4.45708C341.495 4.45708 339.919 5.03019 338.665 6.17641C337.447 7.32263 336.838 8.82704 336.838 10.6896C336.838 12.3015 337.25 13.6626 338.074 14.773C338.898 15.8476 339.99 16.8327 341.351 17.7281C342.748 18.5878 344.253 19.5191 345.865 20.5221C347.727 21.6683 349.375 22.8145 350.808 23.9607C352.276 25.0711 353.423 26.3069 354.246 27.668C355.106 29.0291 355.536 30.6768 355.536 32.6111C355.536 34.9035 355.017 36.8019 353.978 38.3064C352.939 39.8108 351.56 40.9391 349.841 41.6913C348.121 42.4435 346.223 42.8196 344.145 42.8196C342.247 42.8196 340.743 42.6047 339.632 42.1748C338.522 41.745 337.573 41.2973 336.784 40.8316C335.996 40.3301 335.388 40.0794 334.958 40.0794C334.6 40.0794 334.331 40.2764 334.152 40.6704C334.008 41.0644 333.883 41.6555 333.776 42.4435H332.54C332.612 41.6913 332.647 40.8137 332.647 39.8108C332.683 38.772 332.701 37.4288 332.701 35.7811C332.737 34.1334 332.755 32.0559 332.755 29.5485H333.991C334.134 31.6977 334.528 33.7036 335.173 35.5662C335.853 37.4288 336.874 38.9332 338.235 40.0794C339.632 41.1898 341.477 41.745 343.769 41.745C344.951 41.745 346.062 41.5122 347.1 41.0465C348.175 40.5451 349.053 39.7749 349.733 38.7362C350.414 37.6616 350.754 36.2826 350.754 34.5991C350.754 33.1305 350.396 31.8589 349.679 30.7843C348.999 29.6739 348.032 28.653 346.778 27.7217C345.524 26.7546 344.056 25.7696 342.372 24.7666C340.689 23.7279 339.113 22.6712 337.644 21.5966C336.176 20.5221 334.994 19.2863 334.098 17.8893C333.238 16.4566 332.809 14.7372 332.809 12.7313C332.809 10.618 333.274 8.88077 334.205 7.51964C335.173 6.12268 336.426 5.10183 337.967 4.45708C339.507 3.77651 341.154 3.43623 342.91 3.43623Z"
        fill="#668D8E" style="fill:#668D8E;fill:color(display-p3 0.4000 0.5529 0.5569);fill-opacity:1;" />
    <path
        d="M642.734 6.32753C646.722 6.32753 649.684 7.32994 651.622 9.33475C653.56 11.3173 654.529 14.1686 654.529 17.8886C654.529 20.3167 654.05 22.444 653.092 24.2706C652.157 26.075 650.787 27.4784 648.983 28.4808C647.178 29.4832 644.995 29.9844 642.434 29.9844C642.099 29.9844 641.654 29.9732 641.097 29.951C640.54 29.9287 639.961 29.9175 639.36 29.9175C638.78 29.8953 638.246 29.8841 637.756 29.8841C636.976 29.8841 636.207 29.8953 635.45 29.9175C634.693 29.9175 634.08 29.9398 633.612 29.9844V29.3161C634.37 29.2716 634.938 29.1824 635.316 29.0488C635.717 28.9151 635.985 28.6478 636.118 28.2469C636.252 27.8459 636.319 27.2445 636.319 26.4425V9.86937C636.319 9.04517 636.252 8.44372 636.118 8.06504C635.985 7.66407 635.717 7.39676 635.316 7.26311C634.938 7.10718 634.37 7.01808 633.612 6.9958V6.32753C634.08 6.3498 634.693 6.38322 635.45 6.42777C636.207 6.45004 636.954 6.45004 637.689 6.42777C638.468 6.40549 639.348 6.38322 640.328 6.36094C641.309 6.33867 642.111 6.32753 642.734 6.32753ZM641.899 6.92897C640.874 6.92897 640.206 7.11832 639.894 7.497C639.582 7.87569 639.426 8.64421 639.426 9.80255V26.5094C639.426 27.6677 639.582 28.4362 639.894 28.8149C640.228 29.1936 640.908 29.3829 641.932 29.3829C644.36 29.3829 646.243 28.9486 647.579 28.0798C648.916 27.1888 649.851 25.8968 650.386 24.2038C650.921 22.5109 651.188 20.4504 651.188 18.0223C651.188 15.5274 650.887 13.4669 650.286 11.8408C649.707 10.1924 648.738 8.9672 647.379 8.16528C646.042 7.34107 644.216 6.92897 641.899 6.92897ZM665.444 12.3086C667.404 12.3086 668.93 12.91 670.022 14.1129C671.136 15.2935 671.692 17.1424 671.692 19.6596H659.897L659.864 19.0247H668.485C668.529 17.9332 668.44 16.9308 668.217 16.0175C667.995 15.0819 667.638 14.3357 667.148 13.7788C666.68 13.2219 666.068 12.9434 665.31 12.9434C664.286 12.9434 663.372 13.4558 662.57 14.4805C661.791 15.5051 661.323 17.1313 661.167 19.3588L661.267 19.4925C661.223 19.8266 661.189 20.1942 661.167 20.5951C661.145 20.9961 661.134 21.3971 661.134 21.798C661.134 23.3128 661.379 24.6159 661.869 25.7074C662.359 26.7989 662.994 27.6343 663.773 28.2135C664.575 28.7703 665.4 29.0488 666.246 29.0488C666.914 29.0488 667.549 28.9486 668.151 28.7481C668.752 28.5253 669.309 28.1689 669.821 27.6788C670.334 27.1888 670.779 26.5316 671.158 25.7074L671.826 25.9747C671.581 26.7098 671.18 27.4227 670.623 28.1132C670.066 28.8038 669.365 29.3718 668.518 29.8173C667.672 30.2405 666.691 30.4522 665.578 30.4522C663.974 30.4522 662.593 30.0846 661.434 29.3495C660.298 28.6144 659.418 27.6009 658.795 26.3089C658.193 24.9946 657.893 23.491 657.893 21.798C657.893 19.8378 658.204 18.156 658.828 16.7526C659.452 15.3269 660.332 14.2354 661.468 13.478C662.604 12.6984 663.929 12.3086 665.444 12.3086ZM680.208 12.3086C681.099 12.3086 681.857 12.4534 682.48 12.7429C683.104 13.0325 683.561 13.2998 683.85 13.5449C684.585 14.1463 685.031 13.7454 685.187 12.342H685.955C685.911 12.9657 685.877 13.7119 685.855 14.5807C685.833 15.4272 685.822 16.5744 685.822 18.0223H685.053C684.919 17.1981 684.686 16.3962 684.351 15.6165C684.04 14.8369 683.572 14.202 682.948 13.7119C682.324 13.1996 681.511 12.9434 680.509 12.9434C679.729 12.9434 679.072 13.1662 678.537 13.6117C678.025 14.0349 677.769 14.6698 677.769 15.5163C677.769 16.1845 677.969 16.7637 678.37 17.2538C678.771 17.7216 679.295 18.1671 679.941 18.5903C680.587 18.9913 681.289 19.4368 682.046 19.9269C682.892 20.4615 683.661 21.0072 684.351 21.5641C685.042 22.121 685.588 22.7336 685.989 23.4019C686.412 24.0702 686.624 24.861 686.624 25.7743C686.624 26.7989 686.356 27.6566 685.822 28.3471C685.287 29.0377 684.585 29.5611 683.717 29.9175C682.87 30.274 681.935 30.4522 680.91 30.4522C680.42 30.4522 679.952 30.4076 679.506 30.3185C679.083 30.2517 678.671 30.1403 678.27 29.9844C678.047 29.873 677.814 29.7393 677.569 29.5834C677.346 29.4275 677.123 29.2604 676.9 29.0822C676.677 28.904 676.477 28.9151 676.299 29.1156C676.121 29.2938 675.987 29.6614 675.898 30.2183H675.129C675.174 29.5054 675.207 28.6367 675.23 27.612C675.252 26.5873 675.263 25.2285 675.263 23.5355H676.031C676.187 24.783 676.41 25.8745 676.7 26.8101C676.989 27.7457 677.446 28.4808 678.07 29.0154C678.693 29.5277 679.562 29.7839 680.676 29.7839C681.121 29.7839 681.567 29.6837 682.013 29.4832C682.48 29.2827 682.87 28.9486 683.182 28.4808C683.494 28.013 683.65 27.3893 683.65 26.6096C683.65 25.6295 683.293 24.8275 682.581 24.2038C681.868 23.5801 680.966 22.923 679.874 22.2324C679.072 21.7201 678.315 21.2077 677.602 20.6954C676.911 20.183 676.343 19.6039 675.898 18.9579C675.475 18.3119 675.263 17.5322 675.263 16.6189C675.263 15.6165 675.486 14.8035 675.931 14.1797C676.399 13.5337 677.012 13.0659 677.769 12.7764C678.526 12.4645 679.339 12.3086 680.208 12.3086ZM692.981 4.42295C693.56 4.42295 694.061 4.63457 694.485 5.05781C694.908 5.48105 695.12 5.98225 695.12 6.56142C695.12 7.14059 694.908 7.6418 694.485 8.06504C694.061 8.48828 693.56 8.6999 692.981 8.6999C692.402 8.6999 691.901 8.48828 691.477 8.06504C691.054 7.6418 690.843 7.14059 690.843 6.56142C690.843 5.98225 691.054 5.48105 691.477 5.05781C691.901 4.63457 692.402 4.42295 692.981 4.42295ZM694.719 12.4088V26.8769C694.719 27.8125 694.908 28.4473 695.287 28.7815C695.688 29.1156 696.345 29.2827 697.258 29.2827V29.9844C696.879 29.9621 696.3 29.9398 695.52 29.9175C694.763 29.873 693.995 29.8507 693.215 29.8507C692.458 29.8507 691.689 29.873 690.909 29.9175C690.13 29.9398 689.551 29.9621 689.172 29.9844V29.2827C690.085 29.2827 690.731 29.1156 691.11 28.7815C691.511 28.4473 691.711 27.8125 691.711 26.8769V16.4184C691.711 15.416 691.533 14.6809 691.177 14.2131C690.82 13.7231 690.152 13.478 689.172 13.478V12.7764C689.885 12.8432 690.575 12.8766 691.244 12.8766C691.89 12.8766 692.502 12.8432 693.081 12.7764C693.683 12.6873 694.229 12.5647 694.719 12.4088ZM705.109 36.2661C703.929 36.2661 702.815 36.1436 701.768 35.8986C700.721 35.6536 699.874 35.2637 699.228 34.7291C698.605 34.2168 698.293 33.5596 698.293 32.7577C698.293 31.9781 698.605 31.3098 699.228 30.7529C699.852 30.196 700.699 29.7728 701.768 29.4832L701.968 30.0178C701.478 30.1737 701.088 30.4856 700.799 30.9534C700.509 31.4212 700.364 31.9446 700.364 32.5238C700.364 33.5485 700.832 34.3281 701.768 34.8628C702.726 35.4197 703.962 35.6981 705.477 35.6981C706.479 35.6981 707.459 35.5645 708.417 35.2971C709.375 35.0521 710.166 34.6289 710.789 34.0274C711.413 33.426 711.725 32.6352 711.725 31.6551C711.725 30.92 711.458 30.3185 710.923 29.8507C710.411 29.3607 709.386 29.1156 707.849 29.1156H705.376C704.664 29.1156 703.973 29.0599 703.305 28.9486C702.637 28.8372 702.091 28.6033 701.668 28.2469C701.244 27.8905 701.033 27.3447 701.033 26.6096C701.033 25.8522 701.345 25.1283 701.968 24.4377C702.592 23.7249 703.739 23.0009 705.41 22.2658L705.811 22.5665C705.053 22.9675 704.396 23.3796 703.839 23.8029C703.283 24.2038 703.004 24.6827 703.004 25.2396C703.004 25.9525 703.539 26.3089 704.608 26.3089H708.785C709.72 26.3089 710.578 26.4425 711.358 26.7098C712.159 26.9771 712.805 27.4004 713.295 27.9796C713.786 28.5587 714.031 29.3161 714.031 30.2517C714.031 31.2986 713.696 32.2788 713.028 33.1921C712.36 34.1054 711.358 34.8405 710.021 35.3974C708.707 35.9766 707.069 36.2661 705.109 36.2661ZM705.276 22.8673C704.185 22.8673 703.193 22.6891 702.302 22.3327C701.411 21.954 700.71 21.3748 700.197 20.5951C699.685 19.8155 699.429 18.8131 699.429 17.5879C699.429 16.3628 699.685 15.3603 700.197 14.5807C700.71 13.801 701.411 13.233 702.302 12.8766C703.193 12.4979 704.185 12.3086 705.276 12.3086C706.39 12.3086 707.381 12.4979 708.25 12.8766C709.141 13.233 709.843 13.801 710.355 14.5807C710.867 15.3603 711.124 16.3628 711.124 17.5879C711.124 18.8131 710.867 19.8155 710.355 20.5951C709.843 21.3748 709.141 21.954 708.25 22.3327C707.381 22.6891 706.39 22.8673 705.276 22.8673ZM705.276 22.2658C706.123 22.2658 706.78 21.9317 707.248 21.2634C707.738 20.5951 707.983 19.37 707.983 17.5879C707.983 15.8059 707.738 14.5807 707.248 13.9124C706.78 13.2441 706.123 12.91 705.276 12.91C704.452 12.91 703.795 13.2441 703.305 13.9124C702.815 14.5807 702.57 15.8059 702.57 17.5879C702.57 19.37 702.815 20.5951 703.305 21.2634C703.795 21.9317 704.452 22.2658 705.276 22.2658ZM710.088 15.0819L709.486 14.848C709.798 14.0906 710.333 13.4224 711.09 12.8432C711.848 12.264 712.638 11.9744 713.463 11.9744C714.042 11.9744 714.51 12.1415 714.866 12.4756C715.222 12.7875 715.401 13.2664 715.401 13.9124C715.401 14.603 715.211 15.093 714.833 15.3826C714.476 15.6499 714.109 15.7836 713.73 15.7836C713.396 15.7836 713.084 15.6722 712.794 15.4494C712.505 15.2044 712.338 14.8257 712.293 14.3134C712.249 13.801 712.404 13.1439 712.761 12.342L713.195 12.4422C712.26 12.7986 711.591 13.1773 711.19 13.5783C710.789 13.957 710.422 14.4582 710.088 15.0819ZM727.841 12.3086C728.688 12.3086 729.389 12.4199 729.946 12.6427C730.525 12.8655 731.004 13.1773 731.383 13.5783C731.806 14.0238 732.107 14.5807 732.285 15.249C732.463 15.9172 732.552 16.8194 732.552 17.9555V26.8769C732.552 27.8125 732.742 28.4473 733.12 28.7815C733.521 29.1156 734.179 29.2827 735.092 29.2827V29.9844C734.713 29.9621 734.134 29.9398 733.354 29.9175C732.575 29.873 731.817 29.8507 731.082 29.8507C730.347 29.8507 729.623 29.873 728.91 29.9175C728.22 29.9398 727.696 29.9621 727.34 29.9844V29.2827C728.142 29.2827 728.71 29.1156 729.044 28.7815C729.378 28.4473 729.545 27.8125 729.545 26.8769V17.2204C729.545 16.5298 729.49 15.895 729.378 15.3158C729.267 14.7366 729.011 14.2688 728.61 13.9124C728.231 13.556 727.641 13.3778 726.839 13.3778C725.903 13.3778 725.079 13.6451 724.366 14.1797C723.676 14.7143 723.13 15.4494 722.729 16.385C722.35 17.2983 722.161 18.323 722.161 19.4591V26.8769C722.161 27.8125 722.328 28.4473 722.662 28.7815C722.996 29.1156 723.564 29.2827 724.366 29.2827V29.9844C724.01 29.9621 723.475 29.9398 722.762 29.9175C722.072 29.873 721.359 29.8507 720.624 29.8507C719.889 29.8507 719.131 29.873 718.352 29.9175C717.572 29.9398 716.993 29.9621 716.614 29.9844V29.2827C717.527 29.2827 718.173 29.1156 718.552 28.7815C718.953 28.4473 719.154 27.8125 719.154 26.8769V16.4184C719.154 15.416 718.975 14.6809 718.619 14.2131C718.263 13.7231 717.594 13.478 716.614 13.478V12.7764C717.327 12.8432 718.018 12.8766 718.686 12.8766C719.332 12.8766 719.944 12.8432 720.524 12.7764C721.125 12.6873 721.671 12.5647 722.161 12.4088V16.3516C722.74 14.8369 723.542 13.7899 724.567 13.2107C725.614 12.6093 726.705 12.3086 727.841 12.3086ZM744.671 12.3086C746.631 12.3086 748.157 12.91 749.249 14.1129C750.362 15.2935 750.919 17.1424 750.919 19.6596H739.124L739.091 19.0247H747.712C747.756 17.9332 747.667 16.9308 747.444 16.0175C747.221 15.0819 746.865 14.3357 746.375 13.7788C745.907 13.2219 745.295 12.9434 744.537 12.9434C743.513 12.9434 742.599 13.4558 741.797 14.4805C741.018 15.5051 740.55 17.1313 740.394 19.3588L740.494 19.4925C740.45 19.8266 740.416 20.1942 740.394 20.5951C740.372 20.9961 740.361 21.3971 740.361 21.798C740.361 23.3128 740.606 24.6159 741.096 25.7074C741.586 26.7989 742.221 27.6343 743 28.2135C743.802 28.7703 744.626 29.0488 745.473 29.0488C746.141 29.0488 746.776 28.9486 747.377 28.7481C747.979 28.5253 748.536 28.1689 749.048 27.6788C749.56 27.1888 750.006 26.5316 750.385 25.7074L751.053 25.9747C750.808 26.7098 750.407 27.4227 749.85 28.1132C749.293 28.8038 748.591 29.3718 747.745 29.8173C746.898 30.2405 745.918 30.4522 744.805 30.4522C743.201 30.4522 741.82 30.0846 740.661 29.3495C739.525 28.6144 738.645 27.6009 738.022 26.3089C737.42 24.9946 737.119 23.491 737.119 21.798C737.119 19.8378 737.431 18.156 738.055 16.7526C738.679 15.3269 739.559 14.2354 740.695 13.478C741.831 12.6984 743.156 12.3086 744.671 12.3086ZM768.657 3.78809V26.3423C768.657 27.3447 768.835 28.0909 769.192 28.581C769.57 29.0488 770.239 29.2827 771.197 29.2827V29.9844C770.506 29.9175 769.816 29.8841 769.125 29.8841C768.479 29.8841 767.855 29.9175 767.254 29.9844C766.675 30.0512 766.14 30.1737 765.65 30.3519V7.79773C765.65 6.79532 765.472 6.06022 765.115 5.59243C764.759 5.10236 764.091 4.85733 763.111 4.85733V4.15564C763.823 4.22247 764.514 4.25588 765.182 4.25588C765.828 4.25588 766.441 4.22247 767.02 4.15564C767.621 4.06654 768.167 3.94402 768.657 3.78809ZM761.64 12.3086C762.62 12.3086 763.534 12.5425 764.38 13.0103C765.249 13.478 765.828 14.28 766.118 15.416L765.683 15.7502C765.371 14.8146 764.881 14.1352 764.213 13.7119C763.567 13.2887 762.799 13.0771 761.908 13.0771C760.593 13.0771 759.491 13.7565 758.6 15.1153C757.731 16.4741 757.308 18.5681 757.33 21.3971C757.33 23.2014 757.497 24.705 757.831 25.9079C758.188 27.0885 758.7 27.9796 759.368 28.581C760.059 29.1602 760.894 29.4498 761.874 29.4498C762.81 29.4498 763.656 29.0488 764.414 28.2469C765.171 27.4449 765.628 26.2643 765.784 24.705L766.185 25.1728C766.006 26.8658 765.461 28.1689 764.547 29.0822C763.656 29.9955 762.442 30.4522 760.905 30.4522C759.524 30.4522 758.31 30.118 757.263 29.4498C756.238 28.7815 755.448 27.7791 754.891 26.4425C754.356 25.106 754.089 23.4242 754.089 21.3971C754.089 19.37 754.434 17.6882 755.125 16.3516C755.837 14.9928 756.762 13.9792 757.898 13.311C759.056 12.6427 760.304 12.3086 761.64 12.3086ZM788.725 5.88939C789.3 5.88939 789.803 5.97155 790.235 6.13589C790.687 6.27968 791.077 6.47482 791.406 6.72131C791.714 6.96781 791.95 7.25539 792.114 7.58405C792.279 7.91271 792.361 8.26191 792.361 8.63166C792.361 9.10411 792.207 9.49439 791.899 9.80251C791.591 10.1106 791.2 10.2647 790.728 10.2647C790.276 10.2647 789.875 10.1209 789.526 9.83333C789.197 9.52521 789.033 9.11438 789.033 8.60085C789.033 8.16948 789.146 7.82027 789.372 7.55324C789.619 7.2862 789.937 7.1116 790.327 7.02943C790.266 6.84456 790.101 6.6905 789.834 6.56725C789.588 6.42346 789.249 6.35157 788.817 6.35157C788.345 6.35157 787.934 6.45428 787.585 6.65969C787.256 6.8651 787 7.14241 786.815 7.49161C786.568 7.92298 786.414 8.57003 786.352 9.43277C786.291 10.275 786.26 11.5793 786.26 13.3459V14.147H789.557V14.7632H786.26V26.8107C786.26 27.8173 786.548 28.4951 787.123 28.8443C787.718 29.173 788.52 29.3373 789.526 29.3373V29.9844C789.054 29.9638 788.386 29.9433 787.523 29.9228C786.661 29.8817 785.747 29.8611 784.781 29.8611C784.083 29.8611 783.384 29.8817 782.686 29.9228C782.008 29.9433 781.494 29.9638 781.145 29.9844V29.3373C781.987 29.3373 782.583 29.1833 782.932 28.8751C783.302 28.567 783.487 27.9816 783.487 27.1189V14.7632H781.022V14.147H783.487C783.487 12.9351 783.538 11.9183 783.641 11.0966C783.744 10.275 783.908 9.57656 784.134 9.0014C784.36 8.4057 784.668 7.8819 785.058 7.42999C785.469 6.95754 785.993 6.58779 786.63 6.32076C787.267 6.03318 787.965 5.88939 788.725 5.88939ZM798.382 13.6848C799.697 13.6848 800.878 13.9724 801.926 14.5476C802.973 15.1227 803.805 16.0265 804.422 17.259C805.058 18.4915 805.377 20.0937 805.377 22.0657C805.377 24.0377 805.058 25.6399 804.422 26.8724C803.805 28.0843 802.973 28.9778 801.926 29.553C800.878 30.1282 799.697 30.4157 798.382 30.4157C797.088 30.4157 795.907 30.1282 794.839 29.553C793.791 28.9778 792.949 28.0843 792.312 26.8724C791.696 25.6399 791.388 24.0377 791.388 22.0657C791.388 20.0937 791.696 18.4915 792.312 17.259C792.949 16.0265 793.791 15.1227 794.839 14.5476C795.907 13.9724 797.088 13.6848 798.382 13.6848ZM798.382 14.3011C797.212 14.3011 796.246 14.907 795.486 16.119C794.747 17.3309 794.377 19.3132 794.377 22.0657C794.377 24.8182 794.747 26.8005 795.486 28.0124C796.246 29.2038 797.212 29.7995 798.382 29.7995C799.553 29.7995 800.508 29.2038 801.248 28.0124C802.008 26.8005 802.388 24.8182 802.388 22.0657C802.388 19.3132 802.008 17.3309 801.248 16.119C800.508 14.907 799.553 14.3011 798.382 14.3011ZM817.296 13.6848C817.851 13.6848 818.334 13.7978 818.745 14.0238C819.176 14.2497 819.505 14.5476 819.731 14.9173C819.977 15.2665 820.1 15.6671 820.1 16.119C820.1 16.6325 819.936 17.0844 819.607 17.4747C819.299 17.865 818.878 18.0601 818.344 18.0601C817.913 18.0601 817.533 17.9266 817.204 17.6596C816.875 17.372 816.711 16.9714 816.711 16.4579C816.711 16.0676 816.814 15.739 817.019 15.4719C817.245 15.1843 817.492 14.9584 817.759 14.7941C817.615 14.5886 817.399 14.4859 817.112 14.4859C816.475 14.4859 815.889 14.6811 815.355 15.0714C814.821 15.4411 814.369 15.9238 814 16.5195C813.63 17.1152 813.342 17.752 813.137 18.4299C812.931 19.0872 812.829 19.7034 812.829 20.2786V26.8107C812.829 27.8173 813.116 28.4951 813.691 28.8443C814.287 29.173 815.088 29.3373 816.095 29.3373V29.9844C815.622 29.9638 814.955 29.9433 814.092 29.9228C813.229 29.8817 812.315 29.8611 811.35 29.8611C810.651 29.8611 809.953 29.8817 809.254 29.9228C808.577 29.9433 808.063 29.9638 807.714 29.9844V29.3373C808.556 29.3373 809.152 29.1833 809.501 28.8751C809.871 28.567 810.056 27.9816 810.056 27.1189V17.4747C810.056 16.5503 809.891 15.8725 809.563 15.4411C809.234 14.9892 808.618 14.7632 807.714 14.7632V14.1162C808.371 14.1778 809.008 14.2086 809.624 14.2086C810.22 14.2086 810.785 14.1778 811.319 14.1162C811.873 14.034 812.377 13.9211 812.829 13.7773V17.6288C813.055 17.0331 813.373 16.4374 813.784 15.8417C814.215 15.2254 814.729 14.7119 815.324 14.3011C815.92 13.8902 816.577 13.6848 817.296 13.6848ZM842.479 8.16948C842.171 8.97059 841.853 9.9463 841.524 11.0966C841.196 12.2264 840.857 13.6129 840.507 15.2562H839.83C839.994 14.1881 840.045 13.2945 839.984 12.5756C839.943 11.8361 839.789 11.2096 839.521 10.6961C839.131 9.91549 838.566 9.31979 837.827 8.90897C837.108 8.49814 836.327 8.29273 835.485 8.29273C834.417 8.29273 833.38 8.61112 832.373 9.2479C831.367 9.86414 830.432 10.7063 829.569 11.7745C828.706 12.8426 827.946 14.0546 827.289 15.4103C826.632 16.7455 826.118 18.1423 825.749 19.6007C825.379 21.0386 825.194 22.4457 825.194 23.822C825.194 25.835 825.584 27.3448 826.365 28.3513C827.166 29.3579 828.244 29.8611 829.6 29.8611C830.463 29.8611 831.397 29.6557 832.404 29.2449C833.431 28.8341 834.325 28.2384 835.085 27.4578C835.639 26.9032 836.112 26.2561 836.502 25.5166C836.913 24.7566 837.365 23.7809 837.858 22.5895H838.536C838.022 24.4588 837.621 25.9685 837.334 27.1189C837.067 28.2486 836.861 29.2038 836.718 29.9844H836.04C836.101 29.553 836.132 29.2038 836.132 28.9368C836.132 28.4643 836.05 28.2075 835.886 28.1665C835.721 28.1048 835.465 28.187 835.115 28.413C834.561 28.7827 834.006 29.1216 833.452 29.4298C832.897 29.7173 832.291 29.9536 831.634 30.1384C830.976 30.3233 830.196 30.4157 829.292 30.4157C827.032 30.4157 825.266 29.8098 823.992 28.5978C822.739 27.3654 822.113 25.5577 822.113 23.1749C822.113 21.7781 822.328 20.3608 822.76 18.9229C823.191 17.4644 823.807 16.0676 824.608 14.7324C825.41 13.3972 826.365 12.2059 827.474 11.1582C828.583 10.1106 829.816 9.27871 831.171 8.66247C832.527 8.04623 833.986 7.73811 835.547 7.73811C836.43 7.73811 837.149 7.84082 837.704 8.04623C838.258 8.2311 838.72 8.4776 839.09 8.78572C839.48 9.0733 839.83 9.39169 840.138 9.74089C840.425 10.0285 840.692 10.0696 840.939 9.86414C841.206 9.63818 841.504 9.0733 841.832 8.16948H842.479ZM844.326 27.3654C844.161 27.9611 844.11 28.4335 844.172 28.7827C844.233 29.1114 844.459 29.2757 844.85 29.2757C845.26 29.2757 845.64 29.0497 845.99 28.5978C846.359 28.1254 846.75 27.3037 847.16 26.1329L847.561 24.9928H848.146L847.376 27.2421C847.109 28.0227 846.78 28.6492 846.39 29.1216C846.02 29.5735 845.61 29.9022 845.158 30.1076C844.706 30.313 844.213 30.4157 843.679 30.4157C843.001 30.4157 842.498 30.2822 842.169 30.0152C841.861 29.7687 841.666 29.4298 841.583 28.9984C841.522 28.567 841.532 28.1048 841.614 27.6119C841.717 27.0983 841.84 26.5951 841.984 26.1021L847.006 9.43277C847.212 8.73436 847.191 8.22083 846.945 7.89217C846.698 7.56351 846.072 7.39918 845.065 7.39918L845.281 6.75213C846.411 6.73158 847.407 6.61861 848.27 6.41319C849.132 6.18724 849.964 5.87912 850.765 5.48883L844.326 27.3654ZM855.552 8.53922C855.655 8.00515 855.922 7.54297 856.353 7.15268C856.805 6.7624 857.288 6.56725 857.801 6.56725C858.335 6.56725 858.746 6.7624 859.034 7.15268C859.342 7.54297 859.444 8.00515 859.342 8.53922C859.239 9.0733 858.962 9.53548 858.51 9.92576C858.078 10.316 857.596 10.5112 857.062 10.5112C856.548 10.5112 856.137 10.316 855.829 9.92576C855.542 9.53548 855.449 9.0733 855.552 8.53922ZM854.597 16.766C855.028 15.4925 854.884 14.8557 854.165 14.8557C853.693 14.8557 853.272 15.1124 852.902 15.626C852.532 16.1395 852.142 16.9304 851.731 17.9985L851.3 19.1386H850.714L851.516 16.8893C851.824 16.0265 852.193 15.3692 852.625 14.9173C853.056 14.4654 853.508 14.1573 853.98 13.9929C854.473 13.8081 854.925 13.7156 855.336 13.7156C855.994 13.7156 856.476 13.8492 856.784 14.1162C857.093 14.3832 857.277 14.7324 857.339 15.1638C857.401 15.5952 857.38 16.0676 857.277 16.5812C857.175 17.0741 857.041 17.5569 856.877 18.0293L853.58 27.3654C853.375 27.9611 853.303 28.4335 853.364 28.7827C853.446 29.1114 853.683 29.2757 854.073 29.2757C854.484 29.2757 854.874 29.0497 855.244 28.5978C855.614 28.1459 856.024 27.3243 856.476 26.1329L856.908 24.9928H857.493L856.692 27.2421C856.404 28.0432 856.055 28.68 855.644 29.1525C855.234 29.6044 854.792 29.9228 854.319 30.1076C853.847 30.313 853.375 30.4157 852.902 30.4157C852.019 30.4157 851.423 30.2103 851.115 29.7995C850.807 29.3887 850.694 28.8546 850.776 28.1973C850.858 27.54 851.033 26.8416 851.3 26.1021L854.597 16.766ZM862.785 29.9844H860.105L863.802 16.766C863.884 16.5195 863.946 16.2525 863.987 15.9649C864.049 15.6568 864.038 15.4 863.956 15.1946C863.874 14.9687 863.669 14.8557 863.34 14.8557C862.888 14.8557 862.487 15.0816 862.138 15.5335C861.789 15.9649 861.399 16.7866 860.967 17.9985L860.567 19.1386H859.981L860.752 16.8893C861.204 15.5952 861.758 14.7427 862.416 14.3319C863.093 13.9211 863.761 13.7156 864.418 13.7156C865.035 13.7156 865.476 13.8492 865.743 14.1162C866.031 14.3832 866.185 14.7324 866.205 15.1638C866.246 15.5746 866.216 16.0368 866.113 16.5503C866.031 17.0433 865.928 17.5363 865.805 18.0293L862.785 29.9844ZM864.203 23.5755C864.922 21.7268 865.62 20.1759 866.298 18.9229C866.976 17.6698 867.643 16.6633 868.301 15.9033C868.958 15.1227 869.626 14.5681 870.303 14.2394C871.002 13.8902 871.721 13.7156 872.46 13.7156C873.426 13.7156 874.083 13.9519 874.432 14.4243C874.802 14.8762 874.966 15.4617 874.925 16.1806C874.884 16.879 874.74 17.6082 874.494 18.3683L871.505 27.3654C871.32 27.92 871.238 28.3822 871.259 28.7519C871.3 29.1011 871.546 29.2757 871.998 29.2757C872.388 29.2757 872.768 29.06 873.138 28.6286C873.528 28.1973 873.939 27.3654 874.371 26.1329L874.771 24.9928H875.357L874.586 27.2421C874.299 28.1048 873.939 28.7622 873.508 29.2141C873.097 29.666 872.655 29.9741 872.183 30.1384C871.731 30.3233 871.289 30.4157 870.858 30.4157C870.365 30.4157 869.954 30.3336 869.626 30.1692C869.317 30.0049 869.081 29.7892 868.917 29.5222C868.691 29.1525 868.619 28.6697 868.701 28.074C868.783 27.4783 868.948 26.821 869.194 26.1021L872.121 17.2898C872.224 17.0023 872.306 16.6633 872.368 16.273C872.45 15.8622 872.44 15.5027 872.337 15.1946C872.234 14.866 871.936 14.7016 871.443 14.7016C870.95 14.7016 870.427 14.9173 869.872 15.3487C869.317 15.78 868.742 16.3963 868.147 17.1974C867.551 17.978 866.965 18.9229 866.39 20.0321C865.815 21.1208 865.26 22.3327 864.726 23.6679C864.213 24.9826 863.74 26.3896 863.309 27.8892L864.203 23.5755ZM882.723 8.53922C882.826 8.00515 883.093 7.54297 883.524 7.15268C883.976 6.7624 884.459 6.56725 884.972 6.56725C885.506 6.56725 885.917 6.7624 886.205 7.15268C886.513 7.54297 886.616 8.00515 886.513 8.53922C886.41 9.0733 886.133 9.53548 885.681 9.92576C885.25 10.316 884.767 10.5112 884.233 10.5112C883.719 10.5112 883.308 10.316 883 9.92576C882.713 9.53548 882.62 9.0733 882.723 8.53922ZM881.768 16.766C882.199 15.4925 882.055 14.8557 881.336 14.8557C880.864 14.8557 880.443 15.1124 880.073 15.626C879.703 16.1395 879.313 16.9304 878.902 17.9985L878.471 19.1386H877.886L878.687 16.8893C878.995 16.0265 879.365 15.3692 879.796 14.9173C880.227 14.4654 880.679 14.1573 881.152 13.9929C881.645 13.8081 882.097 13.7156 882.507 13.7156C883.165 13.7156 883.647 13.8492 883.956 14.1162C884.264 14.3832 884.449 14.7324 884.51 15.1638C884.572 15.5952 884.551 16.0676 884.449 16.5812C884.346 17.0741 884.212 17.5569 884.048 18.0293L880.751 27.3654C880.546 27.9611 880.474 28.4335 880.535 28.7827C880.618 29.1114 880.854 29.2757 881.244 29.2757C881.655 29.2757 882.045 29.0497 882.415 28.5978C882.785 28.1459 883.195 27.3243 883.647 26.1329L884.079 24.9928H884.664L883.863 27.2421C883.576 28.0432 883.226 28.68 882.815 29.1525C882.405 29.6044 881.963 29.9228 881.491 30.1076C881.018 30.313 880.546 30.4157 880.073 30.4157C879.19 30.4157 878.594 30.2103 878.286 29.7995C877.978 29.3887 877.865 28.8546 877.947 28.1973C878.029 27.54 878.204 26.8416 878.471 26.1021L881.768 16.766ZM896.15 14.3319C895.369 14.3319 894.588 14.6503 893.808 15.2871C893.048 15.9238 892.349 16.7968 891.713 17.9061C891.076 19.0153 890.562 20.2786 890.172 21.6959C889.802 23.1133 889.617 24.6025 889.617 26.1637C889.617 27.2113 889.813 27.9713 890.203 28.4438C890.614 28.8957 891.138 29.1216 891.774 29.1216C892.514 29.1216 893.274 28.8957 894.054 28.4438C894.835 27.9919 895.616 27.1908 896.396 26.0404L897.012 26.2869C896.622 26.9648 896.109 27.6221 895.472 28.2589C894.835 28.8957 894.116 29.4195 893.315 29.8303C892.534 30.2206 891.702 30.4157 890.819 30.4157C889.587 30.4157 888.601 30.0357 887.861 29.2757C887.122 28.5157 886.752 27.3859 886.752 25.8864C886.752 24.9415 886.885 23.9247 887.152 22.836C887.44 21.7268 887.841 20.6381 888.354 19.5699C888.888 18.4812 889.535 17.5055 890.295 16.6428C891.055 15.7595 891.918 15.0508 892.884 14.5167C893.849 13.9827 894.907 13.7156 896.057 13.7156C896.961 13.7156 897.742 13.9519 898.399 14.4243C899.056 14.8762 899.385 15.513 899.385 16.3347C899.385 16.7249 899.292 17.1152 899.108 17.5055C898.943 17.8753 898.697 18.1834 898.368 18.4299C898.039 18.6764 897.649 18.7996 897.197 18.7996C896.766 18.7996 896.447 18.6866 896.242 18.4607C896.037 18.2142 895.934 17.9266 895.934 17.598C895.934 17.0023 896.17 16.499 896.643 16.0882C897.115 15.6568 897.649 15.3898 898.245 15.2871C898.039 14.9995 897.772 14.7735 897.444 14.6092C897.115 14.4243 896.684 14.3319 896.15 14.3319ZM903.564 29.4298C904.057 29.4298 904.622 29.1216 905.259 28.5054C905.896 27.8686 906.543 27.0162 907.2 25.948C907.857 24.8799 908.463 23.6679 909.018 22.3122C909.573 20.9565 910.014 19.5494 910.343 18.0909L909.819 21.4186C909.038 23.596 908.258 25.3523 907.477 26.6875C906.697 28.0021 905.906 28.9573 905.105 29.553C904.304 30.1282 903.492 30.4157 902.671 30.4157C901.705 30.4157 900.976 30.0665 900.483 29.3681C900.011 28.6697 899.774 27.7762 899.774 26.6875C899.774 25.7015 899.939 24.6334 900.267 23.483C900.596 22.3122 901.048 21.1516 901.623 20.0013C902.219 18.851 902.897 17.8034 903.657 16.8585C904.417 15.9136 905.238 15.1535 906.122 14.5784C907.025 14.0032 907.94 13.7156 908.864 13.7156C909.583 13.7156 910.127 14.0751 910.497 14.7941C910.887 15.4925 910.969 16.4784 910.743 17.752L910.404 17.9369C910.548 16.8482 910.476 15.9752 910.189 15.3179C909.901 14.64 909.429 14.3011 908.771 14.3011C908.237 14.3011 907.672 14.5681 907.077 15.1022C906.502 15.6157 905.937 16.3244 905.382 17.2282C904.848 18.1115 904.355 19.1077 903.903 20.217C903.472 21.3262 903.123 22.4765 902.856 23.6679C902.609 24.8388 902.486 25.9685 902.486 27.0572C902.486 27.9405 902.578 28.5568 902.763 28.906C902.969 29.2552 903.236 29.4298 903.564 29.4298ZM911.329 14.147C911.822 14.1265 912.315 14.0854 912.808 14.0238C913.301 13.9621 913.753 13.8594 914.164 13.7156L910.312 27.3345C910.271 27.5194 910.209 27.7659 910.127 28.074C910.066 28.3616 910.066 28.6286 910.127 28.8751C910.209 29.1216 910.425 29.2449 910.774 29.2449C911.185 29.2449 911.586 29.0189 911.976 28.567C912.366 28.1151 912.756 27.2935 913.147 26.1021L913.517 24.962H914.102L913.332 27.2113C913.044 28.0329 912.695 28.68 912.284 29.1525C911.894 29.6044 911.483 29.9228 911.052 30.1076C910.62 30.313 910.199 30.4157 909.788 30.4157C908.987 30.4157 908.422 30.1487 908.094 29.6146C907.827 29.1422 907.755 28.5978 907.878 27.9816C908.001 27.3448 908.145 26.708 908.309 26.0713L911.329 14.147ZM918.768 27.3654C918.604 27.9611 918.552 28.4335 918.614 28.7827C918.676 29.1114 918.902 29.2757 919.292 29.2757C919.703 29.2757 920.083 29.0497 920.432 28.5978C920.802 28.1254 921.192 27.3037 921.603 26.1329L922.003 24.9928H922.589L921.818 27.2421C921.551 28.0227 921.223 28.6492 920.832 29.1216C920.463 29.5735 920.052 29.9022 919.6 30.1076C919.148 30.313 918.655 30.4157 918.121 30.4157C917.443 30.4157 916.94 30.2822 916.611 30.0152C916.303 29.7687 916.108 29.4298 916.026 28.9984C915.964 28.567 915.974 28.1048 916.057 27.6119C916.159 27.0983 916.283 26.5951 916.426 26.1021L921.449 9.43277C921.654 8.73436 921.634 8.22083 921.387 7.89217C921.141 7.56351 920.514 7.39918 919.507 7.39918L919.723 6.75213C920.853 6.73158 921.849 6.61861 922.712 6.41319C923.575 6.18724 924.407 5.87912 925.208 5.48883L918.768 27.3654ZM937.015 21.2338L937.169 20.6175H938.556C940.076 20.6175 941.36 20.4121 942.407 20.0013C943.455 19.5699 944.297 18.9742 944.934 18.2142C945.571 17.4542 946.033 16.5812 946.32 15.5952C946.608 14.5886 946.752 13.5102 946.752 12.3599C946.752 11.148 946.444 10.2544 945.827 9.67927C945.232 9.08357 944.235 8.78572 942.839 8.78572C942.243 8.78572 941.76 8.86788 941.391 9.03221C941.041 9.176 940.754 9.44304 940.528 9.83333C940.322 10.2031 940.127 10.7371 939.942 11.4355L935.875 26.7183C935.711 27.3551 935.618 27.8686 935.598 28.2589C935.577 28.6286 935.711 28.906 935.998 29.0908C936.307 29.2552 936.871 29.3476 937.693 29.3681L937.57 29.9844C937.097 29.9433 936.522 29.9228 935.844 29.9228C935.166 29.9022 934.468 29.8919 933.749 29.8919C932.948 29.8919 932.188 29.9022 931.469 29.9228C930.75 29.9228 930.175 29.9433 929.744 29.9844L929.867 29.3681C930.565 29.3271 931.11 29.2449 931.5 29.1216C931.89 28.9984 932.198 28.7519 932.424 28.3822C932.65 28.0124 932.856 27.4578 933.04 26.7183L937.108 11.4355C937.293 10.7782 937.375 10.2647 937.354 9.89495C937.354 9.50467 937.2 9.22736 936.892 9.06303C936.584 8.87815 936.05 8.78572 935.29 8.78572L935.444 8.16948C935.855 8.19002 936.42 8.21056 937.138 8.2311C937.857 8.25164 938.556 8.26191 939.234 8.26191C939.973 8.26191 940.713 8.25164 941.452 8.2311C942.212 8.21056 942.972 8.20029 943.732 8.20029C945.807 8.20029 947.348 8.63166 948.354 9.49439C949.361 10.3366 949.864 11.4561 949.864 12.8529C949.864 14.4551 949.371 15.893 948.385 17.1666C947.419 18.4196 946.064 19.4159 944.318 20.1553C942.572 20.8743 940.548 21.2338 938.248 21.2338H937.015ZM952.633 29.9844H949.952L953.65 16.766C953.855 16.0676 953.917 15.5746 953.834 15.2871C953.773 14.9995 953.567 14.8557 953.218 14.8557C952.766 14.8557 952.356 15.0919 951.986 15.5644C951.616 16.0368 951.226 16.8482 950.815 17.9985L950.414 19.1386H949.829L950.599 16.8893C950.907 16.0265 951.267 15.3692 951.678 14.9173C952.109 14.4654 952.551 14.1573 953.003 13.9929C953.475 13.8081 953.917 13.7156 954.327 13.7156C954.944 13.7156 955.375 13.8492 955.622 14.1162C955.889 14.3832 956.032 14.7324 956.053 15.1638C956.094 15.5952 956.063 16.0676 955.961 16.5812C955.878 17.0741 955.776 17.5569 955.652 18.0293L952.633 29.9844ZM960.552 14.4859C960.079 14.4859 959.586 14.7119 959.073 15.1638C958.58 15.5952 958.066 16.232 957.532 17.0741C957.018 17.8958 956.495 18.8921 955.961 20.0629C955.447 21.2132 954.933 22.4971 954.42 23.9144C953.927 25.3318 953.444 26.8621 952.972 28.5054L953.742 24.5615C954.42 22.5484 955.046 20.8538 955.622 19.4775C956.217 18.1012 956.803 16.992 957.378 16.1498C957.953 15.2871 958.538 14.6708 959.134 14.3011C959.75 13.9108 960.397 13.7156 961.075 13.7156C961.65 13.7156 962.092 13.88 962.4 14.2086C962.729 14.5373 962.893 14.9584 962.893 15.4719C962.893 15.8827 962.791 16.2628 962.585 16.612C962.38 16.9406 962.113 17.2077 961.784 17.4131C961.476 17.598 961.127 17.6904 960.736 17.6904C960.387 17.6904 960.089 17.598 959.843 17.4131C959.617 17.2077 959.504 16.9304 959.504 16.5812C959.504 16.2525 959.566 15.9649 959.689 15.7184C959.812 15.4514 959.976 15.2254 960.182 15.0406C960.387 14.8557 960.623 14.7119 960.89 14.6092C960.849 14.5681 960.798 14.5373 960.736 14.5167C960.695 14.4962 960.634 14.4859 960.552 14.4859ZM964.01 22.9901C965.16 22.5998 966.198 22.2198 967.122 21.85C968.067 21.4597 968.817 21.0489 969.371 20.6175C970.111 20.0218 970.696 19.3029 971.128 18.4607C971.559 17.6185 971.775 16.6941 971.775 15.6876C971.775 15.0919 971.734 14.7119 971.652 14.5476C971.569 14.3832 971.446 14.3011 971.282 14.3011C970.768 14.3011 970.214 14.527 969.618 14.9789C969.022 15.4308 968.437 16.0573 967.862 16.8585C967.286 17.639 966.752 18.5326 966.259 19.5391C965.787 20.5456 965.407 21.6241 965.119 22.7744C964.832 23.9041 964.688 25.0339 964.688 26.1637C964.688 27.2113 964.883 27.9713 965.273 28.4438C965.664 28.8957 966.177 29.1216 966.814 29.1216C967.554 29.1216 968.334 28.8957 969.156 28.4438C969.977 27.9919 970.779 27.1908 971.559 26.0404L972.052 26.2869C971.662 26.9648 971.148 27.6221 970.511 28.2589C969.875 28.8957 969.156 29.4195 968.355 29.8303C967.574 30.2206 966.742 30.4157 965.859 30.4157C965.037 30.4157 964.318 30.2514 963.702 29.9228C963.086 29.5941 962.613 29.1114 962.285 28.4746C961.956 27.8173 961.792 27.0162 961.792 26.0713C961.792 25.188 961.956 24.202 962.285 23.1133C962.613 22.0041 963.076 20.9051 963.671 19.8164C964.287 18.7072 965.017 17.6904 965.859 16.766C966.701 15.8417 967.636 15.1022 968.663 14.5476C969.69 13.9929 970.789 13.7156 971.96 13.7156C972.596 13.7156 973.13 13.8902 973.562 14.2394C974.014 14.5681 974.24 15.0714 974.24 15.7492C974.24 16.5709 973.993 17.3412 973.5 18.0601C973.028 18.7585 972.391 19.4056 971.59 20.0013C970.809 20.5764 969.957 21.09 969.033 21.5419C968.108 21.9938 967.204 22.3841 966.321 22.7127C965.438 23.0414 964.657 23.3084 963.979 23.5139L964.01 22.9901ZM984.584 14.3319C983.803 14.3319 983.023 14.6503 982.242 15.2871C981.482 15.9238 980.784 16.7968 980.147 17.9061C979.51 19.0153 978.996 20.2786 978.606 21.6959C978.236 23.1133 978.052 24.6025 978.052 26.1637C978.052 27.2113 978.247 27.9713 978.637 28.4438C979.048 28.8957 979.572 29.1216 980.208 29.1216C980.948 29.1216 981.708 28.8957 982.488 28.4438C983.269 27.9919 984.05 27.1908 984.83 26.0404L985.446 26.2869C985.056 26.9648 984.543 27.6221 983.906 28.2589C983.269 28.8957 982.55 29.4195 981.749 29.8303C980.968 30.2206 980.136 30.4157 979.253 30.4157C978.021 30.4157 977.035 30.0357 976.295 29.2757C975.556 28.5157 975.186 27.3859 975.186 25.8864C975.186 24.9415 975.32 23.9247 975.587 22.836C975.874 21.7268 976.275 20.6381 976.788 19.5699C977.322 18.4812 977.969 17.5055 978.729 16.6428C979.489 15.7595 980.352 15.0508 981.318 14.5167C982.283 13.9827 983.341 13.7156 984.491 13.7156C985.395 13.7156 986.176 13.9519 986.833 14.4243C987.49 14.8762 987.819 15.513 987.819 16.3347C987.819 16.7249 987.726 17.1152 987.542 17.5055C987.377 17.8753 987.131 18.1834 986.802 18.4299C986.473 18.6764 986.083 18.7996 985.631 18.7996C985.2 18.7996 984.882 18.6866 984.676 18.4607C984.471 18.2142 984.368 17.9266 984.368 17.598C984.368 17.0023 984.604 16.499 985.077 16.0882C985.549 15.6568 986.083 15.3898 986.679 15.2871C986.473 14.9995 986.206 14.7735 985.878 14.6092C985.549 14.4243 985.118 14.3319 984.584 14.3319ZM993.755 8.53922C993.857 8.00515 994.124 7.54297 994.556 7.15268C995.008 6.7624 995.49 6.56725 996.004 6.56725C996.538 6.56725 996.949 6.7624 997.236 7.15268C997.544 7.54297 997.647 8.00515 997.544 8.53922C997.442 9.0733 997.164 9.53548 996.713 9.92576C996.281 10.316 995.798 10.5112 995.264 10.5112C994.751 10.5112 994.34 10.316 994.032 9.92576C993.744 9.53548 993.652 9.0733 993.755 8.53922ZM992.799 16.766C993.231 15.4925 993.087 14.8557 992.368 14.8557C991.896 14.8557 991.474 15.1124 991.105 15.626C990.735 16.1395 990.345 16.9304 989.934 17.9985L989.503 19.1386H988.917L989.718 16.8893C990.026 16.0265 990.396 15.3692 990.827 14.9173C991.259 14.4654 991.711 14.1573 992.183 13.9929C992.676 13.8081 993.128 13.7156 993.539 13.7156C994.196 13.7156 994.679 13.8492 994.987 14.1162C995.295 14.3832 995.48 14.7324 995.542 15.1638C995.603 15.5952 995.583 16.0676 995.48 16.5812C995.377 17.0741 995.244 17.5569 995.079 18.0293L991.783 27.3654C991.577 27.9611 991.505 28.4335 991.567 28.7827C991.649 29.1114 991.885 29.2757 992.276 29.2757C992.686 29.2757 993.077 29.0497 993.446 28.5978C993.816 28.1459 994.227 27.3243 994.679 26.1329L995.11 24.9928H995.696L994.895 27.2421C994.607 28.0432 994.258 28.68 993.847 29.1525C993.436 29.6044 992.995 29.9228 992.522 30.1076C992.05 30.313 991.577 30.4157 991.105 30.4157C990.221 30.4157 989.626 30.2103 989.318 29.7995C989.01 29.3887 988.897 28.8546 988.979 28.1973C989.061 27.54 989.235 26.8416 989.503 26.1021L992.799 16.766ZM999.047 29.5222C999.211 29.6044 999.386 29.6763 999.571 29.7379C999.776 29.779 1000.07 29.7995 1000.46 29.7995C1001.37 29.7995 1002.11 29.5325 1002.68 28.9984C1003.28 28.4438 1003.58 27.6529 1003.58 26.6259C1003.58 25.9891 1003.45 25.3626 1003.21 24.7463C1002.98 24.1096 1002.57 23.3803 1001.97 22.5587C1001.5 21.9014 1001.05 21.2338 1000.62 20.5559C1000.19 19.8575 999.971 19.0358 999.971 18.0909C999.971 17.2077 1000.19 16.4476 1000.62 15.8109C1001.05 15.1535 1001.62 14.64 1002.34 14.2703C1003.08 13.9005 1003.88 13.7156 1004.75 13.7156C1005.34 13.7156 1005.93 13.7875 1006.5 13.9313C1007.08 14.0751 1007.55 14.3421 1007.92 14.7324C1008.31 15.1022 1008.51 15.6568 1008.51 16.3963C1008.51 16.5812 1008.45 16.8071 1008.35 17.0741C1008.27 17.3206 1008.13 17.5363 1007.92 17.7212C1007.72 17.9061 1007.44 17.9985 1007.09 17.9985C1006.76 17.9985 1006.47 17.8855 1006.23 17.6596C1005.98 17.4131 1005.86 17.0947 1005.86 16.7044C1005.86 16.3347 1005.93 15.9855 1006.07 15.6568C1006.24 15.3076 1006.45 14.9687 1006.72 14.64C1006.33 14.3935 1005.82 14.2703 1005.18 14.2703C1004.42 14.2703 1003.78 14.527 1003.27 15.0406C1002.75 15.5541 1002.5 16.273 1002.5 17.1974C1002.5 17.6698 1002.57 18.0909 1002.71 18.4607C1002.86 18.8099 1003.06 19.1796 1003.33 19.5699C1003.62 19.9602 1003.96 20.4532 1004.35 21.0489C1004.86 21.8295 1005.29 22.5792 1005.64 23.2982C1005.99 24.0171 1006.16 24.7771 1006.16 25.5783C1006.16 26.5232 1005.92 27.3654 1005.42 28.1048C1004.95 28.8238 1004.32 29.3887 1003.51 29.7995C1002.71 30.2103 1001.83 30.4157 1000.86 30.4157C1000.17 30.4157 999.499 30.313 998.862 30.1076C998.225 29.9022 997.701 29.5838 997.29 29.1525C996.9 28.7005 996.705 28.1048 996.705 27.3654C996.705 27.0778 996.797 26.7799 996.982 26.4718C997.147 26.1431 997.455 25.9788 997.907 25.9788C998.4 25.9788 998.749 26.1842 998.954 26.5951C999.16 26.9853 999.262 27.427 999.262 27.92C999.262 28.2486 999.232 28.5465 999.17 28.8135C999.129 29.06 999.088 29.2962 999.047 29.5222ZM1014.79 8.53922C1014.89 8.00515 1015.16 7.54297 1015.59 7.15268C1016.04 6.7624 1016.52 6.56725 1017.04 6.56725C1017.57 6.56725 1017.98 6.7624 1018.27 7.15268C1018.58 7.54297 1018.68 8.00515 1018.58 8.53922C1018.47 9.0733 1018.2 9.53548 1017.75 9.92576C1017.31 10.316 1016.83 10.5112 1016.3 10.5112C1015.78 10.5112 1015.37 10.316 1015.06 9.92576C1014.78 9.53548 1014.68 9.0733 1014.79 8.53922ZM1013.83 16.766C1014.26 15.4925 1014.12 14.8557 1013.4 14.8557C1012.93 14.8557 1012.51 15.1124 1012.14 15.626C1011.77 16.1395 1011.38 16.9304 1010.97 17.9985L1010.54 19.1386H1009.95L1010.75 16.8893C1011.06 16.0265 1011.43 15.3692 1011.86 14.9173C1012.29 14.4654 1012.74 14.1573 1013.22 13.9929C1013.71 13.8081 1014.16 13.7156 1014.57 13.7156C1015.23 13.7156 1015.71 13.8492 1016.02 14.1162C1016.33 14.3832 1016.51 14.7324 1016.57 15.1638C1016.64 15.5952 1016.62 16.0676 1016.51 16.5812C1016.41 17.0741 1016.28 17.5569 1016.11 18.0293L1012.82 27.3654C1012.61 27.9611 1012.54 28.4335 1012.6 28.7827C1012.68 29.1114 1012.92 29.2757 1013.31 29.2757C1013.72 29.2757 1014.11 29.0497 1014.48 28.5978C1014.85 28.1459 1015.26 27.3243 1015.71 26.1329L1016.14 24.9928H1016.73L1015.93 27.2421C1015.64 28.0432 1015.29 28.68 1014.88 29.1525C1014.47 29.6044 1014.03 29.9228 1013.55 30.1076C1013.08 30.313 1012.61 30.4157 1012.14 30.4157C1011.25 30.4157 1010.66 30.2103 1010.35 29.7995C1010.04 29.3887 1009.93 28.8546 1010.01 28.1973C1010.09 27.54 1010.27 26.8416 1010.54 26.1021L1013.83 16.766ZM1027.63 14.3319C1026.97 14.3319 1026.33 14.5989 1025.72 15.133C1025.12 15.6465 1024.57 16.3552 1024.05 17.259C1023.56 18.1423 1023.12 19.1386 1022.73 20.2478C1022.36 21.357 1022.07 22.5073 1021.87 23.6987C1021.66 24.8901 1021.56 26.0302 1021.56 27.1189C1021.56 28.0432 1021.7 28.7211 1021.99 29.1525C1022.3 29.5838 1022.74 29.7995 1023.31 29.7995C1023.97 29.7995 1024.6 29.5427 1025.19 29.0292C1025.81 28.4951 1026.38 27.7865 1026.89 26.9032C1027.4 25.9994 1027.84 24.9928 1028.21 23.8836C1028.58 22.7744 1028.87 21.6343 1029.08 20.4635C1029.28 19.2721 1029.38 18.1218 1029.38 17.0125C1029.38 16.0676 1029.24 15.3898 1028.95 14.9789C1028.67 14.5476 1028.22 14.3319 1027.63 14.3319ZM1018.91 25.5783C1018.91 24.6744 1019.03 23.6885 1019.28 22.6203C1019.52 21.5522 1019.89 20.4943 1020.39 19.4467C1020.88 18.3991 1021.48 17.4439 1022.17 16.5812C1022.89 15.7184 1023.73 15.0303 1024.67 14.5167C1025.62 13.9827 1026.66 13.7156 1027.81 13.7156C1029.09 13.7156 1030.1 14.1162 1030.86 14.9173C1031.64 15.6979 1032.03 16.9098 1032.03 18.5531C1032.03 19.4569 1031.91 20.4429 1031.66 21.5111C1031.42 22.5792 1031.05 23.6371 1030.56 24.6847C1030.06 25.7323 1029.46 26.6875 1028.74 27.5502C1028.04 28.413 1027.22 29.1114 1026.27 29.6454C1025.33 30.159 1024.28 30.4157 1023.13 30.4157C1021.86 30.4157 1020.83 30.0152 1020.05 29.2141C1019.29 28.413 1018.91 27.201 1018.91 25.5783ZM1037.07 29.9844H1034.38L1038.08 16.766C1038.16 16.5195 1038.23 16.2525 1038.27 15.9649C1038.33 15.6568 1038.32 15.4 1038.24 15.1946C1038.15 14.9687 1037.95 14.8557 1037.62 14.8557C1037.17 14.8557 1036.77 15.0816 1036.42 15.5335C1036.07 15.9649 1035.68 16.7866 1035.25 17.9985L1034.85 19.1386H1034.26L1035.03 16.8893C1035.48 15.5952 1036.04 14.7427 1036.7 14.3319C1037.37 13.9211 1038.04 13.7156 1038.7 13.7156C1039.31 13.7156 1039.76 13.8492 1040.02 14.1162C1040.31 14.3832 1040.47 14.7324 1040.49 15.1638C1040.53 15.5746 1040.5 16.0368 1040.39 16.5503C1040.31 17.0433 1040.21 17.5363 1040.09 18.0293L1037.07 29.9844ZM1038.48 23.5755C1039.2 21.7268 1039.9 20.1759 1040.58 18.9229C1041.26 17.6698 1041.92 16.6633 1042.58 15.9033C1043.24 15.1227 1043.91 14.5681 1044.58 14.2394C1045.28 13.8902 1046 13.7156 1046.74 13.7156C1047.71 13.7156 1048.36 13.9519 1048.71 14.4243C1049.08 14.8762 1049.25 15.4617 1049.21 16.1806C1049.16 16.879 1049.02 17.6082 1048.77 18.3683L1045.79 27.3654C1045.6 27.92 1045.52 28.3822 1045.54 28.7519C1045.58 29.1011 1045.83 29.2757 1046.28 29.2757C1046.67 29.2757 1047.05 29.06 1047.42 28.6286C1047.81 28.1973 1048.22 27.3654 1048.65 26.1329L1049.05 24.9928H1049.64L1048.87 27.2421C1048.58 28.1048 1048.22 28.7622 1047.79 29.2141C1047.38 29.666 1046.94 29.9741 1046.46 30.1384C1046.01 30.3233 1045.57 30.4157 1045.14 30.4157C1044.65 30.4157 1044.23 30.3336 1043.91 30.1692C1043.6 30.0049 1043.36 29.7892 1043.2 29.5222C1042.97 29.1525 1042.9 28.6697 1042.98 28.074C1043.06 27.4783 1043.23 26.821 1043.47 26.1021L1046.4 17.2898C1046.5 17.0023 1046.59 16.6633 1046.65 16.273C1046.73 15.8622 1046.72 15.5027 1046.62 15.1946C1046.51 14.866 1046.22 14.7016 1045.72 14.7016C1045.23 14.7016 1044.71 14.9173 1044.15 15.3487C1043.6 15.78 1043.02 16.3963 1042.43 17.1974C1041.83 17.978 1041.25 18.9229 1040.67 20.0321C1040.1 21.1208 1039.54 22.3327 1039.01 23.6679C1038.49 24.9826 1038.02 26.3896 1037.59 27.8892L1038.48 23.5755ZM1064.24 30.2001C1063.4 30.2001 1062.67 30.046 1062.05 29.7379C1061.44 29.4092 1060.97 28.9573 1060.64 28.3822C1060.33 27.807 1060.17 27.1394 1060.17 26.3794C1060.17 25.4756 1060.38 24.7361 1060.79 24.1609C1061.22 23.5857 1061.77 23.1236 1062.42 22.7744C1063.08 22.4252 1063.77 22.1376 1064.49 21.9116C1065.23 21.6651 1065.93 21.4392 1066.58 21.2338C1067.24 21.0078 1067.78 20.751 1068.19 20.4635C1068.62 20.1759 1068.83 19.7959 1068.83 19.3234V17.4131C1068.83 16.5503 1068.7 15.893 1068.43 15.4411C1068.19 14.9892 1067.85 14.6914 1067.42 14.5476C1066.98 14.3832 1066.5 14.3011 1065.97 14.3011C1065.45 14.3011 1064.9 14.373 1064.3 14.5167C1063.73 14.6605 1063.27 14.9584 1062.92 15.4103C1063.31 15.4925 1063.65 15.6979 1063.93 16.0265C1064.22 16.3552 1064.37 16.7763 1064.37 17.2898C1064.37 17.8034 1064.2 18.2142 1063.87 18.5223C1063.54 18.8099 1063.12 18.9537 1062.61 18.9537C1062.01 18.9537 1061.57 18.7688 1061.28 18.3991C1061.02 18.0088 1060.88 17.5774 1060.88 17.105C1060.88 16.5709 1061.02 16.1395 1061.28 15.8109C1061.55 15.4822 1061.89 15.1741 1062.3 14.8865C1062.77 14.5578 1063.38 14.2805 1064.12 14.0546C1064.88 13.8081 1065.73 13.6848 1066.68 13.6848C1067.52 13.6848 1068.24 13.7875 1068.83 13.9929C1069.43 14.1778 1069.92 14.4551 1070.31 14.8249C1070.85 15.3179 1071.2 15.9238 1071.36 16.6428C1071.52 17.3412 1071.61 18.1834 1071.61 19.1694V27.7351C1071.61 28.2486 1071.68 28.6184 1071.82 28.8443C1071.99 29.0703 1072.23 29.1833 1072.56 29.1833C1072.79 29.1833 1073 29.1319 1073.21 29.0292C1073.41 28.9265 1073.66 28.7622 1073.95 28.5362L1074.29 29.06C1073.86 29.3887 1073.44 29.666 1073.05 29.8919C1072.66 30.0974 1072.14 30.2001 1071.48 30.2001C1070.89 30.2001 1070.39 30.0974 1070 29.8919C1069.61 29.6865 1069.32 29.3887 1069.11 28.9984C1068.93 28.5876 1068.83 28.074 1068.83 27.4578C1068.28 28.3822 1067.61 29.0703 1066.83 29.5222C1066.07 29.9741 1065.21 30.2001 1064.24 30.2001ZM1065.35 28.9676C1066.03 28.9676 1066.66 28.7724 1067.23 28.3822C1067.83 27.9919 1068.36 27.4064 1068.83 26.6259V20.5867C1068.59 20.9359 1068.23 21.2338 1067.75 21.4803C1067.28 21.7062 1066.77 21.9424 1066.21 22.1889C1065.66 22.4149 1065.13 22.6922 1064.61 23.0209C1064.12 23.329 1063.71 23.7398 1063.38 24.2533C1063.05 24.7669 1062.89 25.4345 1062.89 26.2561C1062.89 27.0778 1063.1 27.7351 1063.53 28.2281C1063.99 28.7211 1064.59 28.9676 1065.35 28.9676ZM1085.57 13.6848C1086.35 13.6848 1086.99 13.7875 1087.51 13.9929C1088.04 14.1984 1088.48 14.4859 1088.83 14.8557C1089.22 15.2665 1089.5 15.78 1089.66 16.3963C1089.83 17.0125 1089.91 17.8444 1089.91 18.8921V27.1189C1089.91 27.9816 1090.08 28.567 1090.43 28.8751C1090.8 29.1833 1091.41 29.3373 1092.25 29.3373V29.9844C1091.9 29.9638 1091.37 29.9433 1090.65 29.9228C1089.93 29.8817 1089.23 29.8611 1088.55 29.8611C1087.88 29.8611 1087.21 29.8817 1086.55 29.9228C1085.91 29.9433 1085.43 29.9638 1085.1 29.9844V29.3373C1085.84 29.3373 1086.37 29.1833 1086.67 28.8751C1086.98 28.567 1087.14 27.9816 1087.14 27.1189V18.2142C1087.14 17.5774 1087.09 16.992 1086.98 16.4579C1086.88 15.9238 1086.64 15.4925 1086.27 15.1638C1085.92 14.8351 1085.38 14.6708 1084.64 14.6708C1083.78 14.6708 1083.02 14.9173 1082.36 15.4103C1081.72 15.9033 1081.22 16.5812 1080.85 17.4439C1080.5 18.2861 1080.33 19.231 1080.33 20.2786V27.1189C1080.33 27.9816 1080.48 28.567 1080.79 28.8751C1081.1 29.1833 1081.62 29.3373 1082.36 29.3373V29.9844C1082.03 29.9638 1081.54 29.9433 1080.88 29.9228C1080.25 29.8817 1079.59 29.8611 1078.91 29.8611C1078.23 29.8611 1077.53 29.8817 1076.81 29.9228C1076.1 29.9433 1075.56 29.9638 1075.21 29.9844V29.3373C1076.05 29.3373 1076.65 29.1833 1077 28.8751C1077.37 28.567 1077.55 27.9816 1077.55 27.1189V17.4747C1077.55 16.5503 1077.39 15.8725 1077.06 15.4411C1076.73 14.9892 1076.12 14.7632 1075.21 14.7632V14.1162C1075.87 14.1778 1076.51 14.2086 1077.12 14.2086C1077.72 14.2086 1078.28 14.1778 1078.82 14.1162C1079.37 14.034 1079.88 13.9211 1080.33 13.7773V17.4131C1080.86 16.0163 1081.6 15.0508 1082.55 14.5167C1083.51 13.9621 1084.52 13.6848 1085.57 13.6848ZM1107.62 5.82777V26.6259C1107.62 27.5502 1107.78 28.2384 1108.11 28.6903C1108.46 29.1216 1109.08 29.3373 1109.96 29.3373V29.9844C1109.32 29.9228 1108.69 29.8919 1108.05 29.8919C1107.45 29.8919 1106.88 29.9228 1106.32 29.9844C1105.79 30.046 1105.3 30.159 1104.84 30.3233V9.52521C1104.84 8.60085 1104.68 7.92298 1104.35 7.49161C1104.02 7.0397 1103.41 6.81375 1102.5 6.81375V6.1667C1103.16 6.22832 1103.8 6.25913 1104.41 6.25913C1105.01 6.25913 1105.57 6.22832 1106.11 6.1667C1106.66 6.08453 1107.17 5.97156 1107.62 5.82777ZM1101.15 13.6848C1102.05 13.6848 1102.89 13.9005 1103.67 14.3319C1104.47 14.7632 1105.01 15.5027 1105.28 16.5503L1104.87 16.8585C1104.59 15.9957 1104.14 15.3692 1103.52 14.9789C1102.92 14.5886 1102.21 14.3935 1101.39 14.3935C1100.18 14.3935 1099.16 15.02 1098.34 16.273C1097.54 17.5261 1097.15 19.4569 1097.17 22.0657C1097.17 23.7295 1097.33 25.1161 1097.63 26.2253C1097.96 27.314 1098.43 28.1357 1099.05 28.6903C1099.69 29.2243 1100.46 29.4914 1101.36 29.4914C1102.22 29.4914 1103.01 29.1216 1103.7 28.3822C1104.4 27.6427 1104.82 26.554 1104.97 25.1161L1105.34 25.5474C1105.17 27.1086 1104.67 28.3103 1103.83 29.1525C1103.01 29.9946 1101.89 30.4157 1100.47 30.4157C1099.19 30.4157 1098.08 30.1076 1097.11 29.4914C1096.17 28.8751 1095.44 27.9508 1094.92 26.7183C1094.43 25.4858 1094.18 23.935 1094.18 22.0657C1094.18 20.1964 1094.5 18.6456 1095.14 17.4131C1095.8 16.1601 1096.65 15.2254 1097.7 14.6092C1098.76 13.9929 1099.91 13.6848 1101.15 13.6848ZM1140.22 8.16948C1139.91 8.97059 1139.59 9.9463 1139.26 11.0966C1138.93 12.2264 1138.6 13.6129 1138.25 15.2562H1137.57C1137.73 14.1881 1137.78 13.2945 1137.72 12.5756C1137.68 11.8361 1137.53 11.2096 1137.26 10.6961C1136.87 9.91549 1136.31 9.31979 1135.57 8.90897C1134.85 8.49814 1134.07 8.29273 1133.22 8.29273C1132.16 8.29273 1131.12 8.61112 1130.11 9.2479C1129.11 9.86414 1128.17 10.7063 1127.31 11.7745C1126.45 12.8426 1125.69 14.0546 1125.03 15.4103C1124.37 16.7455 1123.86 18.1423 1123.49 19.6007C1123.12 21.0386 1122.93 22.4457 1122.93 23.822C1122.93 25.835 1123.32 27.3448 1124.1 28.3513C1124.9 29.3579 1125.98 29.8611 1127.34 29.8611C1128.2 29.8611 1129.14 29.6557 1130.14 29.2449C1131.17 28.8341 1132.06 28.2384 1132.82 27.4578C1133.38 26.9032 1133.85 26.2561 1134.24 25.5166C1134.65 24.7566 1135.1 23.7809 1135.6 22.5895H1136.27C1135.76 24.4588 1135.36 25.9685 1135.07 27.1189C1134.81 28.2486 1134.6 29.2038 1134.46 29.9844H1133.78C1133.84 29.553 1133.87 29.2038 1133.87 28.9368C1133.87 28.4643 1133.79 28.2075 1133.62 28.1665C1133.46 28.1048 1133.2 28.187 1132.85 28.413C1132.3 28.7827 1131.75 29.1216 1131.19 29.4298C1130.64 29.7173 1130.03 29.9536 1129.37 30.1384C1128.72 30.3233 1127.93 30.4157 1127.03 30.4157C1124.77 30.4157 1123 29.8098 1121.73 28.5978C1120.48 27.3654 1119.85 25.5577 1119.85 23.1749C1119.85 21.7781 1120.07 20.3608 1120.5 18.9229C1120.93 17.4644 1121.55 16.0676 1122.35 14.7324C1123.15 13.3972 1124.1 12.2059 1125.21 11.1582C1126.32 10.1106 1127.55 9.27871 1128.91 8.66247C1130.27 8.04623 1131.72 7.73811 1133.29 7.73811C1134.17 7.73811 1134.89 7.84082 1135.44 8.04623C1136 8.2311 1136.46 8.4776 1136.83 8.78572C1137.22 9.0733 1137.57 9.39169 1137.88 9.74089C1138.16 10.0285 1138.43 10.0696 1138.68 9.86414C1138.94 9.63818 1139.24 9.0733 1139.57 8.16948H1140.22ZM1148.29 14.3319C1147.63 14.3319 1146.99 14.5989 1146.38 15.133C1145.78 15.6465 1145.23 16.3552 1144.71 17.259C1144.22 18.1423 1143.78 19.1386 1143.39 20.2478C1143.02 21.357 1142.73 22.5073 1142.53 23.6987C1142.32 24.8901 1142.22 26.0302 1142.22 27.1189C1142.22 28.0432 1142.36 28.7211 1142.65 29.1525C1142.96 29.5838 1143.4 29.7995 1143.98 29.7995C1144.63 29.7995 1145.26 29.5427 1145.85 29.0292C1146.47 28.4951 1147.04 27.7865 1147.55 26.9032C1148.06 25.9994 1148.5 24.9928 1148.87 23.8836C1149.24 22.7744 1149.53 21.6343 1149.74 20.4635C1149.94 19.2721 1150.05 18.1218 1150.05 17.0125C1150.05 16.0676 1149.9 15.3898 1149.61 14.9789C1149.33 14.5476 1148.88 14.3319 1148.29 14.3319ZM1139.57 25.5783C1139.57 24.6744 1139.69 23.6885 1139.94 22.6203C1140.19 21.5522 1140.55 20.4943 1141.05 19.4467C1141.54 18.3991 1142.14 17.4439 1142.84 16.5812C1143.55 15.7184 1144.39 15.0303 1145.33 14.5167C1146.28 13.9827 1147.32 13.7156 1148.47 13.7156C1149.75 13.7156 1150.76 14.1162 1151.52 14.9173C1152.3 15.6979 1152.69 16.9098 1152.69 18.5531C1152.69 19.4569 1152.57 20.4429 1152.33 21.5111C1152.08 22.5792 1151.71 23.6371 1151.22 24.6847C1150.72 25.7323 1150.12 26.6875 1149.4 27.5502C1148.7 28.413 1147.88 29.1114 1146.93 29.6454C1145.99 30.159 1144.94 30.4157 1143.79 30.4157C1142.52 30.4157 1141.49 30.0152 1140.71 29.2141C1139.95 28.413 1139.57 27.201 1139.57 25.5783ZM1157.7 29.9844H1155.01L1158.71 16.766C1158.77 16.5812 1158.82 16.3449 1158.87 16.0574C1158.93 15.7492 1158.93 15.4719 1158.87 15.2254C1158.8 14.9789 1158.61 14.8557 1158.28 14.8557C1157.83 14.8557 1157.42 15.0919 1157.05 15.5644C1156.68 16.0368 1156.29 16.8482 1155.88 17.9985L1155.48 19.1386H1154.89L1155.66 16.8893C1155.97 16.0265 1156.33 15.3692 1156.74 14.9173C1157.17 14.4654 1157.61 14.1573 1158.06 13.9929C1158.54 13.8081 1158.98 13.7156 1159.39 13.7156C1160.01 13.7156 1160.45 13.8594 1160.71 14.147C1160.98 14.414 1161.13 14.7735 1161.15 15.2254C1161.19 15.6568 1161.16 16.119 1161.05 16.612C1160.95 17.105 1160.84 17.5774 1160.71 18.0293L1157.7 29.9844ZM1166.41 17.2898C1166.56 16.8585 1166.65 16.4476 1166.69 16.0574C1166.75 15.6671 1166.72 15.3487 1166.6 15.1022C1166.5 14.8351 1166.25 14.7016 1165.86 14.7016C1165.29 14.7016 1164.65 15.0611 1163.95 15.78C1163.27 16.4784 1162.57 17.4644 1161.85 18.738C1161.16 19.991 1160.48 21.4597 1159.82 23.1441C1159.16 24.808 1158.58 26.5951 1158.06 28.5054L1159.08 23.5755C1160.03 21.1105 1160.91 19.1591 1161.73 17.7212C1162.55 16.2833 1163.37 15.2562 1164.2 14.64C1165.04 14.0238 1165.93 13.7156 1166.88 13.7156C1167.53 13.7156 1168.01 13.8697 1168.29 14.1778C1168.6 14.4654 1168.79 14.8454 1168.85 15.3179C1168.91 15.7903 1168.89 16.2936 1168.79 16.8277C1168.71 17.3617 1168.6 17.8753 1168.48 18.3683L1165.34 29.9844H1162.56L1166.41 17.2898ZM1174.12 17.2898C1174.32 16.653 1174.43 16.0676 1174.43 15.5335C1174.43 14.9789 1174.2 14.7016 1173.75 14.7016C1173.13 14.7016 1172.48 15.0611 1171.81 15.78C1171.13 16.499 1170.43 17.5261 1169.71 18.8612C1168.99 20.1759 1168.27 21.7268 1167.55 23.5139C1166.86 25.2804 1166.18 27.2318 1165.52 29.3681L1166.23 25.4242C1167.03 23.2879 1167.77 21.4803 1168.45 20.0013C1169.13 18.5018 1169.79 17.2898 1170.45 16.3655C1171.11 15.4411 1171.79 14.7735 1172.48 14.3627C1173.18 13.9313 1173.94 13.7156 1174.76 13.7156C1175.63 13.7156 1176.21 13.9621 1176.52 14.4551C1176.83 14.9481 1176.95 15.5541 1176.89 16.273C1176.85 16.9714 1176.72 17.6698 1176.49 18.3683L1173.5 27.3654C1173.3 28.0021 1173.22 28.4849 1173.29 28.8135C1173.35 29.1216 1173.58 29.2757 1173.99 29.2757C1174.38 29.2757 1174.76 29.06 1175.13 28.6286C1175.52 28.1973 1175.94 27.3654 1176.37 26.1329L1176.77 24.9928H1177.35L1176.58 27.2421C1176.3 28.1048 1175.94 28.7622 1175.5 29.2141C1175.09 29.666 1174.65 29.9741 1174.18 30.1384C1173.73 30.3233 1173.29 30.4157 1172.85 30.4157C1172.34 30.4157 1171.93 30.3336 1171.62 30.1692C1171.33 30.0255 1171.11 29.8303 1170.94 29.5838C1170.7 29.1935 1170.62 28.7108 1170.7 28.1357C1170.78 27.54 1170.94 26.8621 1171.19 26.1021L1174.12 17.2898ZM1190.59 14.7016C1190.06 14.7016 1189.45 15.0816 1188.77 15.8417C1188.11 16.5812 1187.44 17.598 1186.74 18.8921C1186.06 20.1656 1185.41 21.6035 1184.8 23.2057C1184.2 24.808 1183.7 26.4718 1183.29 28.1973L1183.84 24.8696C1184.73 22.1787 1185.58 20.0218 1186.4 18.3991C1187.22 16.7558 1188.04 15.5644 1188.86 14.8249C1189.71 14.0854 1190.58 13.7156 1191.48 13.7156C1192.45 13.7156 1193.22 14.0751 1193.79 14.7941C1194.39 15.513 1194.69 16.6017 1194.69 18.0601C1194.69 18.9845 1194.55 20.0013 1194.29 21.1105C1194.04 22.2198 1193.66 23.3187 1193.15 24.4074C1192.65 25.4961 1192.04 26.5026 1191.3 27.427C1190.58 28.3308 1189.75 29.06 1188.8 29.6146C1187.86 30.1487 1186.81 30.4157 1185.66 30.4157C1185.04 30.4157 1184.49 30.2309 1184 29.8611C1183.52 29.4914 1183.21 28.9573 1183.04 28.2589L1183.29 27.6427C1183.57 28.4027 1183.9 28.9368 1184.27 29.2449C1184.66 29.553 1185.12 29.7071 1185.63 29.7071C1186.33 29.7071 1187 29.44 1187.63 28.906C1188.27 28.3513 1188.85 27.6221 1189.39 26.7183C1189.92 25.8145 1190.38 24.8182 1190.77 23.7295C1191.19 22.6203 1191.49 21.5213 1191.7 20.4327C1191.92 19.3234 1192.04 18.3066 1192.04 17.3823C1192.04 16.4784 1191.9 15.8109 1191.64 15.3795C1191.39 14.9276 1191.04 14.7016 1190.59 14.7016ZM1185.97 9.43277C1186.46 9.41223 1186.94 9.37115 1187.42 9.30952C1187.91 9.2479 1188.36 9.14519 1188.77 9.0014L1181.99 32.6958C1181.75 33.5586 1181.87 34.144 1182.36 34.4521C1182.86 34.7602 1183.56 34.9143 1184.49 34.9143L1184.3 35.5613C1183.89 35.5408 1183.31 35.51 1182.55 35.4689C1181.81 35.4484 1181.02 35.4381 1180.18 35.4381C1179.54 35.4381 1178.89 35.4484 1178.23 35.4689C1177.58 35.51 1177.08 35.5408 1176.76 35.5613L1176.94 34.9143C1177.68 34.9143 1178.21 34.7705 1178.54 34.4829C1178.87 34.2159 1179.14 33.7229 1179.34 33.004L1185.97 9.43277ZM1179.56 18.9845C1180.36 18.2039 1181.11 17.4336 1181.81 16.6736C1182.51 15.893 1183.18 14.9687 1183.84 13.9005C1184.5 12.8324 1185.17 11.4869 1185.84 9.86414L1185.94 10.3571C1185.49 11.7539 1184.94 12.9864 1184.3 14.0546C1183.69 15.1022 1183.01 16.0574 1182.27 16.9201C1181.53 17.7623 1180.74 18.5839 1179.9 19.385L1179.56 18.9845ZM1198.99 27.3654C1198.83 27.9611 1198.78 28.4335 1198.84 28.7827C1198.9 29.1114 1199.13 29.2757 1199.52 29.2757C1199.93 29.2757 1200.31 29.0497 1200.66 28.5978C1201.03 28.1254 1201.42 27.3037 1201.83 26.1329L1202.23 24.9928H1202.82L1202.05 27.2421C1201.78 28.0227 1201.45 28.6492 1201.06 29.1216C1200.69 29.5735 1200.28 29.9022 1199.83 30.1076C1199.37 30.313 1198.88 30.4157 1198.35 30.4157C1197.67 30.4157 1197.17 30.2822 1196.84 30.0152C1196.53 29.7687 1196.33 29.4298 1196.25 28.9984C1196.19 28.567 1196.2 28.1048 1196.28 27.6119C1196.39 27.0983 1196.51 26.5951 1196.65 26.1021L1201.68 9.43277C1201.88 8.73436 1201.86 8.22083 1201.61 7.89217C1201.37 7.56351 1200.74 7.39918 1199.73 7.39918L1199.95 6.75213C1201.08 6.73158 1202.08 6.61861 1202.94 6.41319C1203.8 6.18724 1204.63 5.87912 1205.43 5.48883L1198.99 27.3654ZM1206.99 22.9901C1208.14 22.5998 1209.17 22.2198 1210.1 21.85C1211.04 21.4597 1211.79 21.0489 1212.35 20.6175C1213.09 20.0218 1213.67 19.3029 1214.1 18.4607C1214.53 17.6185 1214.75 16.6941 1214.75 15.6876C1214.75 15.0919 1214.71 14.7119 1214.63 14.5476C1214.54 14.3832 1214.42 14.3011 1214.26 14.3011C1213.74 14.3011 1213.19 14.527 1212.59 14.9789C1212 15.4308 1211.41 16.0573 1210.84 16.8585C1210.26 17.639 1209.73 18.5326 1209.23 19.5391C1208.76 20.5456 1208.38 21.6241 1208.09 22.7744C1207.81 23.9041 1207.66 25.0339 1207.66 26.1637C1207.66 27.2113 1207.86 27.9713 1208.25 28.4438C1208.64 28.8957 1209.15 29.1216 1209.79 29.1216C1210.53 29.1216 1211.31 28.8957 1212.13 28.4438C1212.95 27.9919 1213.75 27.1908 1214.53 26.0404L1215.03 26.2869C1214.64 26.9648 1214.12 27.6221 1213.49 28.2589C1212.85 28.8957 1212.13 29.4195 1211.33 29.8303C1210.55 30.2206 1209.72 30.4157 1208.83 30.4157C1208.01 30.4157 1207.29 30.2514 1206.68 29.9228C1206.06 29.5941 1205.59 29.1114 1205.26 28.4746C1204.93 27.8173 1204.77 27.0162 1204.77 26.0713C1204.77 25.188 1204.93 24.202 1205.26 23.1133C1205.59 22.0041 1206.05 20.9051 1206.65 19.8164C1207.26 18.7072 1207.99 17.6904 1208.83 16.766C1209.68 15.8417 1210.61 15.1022 1211.64 14.5476C1212.67 13.9929 1213.76 13.7156 1214.94 13.7156C1215.57 13.7156 1216.11 13.8902 1216.54 14.2394C1216.99 14.5681 1217.22 15.0714 1217.22 15.7492C1217.22 16.5709 1216.97 17.3412 1216.48 18.0601C1216 18.7585 1215.37 19.4056 1214.57 20.0013C1213.78 20.5764 1212.93 21.09 1212.01 21.5419C1211.08 21.9938 1210.18 22.3841 1209.3 22.7127C1208.41 23.0414 1207.63 23.3084 1206.95 23.5139L1206.99 22.9901ZM1229.16 14.147L1229.07 14.7632H1219.49L1219.64 14.147H1229.16ZM1221.34 27.3654C1221.15 28.0432 1221.19 28.5362 1221.46 28.8443C1221.75 29.1319 1222.12 29.2757 1222.57 29.2757C1223.02 29.2757 1223.47 29.0806 1223.92 28.6903C1224.4 28.3 1224.86 27.4681 1225.31 26.1945L1225.74 24.9928H1226.33L1225.68 26.934C1225.23 28.2692 1224.64 29.1833 1223.92 29.6763C1223.22 30.1692 1222.4 30.4157 1221.46 30.4157C1220.62 30.4157 1219.97 30.2411 1219.52 29.8919C1219.09 29.5222 1218.83 29.0087 1218.75 28.3513C1218.66 27.694 1218.75 26.9443 1218.99 26.1021L1223.77 9.46358C1224.26 9.44304 1224.74 9.40196 1225.22 9.34033C1225.71 9.27871 1226.15 9.176 1226.54 9.03221L1221.34 27.3654ZM1230.55 22.9901C1231.7 22.5998 1232.73 22.2198 1233.66 21.85C1234.6 21.4597 1235.35 21.0489 1235.91 20.6175C1236.65 20.0218 1237.23 19.3029 1237.66 18.4607C1238.09 17.6185 1238.31 16.6941 1238.31 15.6876C1238.31 15.0919 1238.27 14.7119 1238.19 14.5476C1238.11 14.3832 1237.98 14.3011 1237.82 14.3011C1237.3 14.3011 1236.75 14.527 1236.15 14.9789C1235.56 15.4308 1234.97 16.0573 1234.4 16.8585C1233.82 17.639 1233.29 18.5326 1232.8 19.5391C1232.32 20.5456 1231.94 21.6241 1231.66 22.7744C1231.37 23.9041 1231.22 25.0339 1231.22 26.1637C1231.22 27.2113 1231.42 27.9713 1231.81 28.4438C1232.2 28.8957 1232.71 29.1216 1233.35 29.1216C1234.09 29.1216 1234.87 28.8957 1235.69 28.4438C1236.51 27.9919 1237.31 27.1908 1238.09 26.0404L1238.59 26.2869C1238.2 26.9648 1237.68 27.6221 1237.05 28.2589C1236.41 28.8957 1235.69 29.4195 1234.89 29.8303C1234.11 30.2206 1233.28 30.4157 1232.39 30.4157C1231.57 30.4157 1230.85 30.2514 1230.24 29.9228C1229.62 29.5941 1229.15 29.1114 1228.82 28.4746C1228.49 27.8173 1228.33 27.0162 1228.33 26.0713C1228.33 25.188 1228.49 24.202 1228.82 23.1133C1229.15 22.0041 1229.61 20.9051 1230.21 19.8164C1230.82 18.7072 1231.55 17.6904 1232.39 16.766C1233.24 15.8417 1234.17 15.1022 1235.2 14.5476C1236.23 13.9929 1237.32 13.7156 1238.5 13.7156C1239.13 13.7156 1239.67 13.8902 1240.1 14.2394C1240.55 14.5681 1240.78 15.0714 1240.78 15.7492C1240.78 16.5709 1240.53 17.3412 1240.04 18.0601C1239.56 18.7585 1238.93 19.4056 1238.13 20.0013C1237.35 20.5764 1236.49 21.09 1235.57 21.5419C1234.64 21.9938 1233.74 22.3841 1232.86 22.7127C1231.97 23.0414 1231.19 23.3084 1230.52 23.5139L1230.55 22.9901ZM1255.22 21.2338L1255.37 20.6175H1256.76C1258.28 20.6175 1259.56 20.4121 1260.61 20.0013C1261.66 19.5699 1262.5 18.9742 1263.13 18.2142C1263.77 17.4542 1264.23 16.5812 1264.52 15.5952C1264.81 14.5886 1264.95 13.5102 1264.95 12.3599C1264.95 11.148 1264.64 10.2544 1264.03 9.67927C1263.43 9.08357 1262.44 8.78572 1261.04 8.78572C1260.44 8.78572 1259.96 8.86788 1259.59 9.03221C1259.24 9.176 1258.95 9.44304 1258.73 9.83333C1258.52 10.2031 1258.33 10.7371 1258.14 11.4355L1254.08 26.7183C1253.91 27.3551 1253.82 27.8686 1253.8 28.2589C1253.78 28.6286 1253.91 28.906 1254.2 29.0908C1254.51 29.2552 1255.07 29.3476 1255.89 29.3681L1255.77 29.9844C1255.3 29.9433 1254.72 29.9228 1254.04 29.9228C1253.37 29.9022 1252.67 29.8919 1251.95 29.8919C1251.15 29.8919 1250.39 29.9022 1249.67 29.9228C1248.95 29.9228 1248.38 29.9433 1247.94 29.9844L1248.07 29.3681C1248.77 29.3271 1249.31 29.2449 1249.7 29.1216C1250.09 28.9984 1250.4 28.7519 1250.62 28.3822C1250.85 28.0124 1251.06 27.4578 1251.24 26.7183L1255.31 11.4355C1255.49 10.7782 1255.57 10.2647 1255.55 9.89495C1255.55 9.50467 1255.4 9.22736 1255.09 9.06303C1254.78 8.87815 1254.25 8.78572 1253.49 8.78572L1253.64 8.16948C1254.05 8.19002 1254.62 8.21056 1255.34 8.2311C1256.06 8.25164 1256.76 8.26191 1257.43 8.26191C1258.17 8.26191 1258.91 8.25164 1259.65 8.2311C1260.41 8.21056 1261.17 8.20029 1261.93 8.20029C1264.01 8.20029 1265.55 8.63166 1266.55 9.49439C1267.56 10.3366 1268.06 11.4561 1268.06 12.8529C1268.06 14.4551 1267.57 15.893 1266.58 17.1666C1265.62 18.4196 1264.26 19.4159 1262.52 20.1553C1260.77 20.8743 1258.75 21.2338 1256.45 21.2338H1255.22ZM1269.39 22.9901C1270.54 22.5998 1271.58 22.2198 1272.5 21.85C1273.45 21.4597 1274.2 21.0489 1274.75 20.6175C1275.49 20.0218 1276.08 19.3029 1276.51 18.4607C1276.94 17.6185 1277.16 16.6941 1277.16 15.6876C1277.16 15.0919 1277.12 14.7119 1277.03 14.5476C1276.95 14.3832 1276.83 14.3011 1276.66 14.3011C1276.15 14.3011 1275.6 14.527 1275 14.9789C1274.4 15.4308 1273.82 16.0573 1273.24 16.8585C1272.67 17.639 1272.13 18.5326 1271.64 19.5391C1271.17 20.5456 1270.79 21.6241 1270.5 22.7744C1270.21 23.9041 1270.07 25.0339 1270.07 26.1637C1270.07 27.2113 1270.26 27.9713 1270.66 28.4438C1271.05 28.8957 1271.56 29.1216 1272.2 29.1216C1272.94 29.1216 1273.72 28.8957 1274.54 28.4438C1275.36 27.9919 1276.16 27.1908 1276.94 26.0404L1277.43 26.2869C1277.04 26.9648 1276.53 27.6221 1275.89 28.2589C1275.26 28.8957 1274.54 29.4195 1273.74 29.8303C1272.96 30.2206 1272.12 30.4157 1271.24 30.4157C1270.42 30.4157 1269.7 30.2514 1269.08 29.9228C1268.47 29.5941 1268 29.1114 1267.67 28.4746C1267.34 27.8173 1267.17 27.0162 1267.17 26.0713C1267.17 25.188 1267.34 24.202 1267.67 23.1133C1268 22.0041 1268.46 20.9051 1269.05 19.8164C1269.67 18.7072 1270.4 17.6904 1271.24 16.766C1272.08 15.8417 1273.02 15.1022 1274.04 14.5476C1275.07 13.9929 1276.17 13.7156 1277.34 13.7156C1277.98 13.7156 1278.51 13.8902 1278.94 14.2394C1279.4 14.5681 1279.62 15.0714 1279.62 15.7492C1279.62 16.5709 1279.38 17.3412 1278.88 18.0601C1278.41 18.7585 1277.77 19.4056 1276.97 20.0013C1276.19 20.5764 1275.34 21.09 1274.41 21.5419C1273.49 21.9938 1272.59 22.3841 1271.7 22.7127C1270.82 23.0414 1270.04 23.3084 1269.36 23.5139L1269.39 22.9901ZM1284.08 29.4298C1284.57 29.4298 1285.14 29.1216 1285.78 28.5054C1286.41 27.8686 1287.06 27.0162 1287.72 25.948C1288.37 24.8799 1288.98 23.6679 1289.53 22.3122C1290.09 20.9565 1290.53 19.5494 1290.86 18.0909L1290.34 21.4186C1289.55 23.596 1288.77 25.3523 1287.99 26.6875C1287.21 28.0021 1286.42 28.9573 1285.62 29.553C1284.82 30.1282 1284.01 30.4157 1283.19 30.4157C1282.22 30.4157 1281.49 30.0665 1281 29.3681C1280.53 28.6697 1280.29 27.7762 1280.29 26.6875C1280.29 25.7015 1280.45 24.6334 1280.78 23.483C1281.11 22.3122 1281.56 21.1516 1282.14 20.0013C1282.73 18.851 1283.41 17.8034 1284.17 16.8585C1284.93 15.9136 1285.75 15.1535 1286.64 14.5784C1287.54 14.0032 1288.46 13.7156 1289.38 13.7156C1290.1 13.7156 1290.64 14.0751 1291.01 14.7941C1291.4 15.4925 1291.49 16.4784 1291.26 17.752L1290.92 17.9369C1291.06 16.8482 1290.99 15.9752 1290.7 15.3179C1290.42 14.64 1289.94 14.3011 1289.29 14.3011C1288.75 14.3011 1288.19 14.5681 1287.59 15.1022C1287.02 15.6157 1286.45 16.3244 1285.9 17.2282C1285.36 18.1115 1284.87 19.1077 1284.42 20.217C1283.99 21.3262 1283.64 22.4765 1283.37 23.6679C1283.13 24.8388 1283 25.9685 1283 27.0572C1283 27.9405 1283.09 28.5568 1283.28 28.906C1283.48 29.2552 1283.75 29.4298 1284.08 29.4298ZM1291.84 14.147C1292.34 14.1265 1292.83 14.0854 1293.32 14.0238C1293.82 13.9621 1294.27 13.8594 1294.68 13.7156L1290.83 27.3345C1290.79 27.5194 1290.73 27.7659 1290.64 28.074C1290.58 28.3616 1290.58 28.6286 1290.64 28.8751C1290.73 29.1216 1290.94 29.2449 1291.29 29.2449C1291.7 29.2449 1292.1 29.0189 1292.49 28.567C1292.88 28.1151 1293.27 27.2935 1293.66 26.1021L1294.03 24.962H1294.62L1293.85 27.2113C1293.56 28.0329 1293.21 28.68 1292.8 29.1525C1292.41 29.6044 1292 29.9228 1291.57 30.1076C1291.14 30.313 1290.72 30.4157 1290.3 30.4157C1289.5 30.4157 1288.94 30.1487 1288.61 29.6146C1288.34 29.1422 1288.27 28.5978 1288.39 27.9816C1288.52 27.3448 1288.66 26.708 1288.83 26.0713L1291.84 14.147ZM1306.09 14.3319C1305.31 14.3319 1304.53 14.6503 1303.75 15.2871C1302.99 15.9238 1302.29 16.7968 1301.66 17.9061C1301.02 19.0153 1300.51 20.2786 1300.12 21.6959C1299.75 23.1133 1299.56 24.6025 1299.56 26.1637C1299.56 27.2113 1299.76 27.9713 1300.15 28.4438C1300.56 28.8957 1301.08 29.1216 1301.72 29.1216C1302.46 29.1216 1303.22 28.8957 1304 28.4438C1304.78 27.9919 1305.56 27.1908 1306.34 26.0404L1306.96 26.2869C1306.57 26.9648 1306.05 27.6221 1305.42 28.2589C1304.78 28.8957 1304.06 29.4195 1303.26 29.8303C1302.48 30.2206 1301.65 30.4157 1300.76 30.4157C1299.53 30.4157 1298.54 30.0357 1297.81 29.2757C1297.07 28.5157 1296.7 27.3859 1296.7 25.8864C1296.7 24.9415 1296.83 23.9247 1297.1 22.836C1297.38 21.7268 1297.78 20.6381 1298.3 19.5699C1298.83 18.4812 1299.48 17.5055 1300.24 16.6428C1301 15.7595 1301.86 15.0508 1302.83 14.5167C1303.79 13.9827 1304.85 13.7156 1306 13.7156C1306.91 13.7156 1307.69 13.9519 1308.34 14.4243C1309 14.8762 1309.33 15.513 1309.33 16.3347C1309.33 16.7249 1309.24 17.1152 1309.05 17.5055C1308.89 17.8753 1308.64 18.1834 1308.31 18.4299C1307.98 18.6764 1307.59 18.7996 1307.14 18.7996C1306.71 18.7996 1306.39 18.6866 1306.19 18.4607C1305.98 18.2142 1305.88 17.9266 1305.88 17.598C1305.88 17.0023 1306.11 16.499 1306.59 16.0882C1307.06 15.6568 1307.59 15.3898 1308.19 15.2871C1307.98 14.9995 1307.72 14.7735 1307.39 14.6092C1307.06 14.4243 1306.63 14.3319 1306.09 14.3319ZM1312.03 22.9901C1313.18 22.5998 1314.22 22.2198 1315.14 21.85C1316.09 21.4597 1316.84 21.0489 1317.39 20.6175C1318.13 20.0218 1318.72 19.3029 1319.15 18.4607C1319.58 17.6185 1319.79 16.6941 1319.79 15.6876C1319.79 15.0919 1319.75 14.7119 1319.67 14.5476C1319.59 14.3832 1319.47 14.3011 1319.3 14.3011C1318.79 14.3011 1318.23 14.527 1317.64 14.9789C1317.04 15.4308 1316.46 16.0573 1315.88 16.8585C1315.31 17.639 1314.77 18.5326 1314.28 19.5391C1313.81 20.5456 1313.43 21.6241 1313.14 22.7744C1312.85 23.9041 1312.71 25.0339 1312.71 26.1637C1312.71 27.2113 1312.9 27.9713 1313.29 28.4438C1313.68 28.8957 1314.2 29.1216 1314.83 29.1216C1315.57 29.1216 1316.35 28.8957 1317.17 28.4438C1318 27.9919 1318.8 27.1908 1319.58 26.0404L1320.07 26.2869C1319.68 26.9648 1319.17 27.6221 1318.53 28.2589C1317.89 28.8957 1317.17 29.4195 1316.37 29.8303C1315.59 30.2206 1314.76 30.4157 1313.88 30.4157C1313.06 30.4157 1312.34 30.2514 1311.72 29.9228C1311.1 29.5941 1310.63 29.1114 1310.3 28.4746C1309.98 27.8173 1309.81 27.0162 1309.81 26.0713C1309.81 25.188 1309.98 24.202 1310.3 23.1133C1310.63 22.0041 1311.09 20.9051 1311.69 19.8164C1312.31 18.7072 1313.04 17.6904 1313.88 16.766C1314.72 15.8417 1315.65 15.1022 1316.68 14.5476C1317.71 13.9929 1318.81 13.7156 1319.98 13.7156C1320.62 13.7156 1321.15 13.8902 1321.58 14.2394C1322.03 14.5681 1322.26 15.0714 1322.26 15.7492C1322.26 16.5709 1322.01 17.3412 1321.52 18.0601C1321.05 18.7585 1320.41 19.4056 1319.61 20.0013C1318.83 20.5764 1317.98 21.09 1317.05 21.5419C1316.13 21.9938 1315.22 22.3841 1314.34 22.7127C1313.46 23.0414 1312.68 23.3084 1312 23.5139L1312.03 22.9901ZM1339.81 14.3319C1339.15 14.3319 1338.52 14.5989 1337.9 15.133C1337.3 15.6465 1336.75 16.3552 1336.24 17.259C1335.74 18.1423 1335.3 19.1386 1334.91 20.2478C1334.54 21.357 1334.25 22.5073 1334.05 23.6987C1333.84 24.8901 1333.74 26.0302 1333.74 27.1189C1333.74 28.0432 1333.88 28.7211 1334.17 29.1525C1334.48 29.5838 1334.92 29.7995 1335.5 29.7995C1336.15 29.7995 1336.78 29.5427 1337.38 29.0292C1337.99 28.4951 1338.56 27.7865 1339.07 26.9032C1339.58 25.9994 1340.03 24.9928 1340.4 23.8836C1340.77 22.7744 1341.05 21.6343 1341.26 20.4635C1341.46 19.2721 1341.57 18.1218 1341.57 17.0125C1341.57 16.0676 1341.42 15.3898 1341.14 14.9789C1340.85 14.5476 1340.41 14.3319 1339.81 14.3319ZM1331.09 25.5783C1331.09 24.6744 1331.21 23.6885 1331.46 22.6203C1331.71 21.5522 1332.08 20.4943 1332.57 19.4467C1333.06 18.3991 1333.66 17.4439 1334.36 16.5812C1335.08 15.7184 1335.91 15.0303 1336.85 14.5167C1337.8 13.9827 1338.85 13.7156 1340 13.7156C1341.27 13.7156 1342.29 14.1162 1343.05 14.9173C1343.83 15.6979 1344.22 16.9098 1344.22 18.5531C1344.22 19.4569 1344.09 20.4429 1343.85 21.5111C1343.6 22.5792 1343.23 23.6371 1342.74 24.6847C1342.24 25.7323 1341.64 26.6875 1340.92 27.5502C1340.22 28.413 1339.4 29.1114 1338.45 29.6454C1337.51 30.159 1336.46 30.4157 1335.31 30.4157C1334.04 30.4157 1333.01 30.0152 1332.23 29.2141C1331.47 28.413 1331.09 27.201 1331.09 25.5783ZM1347.55 14.7632L1347.74 14.147H1356.83L1356.64 14.7632H1347.55ZM1357.47 6.35157C1357.08 6.35157 1356.75 6.43374 1356.46 6.59806C1356.17 6.7624 1355.91 6.94727 1355.69 7.15268C1355.32 7.50188 1354.99 8.03596 1354.7 8.75491C1354.43 9.45331 1354.18 10.2647 1353.93 11.1891C1353.71 12.1134 1353.46 13.0891 1353.19 14.1162L1347.49 35.3457C1347 35.3662 1346.52 35.4073 1346.04 35.4689C1345.57 35.5305 1345.13 35.6332 1344.72 35.777L1350.51 14.1162C1350.94 12.4729 1351.39 11.1172 1351.87 10.049C1352.36 8.98086 1352.96 8.10785 1353.65 7.42999C1354.13 6.95754 1354.7 6.58779 1355.38 6.32076C1356.08 6.03318 1356.79 5.88939 1357.51 5.88939C1358.45 5.88939 1359.17 6.10507 1359.66 6.53644C1360.18 6.94727 1360.43 7.4608 1360.43 8.07704C1360.43 8.42625 1360.34 8.76518 1360.16 9.09384C1359.97 9.4225 1359.72 9.68954 1359.42 9.89495C1359.11 10.1004 1358.76 10.2031 1358.37 10.2031C1357.98 10.2031 1357.67 10.1106 1357.44 9.92576C1357.22 9.74089 1357.12 9.48412 1357.14 9.15546C1357.14 8.64193 1357.3 8.21056 1357.63 7.86136C1357.96 7.49161 1358.38 7.23485 1358.89 7.09106C1358.89 6.90619 1358.76 6.74185 1358.49 6.59806C1358.22 6.43374 1357.89 6.35157 1357.47 6.35157ZM1386.6 8.26191H1388.08C1388.8 8.26191 1389.49 8.25164 1390.17 8.2311C1390.85 8.21056 1391.44 8.19002 1391.93 8.16948L1391.78 8.78572C1391.08 8.80626 1390.53 8.88842 1390.14 9.03221C1389.75 9.15546 1389.44 9.40196 1389.22 9.7717C1389.01 10.1209 1388.81 10.6755 1388.6 11.4355L1384.53 26.7183C1384.35 27.4578 1384.27 28.0124 1384.29 28.3822C1384.33 28.7519 1384.51 28.9984 1384.84 29.1216C1385.17 29.2449 1385.67 29.3271 1386.35 29.3681L1386.23 29.9844C1385.76 29.9433 1385.18 29.9228 1384.5 29.9228C1383.83 29.9022 1383.13 29.8919 1382.41 29.8919C1381.61 29.8919 1380.85 29.9022 1380.13 29.9228C1379.41 29.9228 1378.83 29.9433 1378.4 29.9844L1378.53 29.3681C1379.24 29.3271 1379.79 29.2449 1380.16 29.1216C1380.55 28.9984 1380.86 28.7519 1381.08 28.3822C1381.31 28.0124 1381.51 27.4578 1381.7 26.7183L1386.17 10.1106L1373.38 30.1384H1372.7L1370.61 9.86414L1366.23 26.4102C1366.05 27.1497 1365.96 27.7351 1365.99 28.1665C1366.01 28.5773 1366.2 28.8751 1366.57 29.06C1366.94 29.2243 1367.52 29.3271 1368.3 29.3681L1368.14 29.9844C1367.92 29.9638 1367.62 29.9536 1367.25 29.9536C1366.9 29.933 1366.53 29.9228 1366.14 29.9228C1365.75 29.9022 1365.38 29.8919 1365.03 29.8919C1364.52 29.8919 1363.99 29.9022 1363.46 29.9228C1362.92 29.9228 1362.48 29.9433 1362.13 29.9844L1362.29 29.3681C1363.01 29.3271 1363.56 29.2243 1363.95 29.06C1364.34 28.8751 1364.65 28.5773 1364.88 28.1665C1365.12 27.7351 1365.34 27.1497 1365.52 26.4102L1369.53 11.4355C1369.73 10.6755 1369.82 10.1209 1369.78 9.7717C1369.73 9.40196 1369.55 9.15546 1369.22 9.03221C1368.91 8.88842 1368.41 8.80626 1367.71 8.78572L1367.86 8.16948C1368.19 8.19002 1368.59 8.21056 1369.07 8.2311C1369.56 8.25164 1370.07 8.26191 1370.61 8.26191C1371.08 8.26191 1371.56 8.25164 1372.06 8.2311C1372.55 8.21056 1372.97 8.19002 1373.32 8.16948L1375.01 26.441L1386.6 8.26191ZM1395.51 8.53922C1395.62 8.00515 1395.88 7.54297 1396.32 7.15268C1396.77 6.7624 1397.25 6.56725 1397.76 6.56725C1398.3 6.56725 1398.71 6.7624 1399 7.15268C1399.3 7.54297 1399.41 8.00515 1399.3 8.53922C1399.2 9.0733 1398.92 9.53548 1398.47 9.92576C1398.04 10.316 1397.56 10.5112 1397.02 10.5112C1396.51 10.5112 1396.1 10.316 1395.79 9.92576C1395.5 9.53548 1395.41 9.0733 1395.51 8.53922ZM1394.56 16.766C1394.99 15.4925 1394.85 14.8557 1394.13 14.8557C1393.66 14.8557 1393.23 15.1124 1392.86 15.626C1392.49 16.1395 1392.1 16.9304 1391.69 17.9985L1391.26 19.1386H1390.68L1391.48 16.8893C1391.79 16.0265 1392.16 15.3692 1392.59 14.9173C1393.02 14.4654 1393.47 14.1573 1393.94 13.9929C1394.44 13.8081 1394.89 13.7156 1395.3 13.7156C1395.96 13.7156 1396.44 13.8492 1396.75 14.1162C1397.05 14.3832 1397.24 14.7324 1397.3 15.1638C1397.36 15.5952 1397.34 16.0676 1397.24 16.5812C1397.14 17.0741 1397 17.5569 1396.84 18.0293L1393.54 27.3654C1393.34 27.9611 1393.26 28.4335 1393.33 28.7827C1393.41 29.1114 1393.64 29.2757 1394.04 29.2757C1394.45 29.2757 1394.84 29.0497 1395.21 28.5978C1395.58 28.1459 1395.99 27.3243 1396.44 26.1329L1396.87 24.9928H1397.46L1396.65 27.2421C1396.37 28.0432 1396.02 28.68 1395.61 29.1525C1395.2 29.6044 1394.75 29.9228 1394.28 30.1076C1393.81 30.313 1393.34 30.4157 1392.86 30.4157C1391.98 30.4157 1391.39 30.2103 1391.08 29.7995C1390.77 29.3887 1390.66 28.8546 1390.74 28.1973C1390.82 27.54 1391 26.8416 1391.26 26.1021L1394.56 16.766ZM1402.75 29.9844H1400.07L1403.76 16.766C1403.85 16.5195 1403.91 16.2525 1403.95 15.9649C1404.01 15.6568 1404 15.4 1403.92 15.1946C1403.84 14.9687 1403.63 14.8557 1403.3 14.8557C1402.85 14.8557 1402.45 15.0816 1402.1 15.5335C1401.75 15.9649 1401.36 16.7866 1400.93 17.9985L1400.53 19.1386H1399.94L1400.71 16.8893C1401.17 15.5952 1401.72 14.7427 1402.38 14.3319C1403.06 13.9211 1403.72 13.7156 1404.38 13.7156C1405 13.7156 1405.44 13.8492 1405.71 14.1162C1405.99 14.3832 1406.15 14.7324 1406.17 15.1638C1406.21 15.5746 1406.18 16.0368 1406.08 16.5503C1405.99 17.0433 1405.89 17.5363 1405.77 18.0293L1402.75 29.9844ZM1404.16 23.5755C1404.88 21.7268 1405.58 20.1759 1406.26 18.9229C1406.94 17.6698 1407.61 16.6633 1408.26 15.9033C1408.92 15.1227 1409.59 14.5681 1410.27 14.2394C1410.96 13.8902 1411.68 13.7156 1412.42 13.7156C1413.39 13.7156 1414.05 13.9519 1414.39 14.4243C1414.76 14.8762 1414.93 15.4617 1414.89 16.1806C1414.85 16.879 1414.7 17.6082 1414.46 18.3683L1411.47 27.3654C1411.28 27.92 1411.2 28.3822 1411.22 28.7519C1411.26 29.1011 1411.51 29.2757 1411.96 29.2757C1412.35 29.2757 1412.73 29.06 1413.1 28.6286C1413.49 28.1973 1413.9 27.3654 1414.33 26.1329L1414.73 24.9928H1415.32L1414.55 27.2421C1414.26 28.1048 1413.9 28.7622 1413.47 29.2141C1413.06 29.666 1412.62 29.9741 1412.15 30.1384C1411.69 30.3233 1411.25 30.4157 1410.82 30.4157C1410.33 30.4157 1409.92 30.3336 1409.59 30.1692C1409.28 30.0049 1409.04 29.7892 1408.88 29.5222C1408.65 29.1525 1408.58 28.6697 1408.66 28.074C1408.75 27.4783 1408.91 26.821 1409.16 26.1021L1412.08 17.2898C1412.19 17.0023 1412.27 16.6633 1412.33 16.273C1412.41 15.8622 1412.4 15.5027 1412.3 15.1946C1412.2 14.866 1411.9 14.7016 1411.41 14.7016C1410.91 14.7016 1410.39 14.9173 1409.83 15.3487C1409.28 15.78 1408.7 16.3963 1408.11 17.1974C1407.51 17.978 1406.93 18.9229 1406.35 20.0321C1405.78 21.1208 1405.22 22.3327 1404.69 23.6679C1404.18 24.9826 1403.7 26.3896 1403.27 27.8892L1404.16 23.5755ZM1428.23 27.3654C1428.09 27.8378 1428.03 28.2794 1428.05 28.6903C1428.09 29.0806 1428.33 29.2757 1428.79 29.2757C1429.2 29.2757 1429.58 29.0497 1429.93 28.5978C1430.28 28.1254 1430.65 27.3037 1431.04 26.1329L1431.41 24.9928H1431.99L1431.28 27.2421C1431.04 28.0638 1430.71 28.7108 1430.3 29.1833C1429.89 29.6352 1429.45 29.9536 1429 30.1384C1428.55 30.3233 1428.12 30.4157 1427.71 30.4157C1426.48 30.4157 1425.83 29.8303 1425.77 28.6595C1425.75 28.3308 1425.77 27.9508 1425.83 27.5194C1425.91 27.088 1426.02 26.6156 1426.17 26.1021L1430.6 9.43277C1430.79 8.73436 1430.76 8.22083 1430.51 7.89217C1430.27 7.56351 1429.64 7.39918 1428.63 7.39918L1428.82 6.75213C1429.95 6.73158 1430.94 6.61861 1431.81 6.41319C1432.67 6.18724 1433.49 5.87912 1434.27 5.48883L1428.23 27.3654ZM1421.33 29.4298C1421.84 29.4298 1422.42 29.1319 1423.06 28.5362C1423.71 27.92 1424.37 27.0983 1425.03 26.0713C1425.7 25.0236 1426.32 23.8425 1426.88 22.5279C1427.45 21.1927 1427.9 19.8164 1428.23 18.3991L1427.77 21.7268C1426.97 23.8425 1426.17 25.5372 1425.37 26.8107C1424.59 28.0843 1423.78 29.0087 1422.96 29.5838C1422.16 30.1384 1421.32 30.4157 1420.44 30.4157C1419.8 30.4157 1419.23 30.272 1418.74 29.9844C1418.27 29.6763 1417.9 29.2243 1417.63 28.6286C1417.37 28.0329 1417.23 27.2729 1417.23 26.3486C1417.23 25.3626 1417.39 24.3047 1417.69 23.1749C1418.02 22.0246 1418.48 20.8948 1419.08 19.7856C1419.68 18.6764 1420.38 17.6698 1421.21 16.766C1422.05 15.8417 1422.97 15.1022 1423.98 14.5476C1424.99 13.9929 1426.05 13.7156 1427.18 13.7156C1427.66 13.7156 1428.1 13.9005 1428.51 14.2703C1428.92 14.6195 1429.15 15.1535 1429.19 15.8725L1428.94 16.4887C1428.86 15.7492 1428.65 15.2254 1428.32 14.9173C1428 14.5886 1427.63 14.4243 1427.21 14.4243C1426.43 14.4243 1425.67 14.6914 1424.93 15.2254C1424.22 15.7595 1423.56 16.4682 1422.96 17.3515C1422.37 18.2347 1421.84 19.2207 1421.39 20.3094C1420.94 21.3776 1420.59 22.4765 1420.34 23.6063C1420.1 24.7155 1419.97 25.7631 1419.97 26.7491C1419.97 27.6529 1420.09 28.3308 1420.31 28.7827C1420.54 29.2141 1420.88 29.4298 1421.33 29.4298Z"
        fill="#0B2736" style="fill:#0B2736;fill:color(display-p3 0.0431 0.1529 0.2118);fill-opacity:1;" />
    <path d="M450.207 16.0723H614.915" stroke="#231F20"
        style="stroke:#231F20;stroke:color(display-p3 0.1373 0.1216 0.1255);stroke-opacity:1;" stroke-miterlimit="10" />
</svg>