<svg xmlns="http://www.w3.org/2000/svg" width="24" height="24" fill="none" viewBox="0 0 24 24">
    <path fill="currentColor" fill-rule="evenodd"
        d="M16.085 2h-8.17C4.445 2 2.005 4.45 2.005 7.92v8.17c0 3.47 2.44 5.92 5.91 5.92h8.17c3.47 0 5.91-2.45 5.91-5.92V7.92c0-3.47-2.44-5.92-5.91-5.92Zm-7.84 15.03c0 .39-.32.72-.72.72a.73.73 0 0 1-.72-.72V6.97c0-.4.33-.72.72-.72.4 0 .72.33.72.72v10.06Zm4.47 0c0 .39-.32.72-.72.72a.728.728 0 0 1-.72-.72V6.97c0-.4.33-.72.72-.72.4 0 .72.33.72.72v10.06Zm3.03.72c.4 0 .72-.33.72-.72V6.97a.73.73 0 0 0-.72-.72c-.39 0-.72.33-.72.72v10.06c0 .39.33.72.72.72Z"
        clip-rule="evenodd" />
</svg>