<svg xmlns="http://www.w3.org/2000/svg" width="24" height="24" fill="none" viewBox="0 0 24 24">
    <path fill="currentColor" fill-rule="evenodd"
        d="M16.335 2H7.666C4.277 2 2 4.378 2 7.916v8.168C2 19.622 4.276 22 7.666 22h8.669C19.724 22 22 19.622 22 16.084V7.916C22 4.378 19.734 2 16.335 2ZM7.656 10.859c0-.49.398-.88.888-.88.49 0 .878.39.878.88v5.413c0 .49-.387.88-.878.88-.49 0-.888-.39-.888-.88v-5.413Zm6.791-3.131a.88.88 0 0 0-.878.88v9.664c0 .49.387.88.878.88.5 0 .888-.39.888-.88V8.608c0-.49-.388-.88-.888-.88Zm2.956 6.131c0-.49.388-.88.879-.88.5 0 .888.39.888.88v2.413c0 .49-.388.88-.888.88a.882.882 0 0 1-.879-.88v-2.413Zm-6.84-.88a.88.88 0 0 1 .877.88v2.413a.88.88 0 0 1-.878.88.882.882 0 0 1-.878-.88v-2.413c0-.49.388-.88.878-.88Z"
        clip-rule="evenodd" />
</svg>