<svg xmlns="http://www.w3.org/2000/svg" width="24" height="24" fill="none" viewBox="0 0 24 24">
    <path fill="currentColor" fill-rule="evenodd"
        d="M16.24 2H7.76C4.29 2 2 4.38 2 7.92v8.17c0 3.53 2.29 5.91 5.76 5.91h8.48c3.47 0 5.76-2.38 5.76-5.91V7.92C22 4.38 19.71 2 16.24 2Zm-2.23 8.55V5.87c0-.49.39-.88.87-.88.49 0 .88.39.88.88v4.68c0 .48-.39.87-.88.87-.48 0-.87-.39-.87-.87Zm2.9 5.15c-.34 1.95-2.04 3.42-4.08 3.42-2.29 0-4.15-1.86-4.15-4.15 0-2.04 1.47-3.74 3.43-4.08.47-.09.91.23 1 .7.08.47-.24.91-.71 1a2.399 2.399 0 0 0-1.97 2.38c0 1.33 1.08 2.4 2.4 2.4 1.08 0 2-.72 2.3-1.76l.07-.22c.13-.45.6-.72 1.06-.58.45.13.72.6.59 1.06l-.07.21.13-.38Z"
        clip-rule="evenodd" />
</svg>