<svg xmlns="http://www.w3.org/2000/svg" width="24" height="24" fill="none" viewBox="0 0 24 24">
    <path fill="currentColor" fill-rule="evenodd"
        d="M2 12C2 6.48 6.48 2 12 2s10 4.48 10 10-4.48 10-10 10S2 17.52 2 12Zm13.53-3.17c.67-.67.67-1.8-.01-2.48a1.74 1.74 0 0 0-1.24-.52c-.45 0-.9.17-1.24.51L7.8 11.6c-.67.67-.67 1.8.01 2.48.34.34.79.52 1.24.51.45-.01.9-.19 1.24-.52l5.24-5.24Zm-.63 9.35.06-.59.03-.33a4.33 4.33 0 0 0 2.66-.74c1.86-1.35 2.71-3.7 2.13-5.87a1.02 1.02 0 0 0-.69-.71 1.01 1.01 0 0 0-.96.22l-1.28 1.16c-.2-.14-.5-.37-.73-.6-.24-.26-.47-.54-.59-.71l1.15-1.28c.24-.27.32-.64.21-.97a1.07 1.07 0 0 0-.72-.68c-1.17-.32-2.45-.17-3.54.39l.53 2.94.36.1a.13.13 0 0 0-.03-.01l.52 2.93c-.28.51-.41 1.1-.34 1.7l.05.36.08.6.57.48.54.38.43-.49Z"
        clip-rule="evenodd" />
</svg>