<svg xmlns="http://www.w3.org/2000/svg" width="24" height="24" fill="none" viewBox="0 0 24 24">
    <path fill="currentColor" fill-rule="evenodd"
        d="M16.34 22H7.67C4.28 22 2 19.62 2 16.1V7.92C2 4.38 4.28 2 7.67 2h8.67C19.73 2 22 4.38 22 7.92v8.17c0 3.53-2.27 5.9-5.66 5.9ZM12.18 7.05c-.14-.01-.28.02-.41.08l-3.52 1.69c-.34.16-.55.51-.55.89 0 .55.44.99.99.99.15 0 .3-.04.44-.1l1.9-.91v7.89c0 .48.39.87.87.87.49 0 .88-.39.88-.87V7.93a.862.862 0 0 0-.36-.76.865.865 0 0 0-.24-.12Z"
        clip-rule="evenodd" />
</svg>